M48
;Layer_Color=9474304
;FILE_FORMAT=4:4
METRIC,LZ
;TYPE=PLATED
T1F00S00C0.5000
T2F00S00C1.0000
T3F00S00C1.1000
%
T01
X002525Y00065
X0025Y000875
X00245Y001325
X002775Y001275
X003Y000575
X00325722Y0006625
X00385Y000675
X004425Y0009
X0044Y0013
X004425Y0002
X0016Y00015
X0014Y0005
X00085Y000675
X000675Y001175
X0006Y00015
X002025Y0009
X001875Y001125
T02
X000375Y000223
Y000477
X000375Y000923
Y001177
T03
X00465Y000346
Y0006
Y000854
M30
