G04*
G04 #@! TF.GenerationSoftware,Altium Limited,Altium Designer,20.1.7 (139)*
G04*
G04 Layer_Color=16711935*
%FSLAX44Y44*%
%MOMM*%
G71*
G04*
G04 #@! TF.SameCoordinates,E0ED747D-F99B-4A2E-885D-06FFC37D6295*
G04*
G04*
G04 #@! TF.FilePolarity,Negative*
G04*
G01*
G75*
%ADD13R,0.9032X0.7032*%
%ADD14R,0.8032X0.8032*%
%ADD15R,0.8032X0.8032*%
%ADD19R,1.8032X1.2032*%
%ADD43R,0.8032X1.3032*%
%ADD44C,0.9032*%
%ADD45R,0.9200X0.5000*%
%ADD46R,1.8600X2.6000*%
%ADD47R,0.2032X0.2032*%
%ADD48C,0.2032*%
D13*
X94000Y243500D02*
D03*
Y230500D02*
D03*
X74000Y237000D02*
D03*
D14*
X90000Y108000D02*
D03*
Y98000D02*
D03*
X95000Y204000D02*
D03*
Y214000D02*
D03*
Y183000D02*
D03*
Y193000D02*
D03*
X45000Y118000D02*
D03*
Y108000D02*
D03*
D15*
X60000Y167000D02*
D03*
X70000D02*
D03*
X63000Y108000D02*
D03*
X73000D02*
D03*
D19*
X17000Y181000D02*
D03*
Y211000D02*
D03*
X40000Y181000D02*
D03*
Y211000D02*
D03*
D43*
X59500Y211000D02*
D03*
X69000D02*
D03*
X78500D02*
D03*
Y185000D02*
D03*
X59500D02*
D03*
D44*
X59000Y84000D02*
D03*
X63000Y92000D02*
D03*
X55000D02*
D03*
Y76000D02*
D03*
X63000D02*
D03*
D45*
X73500Y94000D02*
D03*
Y89000D02*
D03*
Y84000D02*
D03*
Y79000D02*
D03*
Y74000D02*
D03*
X44500D02*
D03*
Y79000D02*
D03*
Y84000D02*
D03*
Y89000D02*
D03*
Y94000D02*
D03*
D46*
X59000Y84000D02*
D03*
D47*
X84400Y23000D02*
D03*
D48*
X59000D02*
D03*
X33600D02*
D03*
M02*
