G04*
G04 #@! TF.GenerationSoftware,Altium Limited,Altium Designer,20.1.7 (139)*
G04*
G04 Layer_Color=39423*
%FSLAX44Y44*%
%MOMM*%
G71*
G04*
G04 #@! TF.SameCoordinates,E0ED747D-F99B-4A2E-885D-06FFC37D6295*
G04*
G04*
G04 #@! TF.FilePolarity,Positive*
G04*
G01*
G75*
%ADD10C,0.2500*%
%ADD11C,0.2000*%
G36*
X26450Y161296D02*
X26496Y161269D01*
X26542Y161241D01*
X26589Y161194D01*
X26616Y161130D01*
X26626Y161037D01*
Y158902D01*
X26607Y158855D01*
X26589Y158809D01*
X26561Y158763D01*
X26515Y158717D01*
X26450Y158689D01*
X26367Y158680D01*
X26348D01*
X26321Y158689D01*
X26265Y158698D01*
X26219Y158717D01*
X23122Y160649D01*
X23112Y160658D01*
X23085Y160667D01*
X23038Y160686D01*
X22983Y160714D01*
X22918Y160742D01*
X22844Y160760D01*
X22770Y160769D01*
X22687Y160779D01*
X22669D01*
X22632D01*
X22576Y160769D01*
X22493Y160751D01*
X22410Y160723D01*
X22317Y160677D01*
X22225Y160621D01*
X22132Y160547D01*
X22123Y160538D01*
X22095Y160510D01*
X22058Y160455D01*
X22012Y160390D01*
X21975Y160307D01*
X21938Y160215D01*
X21911Y160104D01*
X21901Y159983D01*
Y159965D01*
X21911Y159909D01*
X21938Y159826D01*
X21985Y159715D01*
X22021Y159650D01*
X22058Y159586D01*
X22114Y159521D01*
X22179Y159447D01*
X22253Y159373D01*
X22345Y159308D01*
X22438Y159235D01*
X22558Y159160D01*
X22567D01*
X22576Y159151D01*
X22622Y159105D01*
X22669Y159040D01*
X22678Y158994D01*
X22687Y158939D01*
Y158902D01*
X22669Y158855D01*
X22650Y158809D01*
X22622Y158763D01*
X22576Y158717D01*
X22511Y158689D01*
X22428Y158680D01*
X22419D01*
X22391D01*
X22317Y158698D01*
X22308Y158708D01*
X22280Y158717D01*
X22234Y158744D01*
X22169Y158791D01*
X22095Y158837D01*
X22021Y158892D01*
X21929Y158966D01*
X21846Y159040D01*
X21753Y159133D01*
X21670Y159235D01*
X21596Y159336D01*
X21522Y159447D01*
X21458Y159577D01*
X21411Y159706D01*
X21384Y159845D01*
X21374Y159993D01*
Y160048D01*
X21384Y160085D01*
X21393Y160187D01*
X21421Y160307D01*
X21467Y160455D01*
X21541Y160612D01*
X21633Y160769D01*
X21763Y160917D01*
X21781Y160936D01*
X21827Y160982D01*
X21911Y161037D01*
X22021Y161111D01*
X22160Y161185D01*
X22317Y161241D01*
X22493Y161287D01*
X22687Y161306D01*
X22706D01*
X22752D01*
X22826Y161296D01*
X22927Y161278D01*
X23038Y161250D01*
X23168Y161204D01*
X23307Y161148D01*
X23445Y161065D01*
X26099Y159410D01*
Y161084D01*
X26108Y161121D01*
X26136Y161176D01*
X26163Y161222D01*
X26210Y161269D01*
X26274Y161296D01*
X26367Y161306D01*
X26376D01*
X26404D01*
X26450Y161296D01*
D02*
G37*
G36*
X21698Y157617D02*
X26413Y156572D01*
X26422D01*
X26450Y156562D01*
X26478Y156544D01*
X26515Y156525D01*
X26561Y156489D01*
X26589Y156442D01*
X26616Y156387D01*
X26626Y156313D01*
Y156285D01*
X26616Y156248D01*
X26598Y156211D01*
X26570Y156165D01*
X26533Y156119D01*
X26478Y156082D01*
X26404Y156045D01*
X24056Y155268D01*
X26404Y154482D01*
X26413D01*
X26441Y154464D01*
X26478Y154445D01*
X26515Y154417D01*
X26552Y154381D01*
X26589Y154334D01*
X26616Y154279D01*
X26626Y154214D01*
Y154177D01*
X26616Y154140D01*
X26598Y154103D01*
X26570Y154057D01*
X26533Y154020D01*
X26478Y153983D01*
X26404Y153955D01*
X21698Y152901D01*
X21689D01*
X21679D01*
X21642D01*
X21633D01*
X21596D01*
X21559Y152920D01*
X21504Y152938D01*
X21458Y152966D01*
X21411Y153012D01*
X21384Y153077D01*
X21374Y153160D01*
Y153197D01*
X21384Y153234D01*
X21402Y153271D01*
X21421Y153317D01*
X21458Y153364D01*
X21513Y153391D01*
X21578Y153419D01*
X25378Y154260D01*
X23168Y155000D01*
X23159D01*
X23131Y155019D01*
X23094Y155037D01*
X23057Y155065D01*
X23020Y155092D01*
X22983Y155139D01*
X22955Y155194D01*
X22946Y155259D01*
Y155287D01*
X22955Y155324D01*
X22974Y155370D01*
X23001Y155407D01*
X23038Y155453D01*
X23094Y155490D01*
X23168Y155527D01*
X25378Y156257D01*
X21578Y157108D01*
X21568D01*
X21550Y157117D01*
X21513Y157136D01*
X21476Y157154D01*
X21439Y157191D01*
X21402Y157237D01*
X21384Y157293D01*
X21374Y157367D01*
Y157404D01*
X21384Y157450D01*
X21411Y157496D01*
X21439Y157542D01*
X21485Y157589D01*
X21550Y157617D01*
X21642Y157626D01*
X21652D01*
X21698Y157617D01*
D02*
G37*
G36*
X25405Y151838D02*
X25507Y151829D01*
X25636Y151801D01*
X25784Y151755D01*
X25932Y151681D01*
X26099Y151588D01*
X26247Y151459D01*
X26265Y151440D01*
X26302Y151394D01*
X26367Y151311D01*
X26432Y151200D01*
X26506Y151061D01*
X26570Y150904D01*
X26607Y150719D01*
X26626Y150525D01*
Y150433D01*
X26616Y150359D01*
X26607Y150275D01*
X26598Y150183D01*
X26579Y150072D01*
X26552Y149943D01*
X26487Y149675D01*
X26441Y149536D01*
X26385Y149388D01*
X26321Y149240D01*
X26237Y149092D01*
X26154Y148944D01*
X26052Y148805D01*
X26034Y148787D01*
X25997Y148750D01*
X25923Y148713D01*
X25886Y148704D01*
X25840Y148694D01*
X25831D01*
X25821D01*
X25775Y148704D01*
X25720Y148722D01*
X25664Y148769D01*
X25655Y148778D01*
X25618Y148824D01*
X25590Y148879D01*
X25581Y148953D01*
Y148963D01*
X25590Y149000D01*
X25600Y149046D01*
X25627Y149101D01*
X25636Y149110D01*
X25655Y149148D01*
X25683Y149203D01*
X25720Y149277D01*
X25775Y149379D01*
X25840Y149508D01*
X25905Y149656D01*
X25988Y149832D01*
Y149850D01*
X26006Y149887D01*
X26025Y149952D01*
X26043Y150035D01*
X26062Y150137D01*
X26080Y150257D01*
X26089Y150386D01*
X26099Y150525D01*
Y150581D01*
X26089Y150645D01*
X26071Y150719D01*
X26043Y150812D01*
X26006Y150904D01*
X25951Y150997D01*
X25877Y151089D01*
X25868Y151098D01*
X25831Y151126D01*
X25784Y151163D01*
X25720Y151209D01*
X25636Y151246D01*
X25544Y151283D01*
X25433Y151311D01*
X25313Y151320D01*
X25304D01*
X25294D01*
X25230Y151311D01*
X25147Y151302D01*
X25045Y151265D01*
X24934Y151209D01*
X24814Y151135D01*
X24703Y151024D01*
X24656Y150950D01*
X24610Y150877D01*
X23852Y149406D01*
Y149397D01*
X23834Y149379D01*
X23815Y149342D01*
X23787Y149296D01*
X23695Y149185D01*
X23639Y149120D01*
X23575Y149055D01*
X23491Y148981D01*
X23408Y148916D01*
X23316Y148861D01*
X23205Y148805D01*
X23094Y148759D01*
X22964Y148722D01*
X22835Y148704D01*
X22687Y148694D01*
X22678D01*
X22659D01*
X22632D01*
X22595Y148704D01*
X22493Y148713D01*
X22373Y148741D01*
X22225Y148787D01*
X22068Y148852D01*
X21911Y148944D01*
X21763Y149074D01*
X21744Y149092D01*
X21698Y149148D01*
X21642Y149221D01*
X21568Y149332D01*
X21494Y149471D01*
X21439Y149628D01*
X21393Y149813D01*
X21374Y150007D01*
Y150155D01*
X21384Y150239D01*
X21393Y150322D01*
X21402Y150423D01*
X21411Y150534D01*
X21448Y150756D01*
X21494Y150997D01*
X21568Y151219D01*
X21615Y151329D01*
X21661Y151422D01*
Y151431D01*
X21679Y151450D01*
X21726Y151505D01*
X21800Y151551D01*
X21846Y151570D01*
X21901Y151579D01*
X21920D01*
X21966Y151570D01*
X22021Y151542D01*
X22086Y151496D01*
X22095Y151487D01*
X22123Y151450D01*
X22151Y151394D01*
X22160Y151320D01*
Y151292D01*
X22151Y151256D01*
X22132Y151209D01*
Y151200D01*
X22123Y151182D01*
X22114Y151154D01*
X22095Y151108D01*
X22077Y151052D01*
X22058Y150987D01*
X22012Y150830D01*
X21975Y150645D01*
X21938Y150442D01*
X21911Y150229D01*
X21901Y150007D01*
Y149952D01*
X21911Y149887D01*
X21929Y149813D01*
X21957Y149721D01*
X22003Y149628D01*
X22058Y149536D01*
X22132Y149443D01*
X22142Y149434D01*
X22169Y149406D01*
X22225Y149369D01*
X22290Y149332D01*
X22373Y149296D01*
X22465Y149258D01*
X22567Y149231D01*
X22687Y149221D01*
X22696D01*
X22706D01*
X22761Y149231D01*
X22854Y149240D01*
X22955Y149277D01*
X23066Y149323D01*
X23186Y149397D01*
X23297Y149508D01*
X23344Y149573D01*
X23390Y149647D01*
X24148Y151126D01*
Y151135D01*
X24166Y151154D01*
X24185Y151191D01*
X24222Y151237D01*
X24305Y151357D01*
X24361Y151422D01*
X24434Y151487D01*
X24509Y151551D01*
X24592Y151616D01*
X24693Y151681D01*
X24795Y151736D01*
X24906Y151783D01*
X25036Y151819D01*
X25165Y151838D01*
X25313Y151847D01*
X25322D01*
X25341D01*
X25368D01*
X25405Y151838D01*
D02*
G37*
G36*
X25648Y305832D02*
X25741Y305795D01*
X25833Y305721D01*
X25926Y305629D01*
X25982Y305499D01*
X26000Y305333D01*
Y305277D01*
X25982Y305203D01*
X25963Y305129D01*
X25907Y305055D01*
X25852Y304962D01*
X25759Y304888D01*
X25648Y304832D01*
X23371Y304073D01*
Y300277D01*
X25648Y299518D01*
X25667D01*
X25704Y299500D01*
X25815Y299407D01*
X25889Y299333D01*
X25944Y299259D01*
X25982Y299148D01*
X26000Y299018D01*
Y298944D01*
X25963Y298852D01*
X25926Y298759D01*
X25870Y298666D01*
X25778Y298574D01*
X25648Y298518D01*
X25482Y298500D01*
X25463D01*
X25426D01*
X25315Y298518D01*
X15908Y301648D01*
X15890D01*
X15834Y301685D01*
X15779Y301722D01*
X15686Y301777D01*
X15612Y301833D01*
X15557Y301925D01*
X15501Y302036D01*
X15482Y302166D01*
Y302222D01*
X15501Y302296D01*
X15538Y302370D01*
X15575Y302462D01*
X15649Y302555D01*
X15760Y302629D01*
X15890Y302685D01*
X25315Y305832D01*
X25333D01*
X25370Y305851D01*
X25482D01*
X25500D01*
X25556D01*
X25648Y305832D01*
D02*
G37*
G36*
X46450Y112407D02*
X46496Y112379D01*
X46543Y112352D01*
X46589Y112305D01*
X46616Y112241D01*
X46626Y112148D01*
Y110012D01*
X46607Y109966D01*
X46589Y109920D01*
X46561Y109874D01*
X46515Y109827D01*
X46450Y109800D01*
X46367Y109790D01*
X46348D01*
X46321Y109800D01*
X46265Y109809D01*
X46219Y109827D01*
X43122Y111760D01*
X43112Y111769D01*
X43085Y111778D01*
X43038Y111797D01*
X42983Y111825D01*
X42918Y111852D01*
X42844Y111871D01*
X42770Y111880D01*
X42687Y111889D01*
X42669D01*
X42632D01*
X42576Y111880D01*
X42493Y111861D01*
X42410Y111834D01*
X42317Y111788D01*
X42225Y111732D01*
X42132Y111658D01*
X42123Y111649D01*
X42095Y111621D01*
X42058Y111566D01*
X42012Y111501D01*
X41975Y111418D01*
X41938Y111325D01*
X41910Y111214D01*
X41901Y111094D01*
Y111076D01*
X41910Y111020D01*
X41938Y110937D01*
X41984Y110826D01*
X42021Y110761D01*
X42058Y110697D01*
X42114Y110632D01*
X42179Y110558D01*
X42252Y110484D01*
X42345Y110419D01*
X42437Y110345D01*
X42558Y110271D01*
X42567D01*
X42576Y110262D01*
X42622Y110216D01*
X42669Y110151D01*
X42678Y110105D01*
X42687Y110049D01*
Y110012D01*
X42669Y109966D01*
X42650Y109920D01*
X42622Y109874D01*
X42576Y109827D01*
X42511Y109800D01*
X42428Y109790D01*
X42419D01*
X42391D01*
X42317Y109809D01*
X42308Y109818D01*
X42280Y109827D01*
X42234Y109855D01*
X42169Y109902D01*
X42095Y109948D01*
X42021Y110003D01*
X41929Y110077D01*
X41846Y110151D01*
X41753Y110244D01*
X41670Y110345D01*
X41596Y110447D01*
X41522Y110558D01*
X41457Y110687D01*
X41411Y110817D01*
X41383Y110955D01*
X41374Y111103D01*
Y111159D01*
X41383Y111196D01*
X41393Y111298D01*
X41420Y111418D01*
X41467Y111566D01*
X41541Y111723D01*
X41633Y111880D01*
X41762Y112028D01*
X41781Y112046D01*
X41827Y112093D01*
X41910Y112148D01*
X42021Y112222D01*
X42160Y112296D01*
X42317Y112352D01*
X42493Y112398D01*
X42687Y112416D01*
X42706D01*
X42752D01*
X42826Y112407D01*
X42927Y112388D01*
X43038Y112361D01*
X43168Y112315D01*
X43306Y112259D01*
X43445Y112176D01*
X46099Y110521D01*
Y112194D01*
X46108Y112231D01*
X46136Y112287D01*
X46163Y112333D01*
X46210Y112379D01*
X46274Y112407D01*
X46367Y112416D01*
X46376D01*
X46404D01*
X46450Y112407D01*
D02*
G37*
G36*
X45405Y108727D02*
X45507Y108718D01*
X45636Y108690D01*
X45784Y108644D01*
X45932Y108570D01*
X46099Y108478D01*
X46247Y108348D01*
X46265Y108330D01*
X46302Y108284D01*
X46367Y108200D01*
X46431Y108089D01*
X46505Y107951D01*
X46570Y107794D01*
X46607Y107608D01*
X46626Y107414D01*
Y105806D01*
X46607Y105759D01*
X46589Y105713D01*
X46561Y105667D01*
X46515Y105621D01*
X46450Y105593D01*
X46367Y105584D01*
X41642D01*
X41633D01*
X41596D01*
X41559Y105602D01*
X41504Y105621D01*
X41457Y105648D01*
X41411Y105695D01*
X41383Y105759D01*
X41374Y105843D01*
Y107470D01*
X41383Y107507D01*
X41393Y107608D01*
X41420Y107738D01*
X41467Y107886D01*
X41541Y108043D01*
X41633Y108200D01*
X41762Y108348D01*
X41781Y108367D01*
X41827Y108413D01*
X41910Y108468D01*
X42021Y108542D01*
X42151Y108616D01*
X42308Y108672D01*
X42493Y108718D01*
X42687Y108736D01*
X45313D01*
X45322D01*
X45340D01*
X45368D01*
X45405Y108727D01*
D02*
G37*
G36*
X74880Y303380D02*
X74935Y303353D01*
X74981Y303325D01*
X75028Y303279D01*
X75055Y303214D01*
X75065Y303121D01*
Y298397D01*
Y298388D01*
Y298360D01*
X75055Y298314D01*
X75028Y298267D01*
X75000Y298221D01*
X74954Y298175D01*
X74889Y298147D01*
X74797Y298138D01*
X74760D01*
X74713Y298157D01*
X74667Y298175D01*
X74621Y298203D01*
X74575Y298249D01*
X74547Y298314D01*
X74538Y298397D01*
Y300764D01*
X72439D01*
Y298397D01*
Y298388D01*
Y298360D01*
X72430Y298314D01*
X72402Y298267D01*
X72374Y298221D01*
X72328Y298175D01*
X72263Y298147D01*
X72171Y298138D01*
X72134D01*
X72088Y298157D01*
X72041Y298175D01*
X71995Y298203D01*
X71949Y298249D01*
X71921Y298314D01*
X71912Y298397D01*
Y303121D01*
Y303131D01*
Y303168D01*
X71930Y303205D01*
X71949Y303260D01*
X71977Y303306D01*
X72023Y303353D01*
X72088Y303380D01*
X72171Y303389D01*
X72217D01*
X72254Y303380D01*
X72309Y303353D01*
X72356Y303325D01*
X72402Y303279D01*
X72430Y303214D01*
X72439Y303121D01*
Y301291D01*
X74538D01*
Y303121D01*
Y303131D01*
Y303168D01*
X74556Y303205D01*
X74575Y303260D01*
X74602Y303306D01*
X74649Y303353D01*
X74713Y303380D01*
X74797Y303389D01*
X74843D01*
X74880Y303380D01*
D02*
G37*
G36*
X81195D02*
X81250Y303353D01*
X81296Y303325D01*
X81342Y303279D01*
X81370Y303214D01*
X81379Y303121D01*
Y298397D01*
Y298388D01*
Y298360D01*
X81370Y298314D01*
X81342Y298267D01*
X81315Y298221D01*
X81269Y298175D01*
X81204Y298147D01*
X81111Y298138D01*
X81074D01*
X81028Y298157D01*
X80982Y298175D01*
X80936Y298203D01*
X80889Y298249D01*
X80862Y298314D01*
X80852Y298397D01*
Y302493D01*
X80242Y301882D01*
X80233Y301873D01*
X80196Y301845D01*
X80131Y301818D01*
X80057Y301808D01*
X80020D01*
X79974Y301827D01*
X79928Y301845D01*
X79882Y301873D01*
X79836Y301919D01*
X79808Y301984D01*
X79798Y302077D01*
Y302086D01*
Y302095D01*
X79808Y302141D01*
X79826Y302197D01*
X79872Y302262D01*
X80899Y303288D01*
X80908Y303297D01*
X80917Y303306D01*
X80963Y303343D01*
X81028Y303371D01*
X81074Y303389D01*
X81158D01*
X81195Y303380D01*
D02*
G37*
G36*
X76461D02*
X76516Y303353D01*
X76562Y303325D01*
X76609Y303279D01*
X76637Y303214D01*
X76646Y303121D01*
Y298665D01*
X78523D01*
X78560Y298656D01*
X78615Y298628D01*
X78661Y298600D01*
X78707Y298554D01*
X78735Y298489D01*
X78745Y298397D01*
Y298388D01*
Y298360D01*
X78735Y298314D01*
X78707Y298267D01*
X78680Y298221D01*
X78633Y298175D01*
X78569Y298147D01*
X78476Y298138D01*
X76341D01*
X76294Y298157D01*
X76248Y298175D01*
X76202Y298203D01*
X76156Y298249D01*
X76128Y298314D01*
X76119Y298397D01*
Y303121D01*
Y303131D01*
Y303168D01*
X76137Y303205D01*
X76156Y303260D01*
X76183Y303306D01*
X76230Y303353D01*
X76294Y303380D01*
X76378Y303389D01*
X76424D01*
X76461Y303380D01*
D02*
G37*
G36*
X23337Y47094D02*
X23383Y47066D01*
X23429Y47039D01*
X23475Y46993D01*
X23503Y46928D01*
X23512Y46835D01*
Y46826D01*
Y46789D01*
X23494Y46743D01*
X23475Y46697D01*
X21996Y44478D01*
X23475Y42259D01*
X23485Y42249D01*
X23494Y42213D01*
X23503Y42166D01*
X23512Y42111D01*
Y42102D01*
Y42074D01*
X23503Y42028D01*
X23485Y41981D01*
X23448Y41935D01*
X23402Y41889D01*
X23337Y41861D01*
X23254Y41852D01*
X23235D01*
X23170Y41870D01*
X23106Y41898D01*
X23069Y41926D01*
X23032Y41963D01*
X21682Y43997D01*
X20323Y41963D01*
X20304Y41944D01*
X20267Y41908D01*
X20193Y41870D01*
X20147Y41861D01*
X20101Y41852D01*
X20064D01*
X20018Y41870D01*
X19971Y41889D01*
X19925Y41917D01*
X19879Y41963D01*
X19851Y42028D01*
X19842Y42111D01*
Y42129D01*
X19851Y42157D01*
X19861Y42213D01*
X19879Y42259D01*
X21358Y44478D01*
X19879Y46697D01*
X19870Y46706D01*
X19861Y46743D01*
X19851Y46780D01*
X19842Y46835D01*
Y46845D01*
Y46882D01*
X19861Y46919D01*
X19879Y46974D01*
X19907Y47020D01*
X19953Y47066D01*
X20018Y47094D01*
X20101Y47104D01*
X20129D01*
X20184Y47085D01*
X20249Y47057D01*
X20286Y47020D01*
X20323Y46983D01*
X21682Y44949D01*
X23032Y46983D01*
Y46993D01*
X23050Y47002D01*
X23087Y47048D01*
X23161Y47085D01*
X23207Y47094D01*
X23254Y47104D01*
X23291D01*
X23337Y47094D01*
D02*
G37*
G36*
X25972D02*
X26027Y47066D01*
X26074Y47039D01*
X26120Y46993D01*
X26147Y46928D01*
X26157Y46835D01*
Y42111D01*
Y42102D01*
Y42074D01*
X26147Y42028D01*
X26120Y41981D01*
X26092Y41935D01*
X26046Y41889D01*
X25981Y41861D01*
X25889Y41852D01*
X25852D01*
X25805Y41870D01*
X25759Y41889D01*
X25713Y41917D01*
X25667Y41963D01*
X25639Y42028D01*
X25630Y42111D01*
Y46207D01*
X25020Y45596D01*
X25010Y45587D01*
X24973Y45560D01*
X24909Y45532D01*
X24835Y45522D01*
X24798D01*
X24751Y45541D01*
X24705Y45560D01*
X24659Y45587D01*
X24613Y45633D01*
X24585Y45698D01*
X24576Y45791D01*
Y45800D01*
Y45809D01*
X24585Y45855D01*
X24604Y45911D01*
X24650Y45975D01*
X25676Y47002D01*
X25685Y47011D01*
X25694Y47020D01*
X25741Y47057D01*
X25805Y47085D01*
X25852Y47104D01*
X25935D01*
X25972Y47094D01*
D02*
G37*
G36*
X37712Y94616D02*
X37758Y94589D01*
X37804Y94561D01*
X37850Y94515D01*
X37878Y94450D01*
X37887Y94358D01*
Y94348D01*
Y94330D01*
X37878Y94284D01*
X36306Y89568D01*
Y89559D01*
X36297Y89541D01*
X36251Y89476D01*
X36214Y89439D01*
X36168Y89402D01*
X36112Y89383D01*
X36047Y89374D01*
X36020D01*
X35983Y89383D01*
X35946Y89402D01*
X35900Y89420D01*
X35863Y89458D01*
X35826Y89504D01*
X35789Y89568D01*
X34226Y94284D01*
Y94293D01*
Y94302D01*
X34217Y94358D01*
Y94367D01*
Y94404D01*
X34235Y94441D01*
X34254Y94496D01*
X34282Y94543D01*
X34328Y94589D01*
X34392Y94616D01*
X34476Y94626D01*
X34504D01*
X34541Y94616D01*
X34578Y94607D01*
X34614Y94579D01*
X34661Y94552D01*
X34698Y94506D01*
X34725Y94450D01*
X36047Y90465D01*
X37379Y94450D01*
Y94459D01*
X37388Y94478D01*
X37434Y94543D01*
X37471Y94570D01*
X37508Y94598D01*
X37564Y94616D01*
X37629Y94626D01*
X37666D01*
X37712Y94616D01*
D02*
G37*
G36*
X44563D02*
X44664Y94607D01*
X44785Y94579D01*
X44932Y94533D01*
X45090Y94459D01*
X45247Y94367D01*
X45395Y94237D01*
X45413Y94219D01*
X45459Y94173D01*
X45515Y94089D01*
X45589Y93979D01*
X45663Y93840D01*
X45718Y93683D01*
X45765Y93507D01*
X45783Y93313D01*
Y93294D01*
Y93248D01*
X45774Y93174D01*
X45755Y93073D01*
X45728Y92962D01*
X45681Y92832D01*
X45626Y92693D01*
X45543Y92555D01*
X43888Y89901D01*
X45561D01*
X45598Y89892D01*
X45654Y89864D01*
X45700Y89837D01*
X45746Y89790D01*
X45774Y89726D01*
X45783Y89633D01*
Y89624D01*
Y89596D01*
X45774Y89550D01*
X45746Y89504D01*
X45718Y89458D01*
X45672Y89411D01*
X45608Y89383D01*
X45515Y89374D01*
X43379D01*
X43333Y89393D01*
X43287Y89411D01*
X43241Y89439D01*
X43194Y89485D01*
X43167Y89550D01*
X43157Y89633D01*
Y89652D01*
X43167Y89679D01*
X43176Y89735D01*
X43194Y89781D01*
X45127Y92878D01*
X45136Y92888D01*
X45145Y92915D01*
X45164Y92962D01*
X45191Y93017D01*
X45219Y93082D01*
X45238Y93156D01*
X45247Y93230D01*
X45256Y93313D01*
Y93331D01*
Y93368D01*
X45247Y93424D01*
X45228Y93507D01*
X45201Y93590D01*
X45154Y93683D01*
X45099Y93775D01*
X45025Y93868D01*
X45016Y93877D01*
X44988Y93905D01*
X44932Y93942D01*
X44868Y93988D01*
X44785Y94025D01*
X44692Y94062D01*
X44581Y94089D01*
X44461Y94099D01*
X44443D01*
X44387Y94089D01*
X44304Y94062D01*
X44193Y94016D01*
X44128Y93979D01*
X44063Y93942D01*
X43999Y93886D01*
X43925Y93821D01*
X43851Y93747D01*
X43786Y93655D01*
X43712Y93562D01*
X43638Y93442D01*
Y93433D01*
X43629Y93424D01*
X43583Y93378D01*
X43518Y93331D01*
X43472Y93322D01*
X43416Y93313D01*
X43379D01*
X43333Y93331D01*
X43287Y93350D01*
X43241Y93378D01*
X43194Y93424D01*
X43167Y93489D01*
X43157Y93572D01*
Y93581D01*
Y93609D01*
X43176Y93683D01*
X43185Y93692D01*
X43194Y93720D01*
X43222Y93766D01*
X43268Y93831D01*
X43314Y93905D01*
X43370Y93979D01*
X43444Y94071D01*
X43518Y94154D01*
X43610Y94247D01*
X43712Y94330D01*
X43814Y94404D01*
X43925Y94478D01*
X44054Y94543D01*
X44184Y94589D01*
X44322Y94616D01*
X44470Y94626D01*
X44526D01*
X44563Y94616D01*
D02*
G37*
G36*
X41919D02*
X41974Y94589D01*
X42020Y94561D01*
X42066Y94515D01*
X42094Y94450D01*
X42103Y94358D01*
Y94348D01*
Y94321D01*
X42094Y94274D01*
X42066Y94228D01*
X42039Y94182D01*
X41992Y94136D01*
X41928Y94108D01*
X41835Y94099D01*
X40791D01*
Y89633D01*
Y89624D01*
Y89596D01*
X40781Y89550D01*
X40753Y89504D01*
X40726Y89458D01*
X40679Y89411D01*
X40615Y89383D01*
X40522Y89374D01*
X40485D01*
X40439Y89393D01*
X40393Y89411D01*
X40347Y89439D01*
X40300Y89485D01*
X40273Y89550D01*
X40264Y89633D01*
Y94099D01*
X39172D01*
X39126Y94117D01*
X39080Y94136D01*
X39034Y94164D01*
X38988Y94210D01*
X38960Y94274D01*
X38951Y94358D01*
Y94367D01*
Y94404D01*
X38969Y94441D01*
X38988Y94496D01*
X39015Y94543D01*
X39062Y94589D01*
X39126Y94616D01*
X39209Y94626D01*
X41881D01*
X41919Y94616D01*
D02*
G37*
G36*
X26450Y195774D02*
X26496Y195746D01*
X26542Y195718D01*
X26589Y195672D01*
X26616Y195607D01*
X26626Y195515D01*
Y195478D01*
X26607Y195432D01*
X26589Y195386D01*
X26561Y195339D01*
X26515Y195293D01*
X26450Y195265D01*
X26367Y195256D01*
X22271D01*
X22881Y194646D01*
X22891Y194637D01*
X22918Y194600D01*
X22946Y194535D01*
X22955Y194461D01*
Y194424D01*
X22937Y194378D01*
X22918Y194332D01*
X22891Y194285D01*
X22844Y194239D01*
X22780Y194211D01*
X22687Y194202D01*
X22678D01*
X22669D01*
X22622Y194211D01*
X22567Y194230D01*
X22502Y194276D01*
X21476Y195302D01*
X21467Y195312D01*
X21457Y195321D01*
X21421Y195367D01*
X21393Y195432D01*
X21374Y195478D01*
Y195561D01*
X21384Y195598D01*
X21411Y195654D01*
X21439Y195700D01*
X21485Y195746D01*
X21550Y195774D01*
X21642Y195783D01*
X26367D01*
X26376D01*
X26404D01*
X26450Y195774D01*
D02*
G37*
G36*
X21698Y193139D02*
X26413Y192094D01*
X26422D01*
X26450Y192085D01*
X26478Y192066D01*
X26515Y192048D01*
X26561Y192011D01*
X26589Y191965D01*
X26616Y191909D01*
X26626Y191835D01*
Y191807D01*
X26616Y191771D01*
X26598Y191734D01*
X26570Y191687D01*
X26533Y191641D01*
X26478Y191604D01*
X26404Y191567D01*
X24056Y190791D01*
X26404Y190005D01*
X26413D01*
X26441Y189986D01*
X26478Y189968D01*
X26515Y189940D01*
X26552Y189903D01*
X26589Y189857D01*
X26616Y189801D01*
X26626Y189736D01*
Y189699D01*
X26616Y189663D01*
X26598Y189626D01*
X26570Y189579D01*
X26533Y189542D01*
X26478Y189505D01*
X26404Y189478D01*
X21698Y188424D01*
X21689D01*
X21679D01*
X21642D01*
X21633D01*
X21596D01*
X21559Y188442D01*
X21504Y188461D01*
X21457Y188488D01*
X21411Y188535D01*
X21384Y188599D01*
X21374Y188682D01*
Y188720D01*
X21384Y188757D01*
X21402Y188794D01*
X21421Y188840D01*
X21457Y188886D01*
X21513Y188914D01*
X21578Y188941D01*
X25378Y189783D01*
X23168Y190522D01*
X23159D01*
X23131Y190541D01*
X23094Y190559D01*
X23057Y190587D01*
X23020Y190615D01*
X22983Y190661D01*
X22955Y190717D01*
X22946Y190781D01*
Y190809D01*
X22955Y190846D01*
X22974Y190892D01*
X23001Y190929D01*
X23038Y190975D01*
X23094Y191012D01*
X23168Y191049D01*
X25378Y191780D01*
X21578Y192630D01*
X21568D01*
X21550Y192640D01*
X21513Y192658D01*
X21476Y192677D01*
X21439Y192714D01*
X21402Y192760D01*
X21384Y192815D01*
X21374Y192889D01*
Y192926D01*
X21384Y192973D01*
X21411Y193019D01*
X21439Y193065D01*
X21485Y193111D01*
X21550Y193139D01*
X21642Y193148D01*
X21652D01*
X21698Y193139D01*
D02*
G37*
G36*
X25405Y187360D02*
X25507Y187351D01*
X25636Y187323D01*
X25784Y187277D01*
X25932Y187203D01*
X26099Y187111D01*
X26247Y186981D01*
X26265Y186963D01*
X26302Y186917D01*
X26367Y186833D01*
X26432Y186723D01*
X26505Y186584D01*
X26570Y186427D01*
X26607Y186242D01*
X26626Y186047D01*
Y185955D01*
X26616Y185881D01*
X26607Y185798D01*
X26598Y185705D01*
X26579Y185595D01*
X26552Y185465D01*
X26487Y185197D01*
X26441Y185058D01*
X26385Y184910D01*
X26321Y184762D01*
X26237Y184615D01*
X26154Y184466D01*
X26052Y184328D01*
X26034Y184309D01*
X25997Y184272D01*
X25923Y184235D01*
X25886Y184226D01*
X25840Y184217D01*
X25831D01*
X25821D01*
X25775Y184226D01*
X25720Y184245D01*
X25664Y184291D01*
X25655Y184300D01*
X25618Y184346D01*
X25590Y184402D01*
X25581Y184476D01*
Y184485D01*
X25590Y184522D01*
X25600Y184568D01*
X25627Y184624D01*
X25636Y184633D01*
X25655Y184670D01*
X25683Y184725D01*
X25720Y184799D01*
X25775Y184901D01*
X25840Y185030D01*
X25905Y185178D01*
X25988Y185354D01*
Y185373D01*
X26006Y185410D01*
X26025Y185474D01*
X26043Y185557D01*
X26062Y185659D01*
X26080Y185779D01*
X26089Y185909D01*
X26099Y186047D01*
Y186103D01*
X26089Y186168D01*
X26071Y186242D01*
X26043Y186334D01*
X26006Y186427D01*
X25951Y186519D01*
X25877Y186611D01*
X25868Y186621D01*
X25831Y186649D01*
X25784Y186686D01*
X25720Y186732D01*
X25636Y186769D01*
X25544Y186806D01*
X25433Y186833D01*
X25313Y186843D01*
X25304D01*
X25294D01*
X25230Y186833D01*
X25146Y186824D01*
X25045Y186787D01*
X24934Y186732D01*
X24814Y186658D01*
X24703Y186547D01*
X24656Y186473D01*
X24610Y186399D01*
X23852Y184929D01*
Y184920D01*
X23834Y184901D01*
X23815Y184864D01*
X23787Y184818D01*
X23695Y184707D01*
X23639Y184642D01*
X23575Y184578D01*
X23491Y184503D01*
X23408Y184439D01*
X23316Y184383D01*
X23205Y184328D01*
X23094Y184282D01*
X22964Y184245D01*
X22835Y184226D01*
X22687Y184217D01*
X22678D01*
X22659D01*
X22632D01*
X22595Y184226D01*
X22493Y184235D01*
X22373Y184263D01*
X22225Y184309D01*
X22068Y184374D01*
X21911Y184466D01*
X21762Y184596D01*
X21744Y184615D01*
X21698Y184670D01*
X21642Y184744D01*
X21568Y184855D01*
X21494Y184993D01*
X21439Y185151D01*
X21393Y185336D01*
X21374Y185530D01*
Y185678D01*
X21384Y185761D01*
X21393Y185844D01*
X21402Y185946D01*
X21411Y186057D01*
X21448Y186279D01*
X21494Y186519D01*
X21568Y186741D01*
X21615Y186852D01*
X21661Y186944D01*
Y186954D01*
X21679Y186972D01*
X21726Y187028D01*
X21799Y187074D01*
X21846Y187092D01*
X21901Y187101D01*
X21920D01*
X21966Y187092D01*
X22021Y187064D01*
X22086Y187018D01*
X22095Y187009D01*
X22123Y186972D01*
X22151Y186917D01*
X22160Y186843D01*
Y186815D01*
X22151Y186778D01*
X22132Y186732D01*
Y186723D01*
X22123Y186704D01*
X22114Y186676D01*
X22095Y186630D01*
X22077Y186574D01*
X22058Y186510D01*
X22012Y186353D01*
X21975Y186168D01*
X21938Y185964D01*
X21911Y185752D01*
X21901Y185530D01*
Y185474D01*
X21911Y185410D01*
X21929Y185336D01*
X21957Y185243D01*
X22003Y185151D01*
X22058Y185058D01*
X22132Y184966D01*
X22142Y184957D01*
X22169Y184929D01*
X22225Y184892D01*
X22290Y184855D01*
X22373Y184818D01*
X22465Y184781D01*
X22567Y184753D01*
X22687Y184744D01*
X22696D01*
X22706D01*
X22761Y184753D01*
X22854Y184762D01*
X22955Y184799D01*
X23066Y184846D01*
X23186Y184920D01*
X23297Y185030D01*
X23344Y185095D01*
X23390Y185169D01*
X24148Y186649D01*
Y186658D01*
X24166Y186676D01*
X24185Y186713D01*
X24222Y186759D01*
X24305Y186880D01*
X24361Y186944D01*
X24434Y187009D01*
X24509Y187074D01*
X24592Y187139D01*
X24693Y187203D01*
X24795Y187259D01*
X24906Y187305D01*
X25036Y187342D01*
X25165Y187360D01*
X25313Y187370D01*
X25322D01*
X25341D01*
X25368D01*
X25405Y187360D01*
D02*
G37*
G36*
X33022Y104616D02*
X33077Y104589D01*
X33124Y104561D01*
X33170Y104515D01*
X33198Y104450D01*
X33207Y104358D01*
Y99633D01*
Y99624D01*
Y99596D01*
X33198Y99550D01*
X33170Y99504D01*
X33142Y99458D01*
X33096Y99411D01*
X33031Y99383D01*
X32939Y99374D01*
X32902D01*
X32855Y99393D01*
X32809Y99411D01*
X32763Y99439D01*
X32717Y99485D01*
X32689Y99550D01*
X32680Y99633D01*
Y103729D01*
X32069Y103119D01*
X32060Y103110D01*
X32023Y103082D01*
X31959Y103054D01*
X31885Y103045D01*
X31848D01*
X31801Y103063D01*
X31755Y103082D01*
X31709Y103110D01*
X31663Y103156D01*
X31635Y103220D01*
X31626Y103313D01*
Y103322D01*
Y103331D01*
X31635Y103378D01*
X31653Y103433D01*
X31700Y103498D01*
X32726Y104524D01*
X32735Y104533D01*
X32745Y104543D01*
X32791Y104579D01*
X32855Y104607D01*
X32902Y104626D01*
X32985D01*
X33022Y104616D01*
D02*
G37*
G36*
X30396D02*
X30452Y104589D01*
X30498Y104561D01*
X30544Y104515D01*
X30572Y104450D01*
X30581Y104358D01*
Y99633D01*
Y99624D01*
Y99596D01*
X30572Y99550D01*
X30544Y99504D01*
X30516Y99458D01*
X30470Y99411D01*
X30405Y99383D01*
X30313Y99374D01*
X30276D01*
X30230Y99393D01*
X30183Y99411D01*
X30137Y99439D01*
X30091Y99485D01*
X30063Y99550D01*
X30054Y99633D01*
Y103729D01*
X29444Y103119D01*
X29434Y103110D01*
X29398Y103082D01*
X29333Y103054D01*
X29259Y103045D01*
X29222D01*
X29176Y103063D01*
X29129Y103082D01*
X29083Y103110D01*
X29037Y103156D01*
X29009Y103220D01*
X29000Y103313D01*
Y103322D01*
Y103331D01*
X29009Y103378D01*
X29028Y103433D01*
X29074Y103498D01*
X30100Y104524D01*
X30110Y104533D01*
X30119Y104543D01*
X30165Y104579D01*
X30230Y104607D01*
X30276Y104626D01*
X30359D01*
X30396Y104616D01*
D02*
G37*
G36*
X26476D02*
X26531D01*
X26596Y104598D01*
X26753Y104570D01*
X26929Y104515D01*
X27114Y104432D01*
X27206Y104376D01*
X27299Y104321D01*
X27391Y104247D01*
X27484Y104164D01*
X27493Y104154D01*
X27502Y104145D01*
X27530Y104117D01*
X27558Y104080D01*
X27595Y104034D01*
X27632Y103979D01*
X27715Y103849D01*
X27798Y103692D01*
X27872Y103498D01*
X27927Y103285D01*
X27937Y103165D01*
X27946Y103045D01*
Y103035D01*
Y102999D01*
X27937Y102943D01*
X27927Y102869D01*
X27918Y102786D01*
X27900Y102684D01*
X27863Y102573D01*
X27826Y102453D01*
X27780Y102333D01*
X27715Y102213D01*
X27641Y102093D01*
X27548Y101972D01*
X27438Y101861D01*
X27308Y101760D01*
X27160Y101667D01*
X26994Y101584D01*
X27909Y99753D01*
X27918Y99744D01*
X27927Y99716D01*
X27937Y99679D01*
X27946Y99633D01*
Y99615D01*
X27937Y99568D01*
X27909Y99513D01*
X27863Y99448D01*
X27844Y99439D01*
X27807Y99411D01*
X27752Y99383D01*
X27678Y99374D01*
X27650D01*
X27622Y99383D01*
X27585Y99393D01*
X27548Y99411D01*
X27502Y99430D01*
X27465Y99467D01*
X27438Y99513D01*
X26467Y101473D01*
X25320D01*
Y99633D01*
Y99624D01*
Y99596D01*
X25311Y99550D01*
X25283Y99504D01*
X25255Y99458D01*
X25209Y99411D01*
X25145Y99383D01*
X25052Y99374D01*
X25015D01*
X24969Y99393D01*
X24923Y99411D01*
X24876Y99439D01*
X24830Y99485D01*
X24802Y99550D01*
X24793Y99633D01*
Y104358D01*
Y104367D01*
Y104404D01*
X24812Y104441D01*
X24830Y104496D01*
X24858Y104543D01*
X24904Y104589D01*
X24969Y104616D01*
X25052Y104626D01*
X26430D01*
X26476Y104616D01*
D02*
G37*
G36*
X74490Y92617D02*
X74536Y92607D01*
X74601Y92598D01*
X74666Y92570D01*
X74749Y92542D01*
X74832Y92496D01*
X74915Y92450D01*
X75008Y92376D01*
X75091Y92302D01*
X75184Y92200D01*
X75267Y92090D01*
X75350Y91951D01*
X75433Y91794D01*
X75498Y91618D01*
Y91609D01*
X75507Y91590D01*
X75516Y91553D01*
X75535Y91498D01*
X75553Y91433D01*
X75572Y91350D01*
X75590Y91257D01*
X75618Y91156D01*
X75637Y91045D01*
X75655Y90925D01*
X75674Y90786D01*
X75692Y90647D01*
X75720Y90342D01*
X75729Y90000D01*
Y89991D01*
Y89963D01*
Y89908D01*
Y89843D01*
X75720Y89760D01*
Y89667D01*
X75711Y89556D01*
X75701Y89445D01*
X75674Y89186D01*
X75627Y88918D01*
X75572Y88641D01*
X75498Y88373D01*
Y88364D01*
X75479Y88327D01*
X75461Y88280D01*
X75433Y88216D01*
X75396Y88142D01*
X75350Y88058D01*
X75239Y87873D01*
X75082Y87689D01*
X74999Y87605D01*
X74897Y87531D01*
X74795Y87467D01*
X74675Y87420D01*
X74555Y87383D01*
X74416Y87374D01*
X74379D01*
X74342Y87383D01*
X74296Y87393D01*
X74231Y87402D01*
X74157Y87430D01*
X74083Y87457D01*
X74000Y87504D01*
X73908Y87550D01*
X73825Y87615D01*
X73732Y87698D01*
X73640Y87800D01*
X73556Y87910D01*
X73473Y88040D01*
X73390Y88197D01*
X73325Y88373D01*
Y88382D01*
X73316Y88400D01*
X73307Y88447D01*
X73288Y88493D01*
X73270Y88558D01*
X73251Y88641D01*
X73233Y88733D01*
X73214Y88835D01*
X73196Y88946D01*
X73177Y89075D01*
X73159Y89205D01*
X73140Y89353D01*
X73113Y89658D01*
X73103Y90000D01*
Y90009D01*
Y90046D01*
Y90092D01*
Y90157D01*
X73113Y90240D01*
Y90333D01*
X73122Y90435D01*
X73131Y90555D01*
X73159Y90804D01*
X73196Y91082D01*
X73251Y91359D01*
X73325Y91627D01*
Y91636D01*
X73344Y91673D01*
X73362Y91720D01*
X73390Y91784D01*
X73427Y91858D01*
X73473Y91941D01*
X73593Y92127D01*
X73741Y92311D01*
X73834Y92395D01*
X73926Y92469D01*
X74037Y92533D01*
X74157Y92579D01*
X74278Y92617D01*
X74416Y92626D01*
X74453D01*
X74490Y92617D01*
D02*
G37*
G36*
X71874D02*
X71929Y92589D01*
X71975Y92561D01*
X72022Y92515D01*
X72049Y92450D01*
X72059Y92358D01*
Y87633D01*
Y87624D01*
Y87596D01*
X72049Y87550D01*
X72022Y87504D01*
X71994Y87457D01*
X71948Y87411D01*
X71883Y87383D01*
X71790Y87374D01*
X71754D01*
X71707Y87393D01*
X71661Y87411D01*
X71615Y87439D01*
X71569Y87485D01*
X71541Y87550D01*
X71532Y87633D01*
Y91729D01*
X70921Y91119D01*
X70912Y91109D01*
X70875Y91082D01*
X70810Y91054D01*
X70736Y91045D01*
X70700D01*
X70653Y91063D01*
X70607Y91082D01*
X70561Y91109D01*
X70515Y91156D01*
X70487Y91220D01*
X70478Y91313D01*
Y91322D01*
Y91331D01*
X70487Y91378D01*
X70505Y91433D01*
X70552Y91498D01*
X71578Y92524D01*
X71587Y92533D01*
X71596Y92542D01*
X71642Y92579D01*
X71707Y92607D01*
X71754Y92626D01*
X71837D01*
X71874Y92617D01*
D02*
G37*
G36*
X67954D02*
X68009D01*
X68074Y92598D01*
X68231Y92570D01*
X68407Y92515D01*
X68591Y92432D01*
X68684Y92376D01*
X68776Y92321D01*
X68869Y92247D01*
X68961Y92163D01*
X68971Y92154D01*
X68980Y92145D01*
X69008Y92117D01*
X69035Y92080D01*
X69072Y92034D01*
X69109Y91979D01*
X69192Y91849D01*
X69276Y91692D01*
X69350Y91498D01*
X69405Y91285D01*
X69414Y91165D01*
X69424Y91045D01*
Y91035D01*
Y90998D01*
X69414Y90943D01*
X69405Y90869D01*
X69396Y90786D01*
X69377Y90684D01*
X69340Y90573D01*
X69303Y90453D01*
X69257Y90333D01*
X69192Y90213D01*
X69118Y90092D01*
X69026Y89972D01*
X68915Y89861D01*
X68786Y89760D01*
X68638Y89667D01*
X68471Y89584D01*
X69387Y87753D01*
X69396Y87744D01*
X69405Y87716D01*
X69414Y87679D01*
X69424Y87633D01*
Y87615D01*
X69414Y87568D01*
X69387Y87513D01*
X69340Y87448D01*
X69322Y87439D01*
X69285Y87411D01*
X69229Y87383D01*
X69156Y87374D01*
X69128D01*
X69100Y87383D01*
X69063Y87393D01*
X69026Y87411D01*
X68980Y87430D01*
X68943Y87467D01*
X68915Y87513D01*
X67944Y89473D01*
X66798D01*
Y87633D01*
Y87624D01*
Y87596D01*
X66789Y87550D01*
X66761Y87504D01*
X66733Y87457D01*
X66687Y87411D01*
X66622Y87383D01*
X66530Y87374D01*
X66493D01*
X66446Y87393D01*
X66400Y87411D01*
X66354Y87439D01*
X66308Y87485D01*
X66280Y87550D01*
X66271Y87633D01*
Y92358D01*
Y92367D01*
Y92404D01*
X66289Y92441D01*
X66308Y92496D01*
X66336Y92542D01*
X66382Y92589D01*
X66446Y92617D01*
X66530Y92626D01*
X67907D01*
X67954Y92617D01*
D02*
G37*
G36*
X67638Y291442D02*
X67684Y291424D01*
X67730Y291387D01*
X67776Y291341D01*
X67804Y291276D01*
X67822Y291193D01*
Y291174D01*
X67813Y291128D01*
X67360Y289094D01*
X67601D01*
X67638Y289085D01*
X67693Y289057D01*
X67739Y289029D01*
X67786Y288983D01*
X67813Y288918D01*
X67822Y288826D01*
Y288817D01*
Y288789D01*
X67813Y288743D01*
X67786Y288696D01*
X67758Y288650D01*
X67712Y288604D01*
X67647Y288576D01*
X67554Y288567D01*
X67240Y288558D01*
X66759Y286403D01*
Y286394D01*
X66750Y286376D01*
X66732Y286339D01*
X66713Y286302D01*
X66676Y286265D01*
X66639Y286228D01*
X66584Y286209D01*
X66510Y286200D01*
X66473D01*
X66426Y286218D01*
X66380Y286237D01*
X66325Y286265D01*
X66288Y286311D01*
X66251Y286376D01*
X66241Y286459D01*
Y286468D01*
Y286477D01*
X66251Y286514D01*
X66704Y288567D01*
X66463D01*
X66417Y288585D01*
X66371Y288604D01*
X66325Y288632D01*
X66279Y288678D01*
X66251Y288743D01*
X66241Y288826D01*
Y288835D01*
Y288872D01*
X66260Y288909D01*
X66279Y288964D01*
X66306Y289011D01*
X66352Y289057D01*
X66417Y289085D01*
X66500Y289094D01*
X66815Y289085D01*
X67221Y290924D01*
X65419D01*
X65372Y290943D01*
X65326Y290961D01*
X65280Y290989D01*
X65234Y291035D01*
X65206Y291100D01*
X65197Y291183D01*
Y291193D01*
Y291230D01*
X65215Y291267D01*
X65234Y291322D01*
X65261Y291368D01*
X65308Y291415D01*
X65372Y291442D01*
X65456Y291451D01*
X67591D01*
X67638Y291442D01*
D02*
G37*
G36*
X62673D02*
X62728D01*
X62793Y291424D01*
X62950Y291396D01*
X63126Y291341D01*
X63311Y291257D01*
X63403Y291202D01*
X63495Y291146D01*
X63588Y291072D01*
X63680Y290989D01*
X63690Y290980D01*
X63699Y290971D01*
X63727Y290943D01*
X63754Y290906D01*
X63791Y290860D01*
X63828Y290804D01*
X63912Y290675D01*
X63995Y290518D01*
X64069Y290324D01*
X64124Y290111D01*
X64134Y289991D01*
X64143Y289870D01*
Y289861D01*
Y289824D01*
X64134Y289769D01*
X64124Y289695D01*
X64115Y289612D01*
X64096Y289510D01*
X64060Y289399D01*
X64022Y289279D01*
X63976Y289159D01*
X63912Y289038D01*
X63838Y288918D01*
X63745Y288798D01*
X63634Y288687D01*
X63505Y288585D01*
X63357Y288493D01*
X63190Y288410D01*
X64106Y286579D01*
X64115Y286570D01*
X64124Y286542D01*
X64134Y286505D01*
X64143Y286459D01*
Y286440D01*
X64134Y286394D01*
X64106Y286339D01*
X64060Y286274D01*
X64041Y286265D01*
X64004Y286237D01*
X63949Y286209D01*
X63875Y286200D01*
X63847D01*
X63819Y286209D01*
X63782Y286218D01*
X63745Y286237D01*
X63699Y286255D01*
X63662Y286292D01*
X63634Y286339D01*
X62663Y288299D01*
X61517D01*
Y286459D01*
Y286450D01*
Y286422D01*
X61508Y286376D01*
X61480Y286329D01*
X61452Y286283D01*
X61406Y286237D01*
X61341Y286209D01*
X61249Y286200D01*
X61212D01*
X61166Y286218D01*
X61119Y286237D01*
X61073Y286265D01*
X61027Y286311D01*
X60999Y286376D01*
X60990Y286459D01*
Y291183D01*
Y291193D01*
Y291230D01*
X61009Y291267D01*
X61027Y291322D01*
X61055Y291368D01*
X61101Y291415D01*
X61166Y291442D01*
X61249Y291451D01*
X62626D01*
X62673Y291442D01*
D02*
G37*
G36*
X84196Y55616D02*
X84298Y55607D01*
X84418Y55580D01*
X84566Y55533D01*
X84723Y55459D01*
X84880Y55367D01*
X85028Y55237D01*
X85046Y55219D01*
X85093Y55173D01*
X85148Y55090D01*
X85222Y54979D01*
X85296Y54840D01*
X85351Y54683D01*
X85398Y54507D01*
X85416Y54313D01*
Y54304D01*
Y54285D01*
Y54248D01*
X85407Y54202D01*
X85398Y54146D01*
X85388Y54082D01*
X85351Y53934D01*
X85287Y53767D01*
X85250Y53684D01*
X85194Y53592D01*
X85130Y53509D01*
X85065Y53416D01*
X84982Y53333D01*
X84889Y53259D01*
X84899D01*
X84908Y53240D01*
X84936Y53222D01*
X84972Y53185D01*
X85056Y53102D01*
X85157Y52982D01*
X85250Y52824D01*
X85333Y52649D01*
X85370Y52547D01*
X85398Y52436D01*
X85407Y52325D01*
X85416Y52205D01*
Y51687D01*
Y51678D01*
Y51659D01*
Y51632D01*
X85407Y51595D01*
X85398Y51493D01*
X85370Y51364D01*
X85324Y51216D01*
X85250Y51068D01*
X85157Y50901D01*
X85028Y50753D01*
X85009Y50735D01*
X84963Y50698D01*
X84880Y50633D01*
X84769Y50568D01*
X84630Y50494D01*
X84473Y50430D01*
X84298Y50393D01*
X84103Y50374D01*
X83012D01*
X82966Y50393D01*
X82920Y50411D01*
X82874Y50439D01*
X82828Y50485D01*
X82800Y50550D01*
X82790Y50633D01*
Y50642D01*
Y50679D01*
X82809Y50716D01*
X82828Y50772D01*
X82855Y50818D01*
X82901Y50864D01*
X82966Y50892D01*
X83049Y50901D01*
X84150D01*
X84214Y50911D01*
X84288Y50929D01*
X84381Y50957D01*
X84473Y50994D01*
X84566Y51049D01*
X84658Y51123D01*
X84667Y51132D01*
X84695Y51169D01*
X84732Y51216D01*
X84778Y51280D01*
X84815Y51364D01*
X84852Y51456D01*
X84880Y51567D01*
X84889Y51687D01*
Y52205D01*
Y52223D01*
Y52260D01*
X84880Y52325D01*
X84861Y52399D01*
X84834Y52491D01*
X84788Y52584D01*
X84732Y52676D01*
X84649Y52769D01*
X84640Y52778D01*
X84612Y52806D01*
X84556Y52843D01*
X84492Y52889D01*
X84409Y52926D01*
X84316Y52963D01*
X84214Y52991D01*
X84094Y53000D01*
X83530D01*
X83484Y53018D01*
X83438Y53037D01*
X83392Y53065D01*
X83345Y53111D01*
X83317Y53176D01*
X83308Y53259D01*
Y53268D01*
Y53305D01*
X83327Y53342D01*
X83345Y53398D01*
X83373Y53444D01*
X83419Y53490D01*
X83484Y53518D01*
X83567Y53527D01*
X84150D01*
X84214Y53536D01*
X84288Y53555D01*
X84381Y53583D01*
X84473Y53619D01*
X84566Y53675D01*
X84658Y53749D01*
X84667Y53758D01*
X84695Y53795D01*
X84732Y53841D01*
X84778Y53906D01*
X84815Y53989D01*
X84852Y54082D01*
X84880Y54193D01*
X84889Y54313D01*
Y54331D01*
Y54368D01*
X84880Y54424D01*
X84861Y54507D01*
X84834Y54590D01*
X84788Y54683D01*
X84732Y54775D01*
X84658Y54868D01*
X84649Y54877D01*
X84621Y54905D01*
X84566Y54942D01*
X84501Y54988D01*
X84418Y55025D01*
X84325Y55062D01*
X84214Y55090D01*
X84094Y55099D01*
X83012D01*
X82966Y55117D01*
X82920Y55136D01*
X82874Y55163D01*
X82828Y55210D01*
X82800Y55274D01*
X82790Y55358D01*
Y55367D01*
Y55404D01*
X82809Y55441D01*
X82828Y55496D01*
X82855Y55542D01*
X82901Y55589D01*
X82966Y55616D01*
X83049Y55626D01*
X84159D01*
X84196Y55616D01*
D02*
G37*
G36*
X80266D02*
X80322D01*
X80387Y55598D01*
X80544Y55570D01*
X80719Y55515D01*
X80904Y55432D01*
X80997Y55376D01*
X81089Y55321D01*
X81182Y55247D01*
X81274Y55163D01*
X81284Y55154D01*
X81293Y55145D01*
X81320Y55117D01*
X81348Y55080D01*
X81385Y55034D01*
X81422Y54979D01*
X81505Y54849D01*
X81589Y54692D01*
X81663Y54498D01*
X81718Y54285D01*
X81727Y54165D01*
X81736Y54045D01*
Y54036D01*
Y53998D01*
X81727Y53943D01*
X81718Y53869D01*
X81709Y53786D01*
X81690Y53684D01*
X81653Y53573D01*
X81616Y53453D01*
X81570Y53333D01*
X81505Y53213D01*
X81431Y53092D01*
X81339Y52972D01*
X81228Y52861D01*
X81098Y52760D01*
X80951Y52667D01*
X80784Y52584D01*
X81699Y50753D01*
X81709Y50744D01*
X81718Y50716D01*
X81727Y50679D01*
X81736Y50633D01*
Y50615D01*
X81727Y50568D01*
X81699Y50513D01*
X81653Y50448D01*
X81635Y50439D01*
X81598Y50411D01*
X81542Y50384D01*
X81468Y50374D01*
X81441D01*
X81413Y50384D01*
X81376Y50393D01*
X81339Y50411D01*
X81293Y50430D01*
X81256Y50467D01*
X81228Y50513D01*
X80257Y52473D01*
X79111D01*
Y50633D01*
Y50624D01*
Y50596D01*
X79102Y50550D01*
X79074Y50504D01*
X79046Y50458D01*
X79000Y50411D01*
X78935Y50384D01*
X78843Y50374D01*
X78806D01*
X78759Y50393D01*
X78713Y50411D01*
X78667Y50439D01*
X78621Y50485D01*
X78593Y50550D01*
X78584Y50633D01*
Y55358D01*
Y55367D01*
Y55404D01*
X78602Y55441D01*
X78621Y55496D01*
X78649Y55542D01*
X78695Y55589D01*
X78759Y55616D01*
X78843Y55626D01*
X80220D01*
X80266Y55616D01*
D02*
G37*
G36*
X46196Y234617D02*
X46297Y234607D01*
X46418Y234580D01*
X46566Y234533D01*
X46723Y234459D01*
X46880Y234367D01*
X47028Y234237D01*
X47046Y234219D01*
X47093Y234173D01*
X47148Y234090D01*
X47222Y233979D01*
X47296Y233840D01*
X47351Y233683D01*
X47398Y233507D01*
X47416Y233313D01*
Y233294D01*
Y233248D01*
X47407Y233174D01*
X47389Y233072D01*
X47361Y232962D01*
X47315Y232832D01*
X47259Y232693D01*
X47176Y232555D01*
X45521Y229901D01*
X47194D01*
X47231Y229892D01*
X47287Y229864D01*
X47333Y229837D01*
X47379Y229790D01*
X47407Y229726D01*
X47416Y229633D01*
Y229624D01*
Y229596D01*
X47407Y229550D01*
X47379Y229504D01*
X47351Y229457D01*
X47305Y229411D01*
X47241Y229384D01*
X47148Y229374D01*
X45012D01*
X44966Y229393D01*
X44920Y229411D01*
X44874Y229439D01*
X44827Y229485D01*
X44800Y229550D01*
X44791Y229633D01*
Y229652D01*
X44800Y229679D01*
X44809Y229735D01*
X44827Y229781D01*
X46760Y232878D01*
X46769Y232887D01*
X46778Y232915D01*
X46797Y232962D01*
X46824Y233017D01*
X46852Y233082D01*
X46871Y233156D01*
X46880Y233230D01*
X46889Y233313D01*
Y233331D01*
Y233368D01*
X46880Y233424D01*
X46862Y233507D01*
X46834Y233590D01*
X46788Y233683D01*
X46732Y233775D01*
X46658Y233868D01*
X46649Y233877D01*
X46621Y233905D01*
X46566Y233941D01*
X46501Y233988D01*
X46418Y234025D01*
X46325Y234062D01*
X46214Y234090D01*
X46094Y234099D01*
X46076D01*
X46020Y234090D01*
X45937Y234062D01*
X45826Y234016D01*
X45761Y233979D01*
X45697Y233941D01*
X45632Y233886D01*
X45558Y233821D01*
X45484Y233747D01*
X45419Y233655D01*
X45345Y233563D01*
X45271Y233442D01*
Y233433D01*
X45262Y233424D01*
X45216Y233378D01*
X45151Y233331D01*
X45105Y233322D01*
X45049Y233313D01*
X45012D01*
X44966Y233331D01*
X44920Y233350D01*
X44874Y233378D01*
X44827Y233424D01*
X44800Y233489D01*
X44791Y233572D01*
Y233581D01*
Y233609D01*
X44809Y233683D01*
X44818Y233692D01*
X44827Y233720D01*
X44855Y233766D01*
X44901Y233831D01*
X44948Y233905D01*
X45003Y233979D01*
X45077Y234071D01*
X45151Y234154D01*
X45244Y234247D01*
X45345Y234330D01*
X45447Y234404D01*
X45558Y234478D01*
X45687Y234543D01*
X45817Y234589D01*
X45955Y234617D01*
X46103Y234626D01*
X46159D01*
X46196Y234617D01*
D02*
G37*
G36*
X42266D02*
X42322D01*
X42387Y234598D01*
X42544Y234570D01*
X42719Y234515D01*
X42904Y234432D01*
X42997Y234376D01*
X43089Y234321D01*
X43182Y234247D01*
X43274Y234163D01*
X43284Y234154D01*
X43293Y234145D01*
X43320Y234117D01*
X43348Y234080D01*
X43385Y234034D01*
X43422Y233979D01*
X43505Y233849D01*
X43589Y233692D01*
X43663Y233498D01*
X43718Y233285D01*
X43727Y233165D01*
X43737Y233045D01*
Y233036D01*
Y232999D01*
X43727Y232943D01*
X43718Y232869D01*
X43709Y232786D01*
X43690Y232684D01*
X43653Y232573D01*
X43616Y232453D01*
X43570Y232333D01*
X43505Y232213D01*
X43431Y232092D01*
X43339Y231972D01*
X43228Y231861D01*
X43099Y231760D01*
X42951Y231667D01*
X42784Y231584D01*
X43699Y229753D01*
X43709Y229744D01*
X43718Y229716D01*
X43727Y229679D01*
X43737Y229633D01*
Y229615D01*
X43727Y229568D01*
X43699Y229513D01*
X43653Y229448D01*
X43635Y229439D01*
X43598Y229411D01*
X43542Y229384D01*
X43468Y229374D01*
X43441D01*
X43413Y229384D01*
X43376Y229393D01*
X43339Y229411D01*
X43293Y229430D01*
X43256Y229467D01*
X43228Y229513D01*
X42257Y231473D01*
X41111D01*
Y229633D01*
Y229624D01*
Y229596D01*
X41101Y229550D01*
X41074Y229504D01*
X41046Y229457D01*
X41000Y229411D01*
X40935Y229384D01*
X40843Y229374D01*
X40806D01*
X40759Y229393D01*
X40713Y229411D01*
X40667Y229439D01*
X40621Y229485D01*
X40593Y229550D01*
X40584Y229633D01*
Y234358D01*
Y234367D01*
Y234404D01*
X40602Y234441D01*
X40621Y234496D01*
X40648Y234543D01*
X40695Y234589D01*
X40759Y234617D01*
X40843Y234626D01*
X42220D01*
X42266Y234617D01*
D02*
G37*
G36*
X47709Y151616D02*
X47764Y151589D01*
X47811Y151561D01*
X47857Y151515D01*
X47885Y151450D01*
X47894Y151358D01*
Y146633D01*
Y146624D01*
Y146596D01*
X47885Y146550D01*
X47857Y146504D01*
X47829Y146457D01*
X47783Y146411D01*
X47718Y146383D01*
X47626Y146374D01*
X47589D01*
X47543Y146393D01*
X47496Y146411D01*
X47450Y146439D01*
X47404Y146485D01*
X47376Y146550D01*
X47367Y146633D01*
Y150729D01*
X46757Y150119D01*
X46747Y150110D01*
X46710Y150082D01*
X46646Y150054D01*
X46572Y150045D01*
X46535D01*
X46488Y150063D01*
X46442Y150082D01*
X46396Y150110D01*
X46350Y150156D01*
X46322Y150220D01*
X46313Y150313D01*
Y150322D01*
Y150331D01*
X46322Y150378D01*
X46341Y150433D01*
X46387Y150498D01*
X47413Y151524D01*
X47422Y151533D01*
X47432Y151543D01*
X47478Y151580D01*
X47543Y151607D01*
X47589Y151626D01*
X47672D01*
X47709Y151616D01*
D02*
G37*
G36*
X43789D02*
X43844D01*
X43909Y151598D01*
X44066Y151570D01*
X44242Y151515D01*
X44427Y151432D01*
X44519Y151376D01*
X44612Y151321D01*
X44704Y151247D01*
X44797Y151164D01*
X44806Y151154D01*
X44815Y151145D01*
X44843Y151117D01*
X44871Y151080D01*
X44907Y151034D01*
X44945Y150978D01*
X45028Y150849D01*
X45111Y150692D01*
X45185Y150498D01*
X45240Y150285D01*
X45250Y150165D01*
X45259Y150045D01*
Y150035D01*
Y149999D01*
X45250Y149943D01*
X45240Y149869D01*
X45231Y149786D01*
X45213Y149684D01*
X45176Y149573D01*
X45139Y149453D01*
X45092Y149333D01*
X45028Y149213D01*
X44954Y149092D01*
X44861Y148972D01*
X44750Y148861D01*
X44621Y148760D01*
X44473Y148667D01*
X44307Y148584D01*
X45222Y146753D01*
X45231Y146744D01*
X45240Y146716D01*
X45250Y146679D01*
X45259Y146633D01*
Y146615D01*
X45250Y146568D01*
X45222Y146513D01*
X45176Y146448D01*
X45157Y146439D01*
X45120Y146411D01*
X45065Y146383D01*
X44991Y146374D01*
X44963D01*
X44935Y146383D01*
X44898Y146393D01*
X44861Y146411D01*
X44815Y146430D01*
X44778Y146467D01*
X44750Y146513D01*
X43780Y148473D01*
X42633D01*
Y146633D01*
Y146624D01*
Y146596D01*
X42624Y146550D01*
X42596Y146504D01*
X42568Y146457D01*
X42522Y146411D01*
X42457Y146383D01*
X42365Y146374D01*
X42328D01*
X42282Y146393D01*
X42236Y146411D01*
X42189Y146439D01*
X42143Y146485D01*
X42115Y146550D01*
X42106Y146633D01*
Y151358D01*
Y151367D01*
Y151404D01*
X42125Y151441D01*
X42143Y151496D01*
X42171Y151543D01*
X42217Y151589D01*
X42282Y151616D01*
X42365Y151626D01*
X43743D01*
X43789Y151616D01*
D02*
G37*
G36*
X80976Y76304D02*
X81031Y76276D01*
X81077Y76249D01*
X81124Y76203D01*
X81152Y76138D01*
X81161Y76045D01*
Y71321D01*
Y71312D01*
Y71284D01*
X81152Y71238D01*
X81124Y71191D01*
X81096Y71145D01*
X81050Y71099D01*
X80985Y71071D01*
X80893Y71062D01*
X80856D01*
X80809Y71080D01*
X80763Y71099D01*
X80717Y71127D01*
X80671Y71173D01*
X80643Y71238D01*
X80634Y71321D01*
Y73688D01*
X78535D01*
Y71321D01*
Y71312D01*
Y71284D01*
X78526Y71238D01*
X78498Y71191D01*
X78470Y71145D01*
X78424Y71099D01*
X78359Y71071D01*
X78267Y71062D01*
X78230D01*
X78184Y71080D01*
X78137Y71099D01*
X78091Y71127D01*
X78045Y71173D01*
X78017Y71238D01*
X78008Y71321D01*
Y76045D01*
Y76055D01*
Y76092D01*
X78026Y76129D01*
X78045Y76184D01*
X78073Y76230D01*
X78119Y76276D01*
X78184Y76304D01*
X78267Y76314D01*
X78313D01*
X78350Y76304D01*
X78405Y76276D01*
X78452Y76249D01*
X78498Y76203D01*
X78526Y76138D01*
X78535Y76045D01*
Y74215D01*
X80634D01*
Y76045D01*
Y76055D01*
Y76092D01*
X80652Y76129D01*
X80671Y76184D01*
X80698Y76230D01*
X80745Y76276D01*
X80809Y76304D01*
X80893Y76314D01*
X80939D01*
X80976Y76304D01*
D02*
G37*
G36*
X87300D02*
X87402Y76295D01*
X87522Y76267D01*
X87670Y76221D01*
X87827Y76147D01*
X87984Y76055D01*
X88132Y75925D01*
X88150Y75907D01*
X88197Y75861D01*
X88252Y75777D01*
X88326Y75666D01*
X88400Y75528D01*
X88455Y75370D01*
X88502Y75195D01*
X88520Y75001D01*
Y74991D01*
Y74973D01*
Y74936D01*
X88511Y74890D01*
X88502Y74834D01*
X88492Y74770D01*
X88455Y74622D01*
X88391Y74455D01*
X88354Y74372D01*
X88298Y74279D01*
X88234Y74196D01*
X88169Y74104D01*
X88086Y74021D01*
X87993Y73947D01*
X88003D01*
X88012Y73928D01*
X88039Y73910D01*
X88076Y73873D01*
X88160Y73789D01*
X88261Y73669D01*
X88354Y73512D01*
X88437Y73336D01*
X88474Y73235D01*
X88502Y73124D01*
X88511Y73013D01*
X88520Y72893D01*
Y72375D01*
Y72366D01*
Y72347D01*
Y72319D01*
X88511Y72282D01*
X88502Y72181D01*
X88474Y72051D01*
X88428Y71903D01*
X88354Y71755D01*
X88261Y71589D01*
X88132Y71441D01*
X88113Y71423D01*
X88067Y71386D01*
X87984Y71321D01*
X87873Y71256D01*
X87734Y71182D01*
X87577Y71118D01*
X87402Y71080D01*
X87207Y71062D01*
X86116D01*
X86070Y71080D01*
X86024Y71099D01*
X85978Y71127D01*
X85932Y71173D01*
X85904Y71238D01*
X85894Y71321D01*
Y71330D01*
Y71367D01*
X85913Y71404D01*
X85932Y71459D01*
X85959Y71506D01*
X86005Y71552D01*
X86070Y71580D01*
X86153Y71589D01*
X87254D01*
X87318Y71598D01*
X87392Y71617D01*
X87485Y71645D01*
X87577Y71681D01*
X87670Y71737D01*
X87762Y71811D01*
X87771Y71820D01*
X87799Y71857D01*
X87836Y71903D01*
X87882Y71968D01*
X87919Y72051D01*
X87956Y72144D01*
X87984Y72255D01*
X87993Y72375D01*
Y72893D01*
Y72911D01*
Y72948D01*
X87984Y73013D01*
X87965Y73087D01*
X87938Y73179D01*
X87892Y73272D01*
X87836Y73364D01*
X87753Y73457D01*
X87744Y73466D01*
X87716Y73494D01*
X87660Y73531D01*
X87596Y73577D01*
X87512Y73614D01*
X87420Y73651D01*
X87318Y73678D01*
X87198Y73688D01*
X86634D01*
X86588Y73706D01*
X86542Y73725D01*
X86495Y73752D01*
X86449Y73799D01*
X86421Y73863D01*
X86412Y73947D01*
Y73956D01*
Y73993D01*
X86431Y74030D01*
X86449Y74085D01*
X86477Y74131D01*
X86523Y74178D01*
X86588Y74205D01*
X86671Y74215D01*
X87254D01*
X87318Y74224D01*
X87392Y74243D01*
X87485Y74270D01*
X87577Y74307D01*
X87670Y74363D01*
X87762Y74437D01*
X87771Y74446D01*
X87799Y74483D01*
X87836Y74529D01*
X87882Y74594D01*
X87919Y74677D01*
X87956Y74770D01*
X87984Y74880D01*
X87993Y75001D01*
Y75019D01*
Y75056D01*
X87984Y75112D01*
X87965Y75195D01*
X87938Y75278D01*
X87892Y75370D01*
X87836Y75463D01*
X87762Y75555D01*
X87753Y75565D01*
X87725Y75592D01*
X87670Y75629D01*
X87605Y75676D01*
X87522Y75712D01*
X87429Y75750D01*
X87318Y75777D01*
X87198Y75786D01*
X86116D01*
X86070Y75805D01*
X86024Y75823D01*
X85978Y75851D01*
X85932Y75897D01*
X85904Y75962D01*
X85894Y76045D01*
Y76055D01*
Y76092D01*
X85913Y76129D01*
X85932Y76184D01*
X85959Y76230D01*
X86005Y76276D01*
X86070Y76304D01*
X86153Y76314D01*
X87263D01*
X87300Y76304D01*
D02*
G37*
G36*
X82557D02*
X82612Y76276D01*
X82659Y76249D01*
X82705Y76203D01*
X82732Y76138D01*
X82742Y76045D01*
Y71589D01*
X84619D01*
X84656Y71580D01*
X84711Y71552D01*
X84757Y71524D01*
X84803Y71478D01*
X84831Y71413D01*
X84840Y71321D01*
Y71312D01*
Y71284D01*
X84831Y71238D01*
X84803Y71191D01*
X84776Y71145D01*
X84729Y71099D01*
X84665Y71071D01*
X84572Y71062D01*
X82437D01*
X82390Y71080D01*
X82344Y71099D01*
X82298Y71127D01*
X82252Y71173D01*
X82224Y71238D01*
X82215Y71321D01*
Y76045D01*
Y76055D01*
Y76092D01*
X82233Y76129D01*
X82252Y76184D01*
X82279Y76230D01*
X82326Y76276D01*
X82390Y76304D01*
X82474Y76314D01*
X82520D01*
X82557Y76304D01*
D02*
G37*
G36*
X15444Y322430D02*
X15499Y322402D01*
X15546Y322375D01*
X15592Y322328D01*
X15619Y322264D01*
X15629Y322171D01*
Y317447D01*
Y317438D01*
Y317410D01*
X15619Y317364D01*
X15592Y317317D01*
X15564Y317271D01*
X15518Y317225D01*
X15453Y317197D01*
X15361Y317188D01*
X15324D01*
X15277Y317206D01*
X15231Y317225D01*
X15185Y317253D01*
X15139Y317299D01*
X15111Y317364D01*
X15102Y317447D01*
Y319814D01*
X13003D01*
Y317447D01*
Y317438D01*
Y317410D01*
X12994Y317364D01*
X12966Y317317D01*
X12938Y317271D01*
X12892Y317225D01*
X12827Y317197D01*
X12735Y317188D01*
X12698D01*
X12652Y317206D01*
X12605Y317225D01*
X12559Y317253D01*
X12513Y317299D01*
X12485Y317364D01*
X12476Y317447D01*
Y322171D01*
Y322181D01*
Y322218D01*
X12494Y322255D01*
X12513Y322310D01*
X12541Y322356D01*
X12587Y322402D01*
X12652Y322430D01*
X12735Y322439D01*
X12781D01*
X12818Y322430D01*
X12874Y322402D01*
X12920Y322375D01*
X12966Y322328D01*
X12994Y322264D01*
X13003Y322171D01*
Y320341D01*
X15102D01*
Y322171D01*
Y322181D01*
Y322218D01*
X15120Y322255D01*
X15139Y322310D01*
X15166Y322356D01*
X15213Y322402D01*
X15277Y322430D01*
X15361Y322439D01*
X15407D01*
X15444Y322430D01*
D02*
G37*
G36*
X21768D02*
X21869Y322421D01*
X21990Y322393D01*
X22138Y322347D01*
X22295Y322273D01*
X22452Y322181D01*
X22600Y322051D01*
X22618Y322033D01*
X22665Y321987D01*
X22720Y321903D01*
X22794Y321792D01*
X22868Y321654D01*
X22924Y321496D01*
X22970Y321321D01*
X22988Y321127D01*
Y321108D01*
Y321062D01*
X22979Y320988D01*
X22961Y320886D01*
X22933Y320775D01*
X22887Y320646D01*
X22831Y320507D01*
X22748Y320368D01*
X21093Y317715D01*
X22766D01*
X22803Y317706D01*
X22859Y317678D01*
X22905Y317650D01*
X22951Y317604D01*
X22979Y317539D01*
X22988Y317447D01*
Y317438D01*
Y317410D01*
X22979Y317364D01*
X22951Y317317D01*
X22924Y317271D01*
X22877Y317225D01*
X22813Y317197D01*
X22720Y317188D01*
X20584D01*
X20538Y317206D01*
X20492Y317225D01*
X20446Y317253D01*
X20399Y317299D01*
X20372Y317364D01*
X20363Y317447D01*
Y317465D01*
X20372Y317493D01*
X20381Y317549D01*
X20399Y317595D01*
X22332Y320692D01*
X22341Y320701D01*
X22350Y320729D01*
X22369Y320775D01*
X22397Y320831D01*
X22424Y320896D01*
X22443Y320969D01*
X22452Y321043D01*
X22461Y321127D01*
Y321145D01*
Y321182D01*
X22452Y321238D01*
X22434Y321321D01*
X22406Y321404D01*
X22359Y321496D01*
X22304Y321589D01*
X22230Y321681D01*
X22221Y321691D01*
X22193Y321718D01*
X22138Y321755D01*
X22073Y321801D01*
X21990Y321838D01*
X21897Y321875D01*
X21786Y321903D01*
X21666Y321912D01*
X21648D01*
X21592Y321903D01*
X21509Y321875D01*
X21398Y321829D01*
X21333Y321792D01*
X21268Y321755D01*
X21204Y321700D01*
X21130Y321635D01*
X21056Y321561D01*
X20991Y321469D01*
X20917Y321376D01*
X20843Y321256D01*
Y321247D01*
X20834Y321238D01*
X20788Y321191D01*
X20723Y321145D01*
X20677Y321136D01*
X20621Y321127D01*
X20584D01*
X20538Y321145D01*
X20492Y321164D01*
X20446Y321191D01*
X20399Y321238D01*
X20372Y321302D01*
X20363Y321385D01*
Y321395D01*
Y321423D01*
X20381Y321496D01*
X20390Y321506D01*
X20399Y321533D01*
X20427Y321580D01*
X20473Y321644D01*
X20520Y321718D01*
X20575Y321792D01*
X20649Y321885D01*
X20723Y321968D01*
X20815Y322060D01*
X20917Y322144D01*
X21019Y322218D01*
X21130Y322292D01*
X21259Y322356D01*
X21389Y322402D01*
X21527Y322430D01*
X21675Y322439D01*
X21731D01*
X21768Y322430D01*
D02*
G37*
G36*
X17025D02*
X17080Y322402D01*
X17126Y322375D01*
X17173Y322328D01*
X17200Y322264D01*
X17210Y322171D01*
Y317715D01*
X19087D01*
X19124Y317706D01*
X19179Y317678D01*
X19225Y317650D01*
X19272Y317604D01*
X19299Y317539D01*
X19309Y317447D01*
Y317438D01*
Y317410D01*
X19299Y317364D01*
X19272Y317317D01*
X19244Y317271D01*
X19197Y317225D01*
X19133Y317197D01*
X19040Y317188D01*
X16905D01*
X16858Y317206D01*
X16812Y317225D01*
X16766Y317253D01*
X16720Y317299D01*
X16692Y317364D01*
X16683Y317447D01*
Y322171D01*
Y322181D01*
Y322218D01*
X16701Y322255D01*
X16720Y322310D01*
X16747Y322356D01*
X16794Y322402D01*
X16858Y322430D01*
X16942Y322439D01*
X16988D01*
X17025Y322430D01*
D02*
G37*
G36*
X46932Y63616D02*
X47034Y63607D01*
X47154Y63580D01*
X47302Y63533D01*
X47459Y63459D01*
X47617Y63367D01*
X47764Y63237D01*
X47783Y63219D01*
X47829Y63173D01*
X47885Y63089D01*
X47959Y62979D01*
X48032Y62840D01*
X48088Y62683D01*
X48134Y62507D01*
X48153Y62313D01*
Y62304D01*
Y62285D01*
Y62248D01*
X48144Y62202D01*
X48134Y62147D01*
X48125Y62082D01*
X48088Y61934D01*
X48023Y61767D01*
X47986Y61684D01*
X47931Y61592D01*
X47866Y61508D01*
X47801Y61416D01*
X47718Y61333D01*
X47626Y61259D01*
X47635D01*
X47644Y61240D01*
X47672Y61222D01*
X47709Y61185D01*
X47792Y61102D01*
X47894Y60981D01*
X47986Y60824D01*
X48070Y60649D01*
X48106Y60547D01*
X48134Y60436D01*
X48144Y60325D01*
X48153Y60205D01*
Y59687D01*
Y59678D01*
Y59659D01*
Y59632D01*
X48144Y59595D01*
X48134Y59493D01*
X48106Y59363D01*
X48060Y59216D01*
X47986Y59068D01*
X47894Y58901D01*
X47764Y58753D01*
X47746Y58735D01*
X47700Y58698D01*
X47617Y58633D01*
X47505Y58568D01*
X47367Y58494D01*
X47210Y58430D01*
X47034Y58393D01*
X46840Y58374D01*
X45749D01*
X45703Y58393D01*
X45656Y58411D01*
X45610Y58439D01*
X45564Y58485D01*
X45536Y58550D01*
X45527Y58633D01*
Y58642D01*
Y58679D01*
X45546Y58716D01*
X45564Y58772D01*
X45592Y58818D01*
X45638Y58864D01*
X45703Y58892D01*
X45786Y58901D01*
X46886D01*
X46951Y58910D01*
X47025Y58929D01*
X47117Y58957D01*
X47210Y58994D01*
X47302Y59049D01*
X47395Y59123D01*
X47404Y59132D01*
X47432Y59169D01*
X47469Y59216D01*
X47515Y59280D01*
X47552Y59363D01*
X47589Y59456D01*
X47617Y59567D01*
X47626Y59687D01*
Y60205D01*
Y60223D01*
Y60260D01*
X47617Y60325D01*
X47598Y60399D01*
X47570Y60491D01*
X47524Y60584D01*
X47469Y60676D01*
X47385Y60769D01*
X47376Y60778D01*
X47348Y60806D01*
X47293Y60843D01*
X47228Y60889D01*
X47145Y60926D01*
X47052Y60963D01*
X46951Y60991D01*
X46831Y61000D01*
X46267D01*
X46220Y61019D01*
X46174Y61037D01*
X46128Y61065D01*
X46082Y61111D01*
X46054Y61176D01*
X46045Y61259D01*
Y61268D01*
Y61305D01*
X46063Y61342D01*
X46082Y61398D01*
X46109Y61444D01*
X46156Y61490D01*
X46220Y61518D01*
X46304Y61527D01*
X46886D01*
X46951Y61536D01*
X47025Y61555D01*
X47117Y61582D01*
X47210Y61620D01*
X47302Y61675D01*
X47395Y61749D01*
X47404Y61758D01*
X47432Y61795D01*
X47469Y61841D01*
X47515Y61906D01*
X47552Y61989D01*
X47589Y62082D01*
X47617Y62193D01*
X47626Y62313D01*
Y62331D01*
Y62368D01*
X47617Y62424D01*
X47598Y62507D01*
X47570Y62590D01*
X47524Y62683D01*
X47469Y62775D01*
X47395Y62868D01*
X47385Y62877D01*
X47358Y62905D01*
X47302Y62942D01*
X47237Y62988D01*
X47154Y63025D01*
X47062Y63062D01*
X46951Y63089D01*
X46831Y63099D01*
X45749D01*
X45703Y63117D01*
X45656Y63136D01*
X45610Y63163D01*
X45564Y63210D01*
X45536Y63274D01*
X45527Y63358D01*
Y63367D01*
Y63404D01*
X45546Y63441D01*
X45564Y63496D01*
X45592Y63542D01*
X45638Y63589D01*
X45703Y63616D01*
X45786Y63626D01*
X46895D01*
X46932Y63616D01*
D02*
G37*
G36*
X44288D02*
X44344Y63589D01*
X44390Y63561D01*
X44436Y63515D01*
X44464Y63450D01*
X44473Y63358D01*
Y63348D01*
Y63321D01*
X44464Y63274D01*
X44436Y63228D01*
X44408Y63182D01*
X44362Y63136D01*
X44297Y63108D01*
X44205Y63099D01*
X43105D01*
X43040Y63089D01*
X42966Y63071D01*
X42874Y63043D01*
X42781Y62997D01*
X42689Y62942D01*
X42596Y62868D01*
X42587Y62858D01*
X42559Y62831D01*
X42522Y62775D01*
X42485Y62710D01*
X42448Y62627D01*
X42411Y62535D01*
X42383Y62424D01*
X42374Y62304D01*
Y59687D01*
Y59669D01*
Y59632D01*
X42383Y59567D01*
X42402Y59493D01*
X42430Y59401D01*
X42467Y59308D01*
X42522Y59216D01*
X42596Y59123D01*
X42605Y59114D01*
X42642Y59086D01*
X42689Y59049D01*
X42753Y59012D01*
X42836Y58975D01*
X42929Y58938D01*
X43040Y58910D01*
X43160Y58901D01*
X44251D01*
X44288Y58892D01*
X44344Y58864D01*
X44390Y58836D01*
X44436Y58790D01*
X44464Y58726D01*
X44473Y58633D01*
Y58624D01*
Y58596D01*
X44464Y58550D01*
X44436Y58504D01*
X44408Y58457D01*
X44362Y58411D01*
X44297Y58383D01*
X44205Y58374D01*
X43105D01*
X43068Y58383D01*
X42966Y58393D01*
X42836Y58421D01*
X42689Y58467D01*
X42541Y58531D01*
X42374Y58624D01*
X42226Y58753D01*
X42208Y58772D01*
X42171Y58827D01*
X42106Y58901D01*
X42041Y59012D01*
X41967Y59151D01*
X41903Y59308D01*
X41866Y59493D01*
X41847Y59687D01*
Y62313D01*
Y62322D01*
Y62341D01*
Y62368D01*
X41856Y62405D01*
X41866Y62507D01*
X41894Y62627D01*
X41940Y62775D01*
X42004Y62932D01*
X42097Y63089D01*
X42226Y63237D01*
X42245Y63256D01*
X42300Y63302D01*
X42374Y63358D01*
X42485Y63432D01*
X42624Y63506D01*
X42781Y63561D01*
X42966Y63607D01*
X43160Y63626D01*
X44251D01*
X44288Y63616D01*
D02*
G37*
%LPC*%
G36*
X22315Y303722D02*
X17667Y302166D01*
X22315Y300629D01*
Y303722D01*
D02*
G37*
G36*
X45313Y108209D02*
X42696D01*
X42678D01*
X42641D01*
X42576Y108200D01*
X42502Y108182D01*
X42410Y108154D01*
X42317Y108108D01*
X42225Y108052D01*
X42132Y107978D01*
X42123Y107969D01*
X42095Y107941D01*
X42058Y107886D01*
X42012Y107821D01*
X41975Y107738D01*
X41938Y107646D01*
X41910Y107535D01*
X41901Y107414D01*
Y106111D01*
X46099D01*
Y107470D01*
X46089Y107535D01*
X46071Y107608D01*
X46043Y107701D01*
X46006Y107794D01*
X45951Y107886D01*
X45877Y107978D01*
X45868Y107988D01*
X45831Y108015D01*
X45784Y108052D01*
X45720Y108099D01*
X45636Y108135D01*
X45544Y108173D01*
X45433Y108200D01*
X45313Y108209D01*
D02*
G37*
G36*
X26365Y104099D02*
X25320D01*
Y102000D01*
X26384D01*
X26439Y102009D01*
X26522Y102018D01*
X26624Y102037D01*
X26744Y102074D01*
X26864Y102129D01*
X26994Y102194D01*
X27114Y102296D01*
X27123Y102314D01*
X27160Y102351D01*
X27206Y102416D01*
X27271Y102508D01*
X27327Y102610D01*
X27373Y102740D01*
X27410Y102888D01*
X27419Y103045D01*
Y103054D01*
Y103063D01*
Y103119D01*
X27401Y103202D01*
X27382Y103304D01*
X27345Y103424D01*
X27290Y103544D01*
X27216Y103673D01*
X27114Y103794D01*
X27105Y103803D01*
X27058Y103840D01*
X26994Y103886D01*
X26911Y103951D01*
X26799Y104006D01*
X26670Y104052D01*
X26522Y104089D01*
X26365Y104099D01*
D02*
G37*
G36*
X74416Y92099D02*
X74398D01*
X74342Y92090D01*
X74268Y92052D01*
X74222Y92025D01*
X74176Y91988D01*
X74120Y91941D01*
X74065Y91886D01*
X74009Y91812D01*
X73963Y91729D01*
X73908Y91627D01*
X73861Y91507D01*
X73815Y91378D01*
X73769Y91220D01*
Y91211D01*
X73760Y91193D01*
Y91165D01*
X73751Y91119D01*
X73741Y91063D01*
X73723Y90998D01*
X73704Y90851D01*
X73677Y90666D01*
X73649Y90453D01*
X73640Y90231D01*
X73630Y90000D01*
Y89991D01*
Y89972D01*
Y89935D01*
Y89889D01*
Y89834D01*
X73640Y89760D01*
X73649Y89602D01*
X73667Y89408D01*
X73686Y89205D01*
X73723Y88992D01*
X73769Y88770D01*
Y88761D01*
X73778Y88733D01*
X73787Y88687D01*
X73806Y88632D01*
X73834Y88567D01*
X73861Y88493D01*
X73926Y88336D01*
X74019Y88179D01*
X74074Y88105D01*
X74130Y88040D01*
X74194Y87984D01*
X74259Y87938D01*
X74333Y87910D01*
X74416Y87901D01*
X74435D01*
X74490Y87920D01*
X74564Y87947D01*
X74610Y87975D01*
X74657Y88012D01*
X74712Y88058D01*
X74767Y88114D01*
X74814Y88188D01*
X74869Y88271D01*
X74915Y88364D01*
X74971Y88484D01*
X75017Y88613D01*
X75054Y88770D01*
Y88780D01*
X75063Y88798D01*
X75073Y88826D01*
X75082Y88872D01*
X75091Y88927D01*
X75100Y88983D01*
X75128Y89140D01*
X75156Y89325D01*
X75184Y89528D01*
X75193Y89760D01*
X75202Y90000D01*
Y90009D01*
Y90028D01*
Y90065D01*
Y90111D01*
Y90166D01*
X75193Y90231D01*
X75184Y90398D01*
X75165Y90582D01*
X75137Y90786D01*
X75100Y91008D01*
X75054Y91220D01*
Y91230D01*
X75045Y91257D01*
X75036Y91304D01*
X75017Y91359D01*
X74989Y91424D01*
X74971Y91498D01*
X74897Y91664D01*
X74814Y91821D01*
X74758Y91895D01*
X74703Y91960D01*
X74638Y92015D01*
X74564Y92062D01*
X74499Y92090D01*
X74416Y92099D01*
D02*
G37*
G36*
X67843D02*
X66798D01*
Y90000D01*
X67861D01*
X67917Y90009D01*
X68000Y90019D01*
X68102Y90037D01*
X68222Y90074D01*
X68342Y90129D01*
X68471Y90194D01*
X68591Y90296D01*
X68601Y90314D01*
X68638Y90351D01*
X68684Y90416D01*
X68749Y90508D01*
X68804Y90610D01*
X68850Y90740D01*
X68887Y90888D01*
X68897Y91045D01*
Y91054D01*
Y91063D01*
Y91119D01*
X68878Y91202D01*
X68860Y91304D01*
X68823Y91424D01*
X68767Y91544D01*
X68693Y91673D01*
X68591Y91794D01*
X68582Y91803D01*
X68536Y91840D01*
X68471Y91886D01*
X68388Y91951D01*
X68277Y92006D01*
X68148Y92052D01*
X68000Y92090D01*
X67843Y92099D01*
D02*
G37*
G36*
X62562Y290924D02*
X61517D01*
Y288826D01*
X62580D01*
X62636Y288835D01*
X62719Y288844D01*
X62821Y288863D01*
X62941Y288900D01*
X63061Y288955D01*
X63190Y289020D01*
X63311Y289122D01*
X63320Y289140D01*
X63357Y289177D01*
X63403Y289242D01*
X63468Y289334D01*
X63523Y289436D01*
X63569Y289565D01*
X63607Y289713D01*
X63616Y289870D01*
Y289880D01*
Y289889D01*
Y289944D01*
X63597Y290028D01*
X63579Y290129D01*
X63542Y290250D01*
X63486Y290370D01*
X63412Y290499D01*
X63311Y290619D01*
X63301Y290629D01*
X63255Y290666D01*
X63190Y290712D01*
X63107Y290777D01*
X62996Y290832D01*
X62867Y290878D01*
X62719Y290915D01*
X62562Y290924D01*
D02*
G37*
G36*
X80155Y55099D02*
X79111D01*
Y53000D01*
X80174D01*
X80230Y53009D01*
X80313Y53018D01*
X80414Y53037D01*
X80535Y53074D01*
X80655Y53129D01*
X80784Y53194D01*
X80904Y53296D01*
X80914Y53314D01*
X80951Y53351D01*
X80997Y53416D01*
X81062Y53509D01*
X81117Y53610D01*
X81163Y53740D01*
X81200Y53888D01*
X81209Y54045D01*
Y54054D01*
Y54063D01*
Y54119D01*
X81191Y54202D01*
X81173Y54304D01*
X81136Y54424D01*
X81080Y54544D01*
X81006Y54673D01*
X80904Y54794D01*
X80895Y54803D01*
X80849Y54840D01*
X80784Y54886D01*
X80701Y54951D01*
X80590Y55006D01*
X80461Y55052D01*
X80313Y55090D01*
X80155Y55099D01*
D02*
G37*
G36*
X42155Y234099D02*
X41111D01*
Y232000D01*
X42174D01*
X42229Y232009D01*
X42313Y232019D01*
X42414Y232037D01*
X42535Y232074D01*
X42655Y232129D01*
X42784Y232194D01*
X42904Y232296D01*
X42914Y232314D01*
X42951Y232351D01*
X42997Y232416D01*
X43062Y232509D01*
X43117Y232610D01*
X43163Y232740D01*
X43200Y232887D01*
X43210Y233045D01*
Y233054D01*
Y233063D01*
Y233119D01*
X43191Y233202D01*
X43172Y233304D01*
X43135Y233424D01*
X43080Y233544D01*
X43006Y233673D01*
X42904Y233794D01*
X42895Y233803D01*
X42849Y233840D01*
X42784Y233886D01*
X42701Y233951D01*
X42590Y234006D01*
X42461Y234053D01*
X42313Y234090D01*
X42155Y234099D01*
D02*
G37*
G36*
X43678Y151099D02*
X42633D01*
Y149000D01*
X43696D01*
X43752Y149009D01*
X43835Y149018D01*
X43937Y149037D01*
X44057Y149074D01*
X44177Y149129D01*
X44307Y149194D01*
X44427Y149296D01*
X44436Y149314D01*
X44473Y149351D01*
X44519Y149416D01*
X44584Y149508D01*
X44639Y149610D01*
X44686Y149740D01*
X44723Y149888D01*
X44732Y150045D01*
Y150054D01*
Y150063D01*
Y150119D01*
X44713Y150202D01*
X44695Y150304D01*
X44658Y150424D01*
X44602Y150544D01*
X44528Y150673D01*
X44427Y150794D01*
X44418Y150803D01*
X44371Y150840D01*
X44307Y150886D01*
X44223Y150951D01*
X44112Y151006D01*
X43983Y151053D01*
X43835Y151089D01*
X43678Y151099D01*
D02*
G37*
%LPD*%
D10*
X50750Y99725D02*
G03*
X50750Y99725I-1250J0D01*
G01*
D11*
X28500Y149000D02*
Y183000D01*
Y149000D02*
X87500D01*
Y183000D01*
X28500D02*
X87500D01*
X28500Y217000D02*
X87500D01*
Y183000D02*
Y217000D01*
X28500Y183000D02*
X87500D01*
X28500D02*
Y217000D01*
X45500Y67000D02*
Y87000D01*
X52500D01*
Y67000D02*
Y87000D01*
X45500Y67000D02*
X52500D01*
X27000Y89000D02*
X31000D01*
X88000Y43000D02*
Y47000D01*
X38000Y222000D02*
Y226000D01*
X88000Y59000D02*
Y63000D01*
X50000Y106225D02*
Y132225D01*
X59500D01*
X96000Y106225D02*
Y132225D01*
X86500D02*
X96000D01*
X42000Y40750D02*
Y57250D01*
X76000Y40750D02*
Y57250D01*
X42000D02*
X76000D01*
X42000Y40750D02*
X76000D01*
X69000Y77000D02*
X73000D01*
X38000Y140000D02*
Y144000D01*
X39950Y10300D02*
X46300Y16650D01*
X27250Y10300D02*
X39950D01*
X20900Y16650D02*
X27250Y10300D01*
X20900Y16650D02*
Y29350D01*
X27250Y35700D01*
X39950D01*
X46300Y29350D01*
X71700Y35700D02*
X97100D01*
X65350D02*
X71700Y29350D01*
X52650Y35700D02*
X65350D01*
X46300Y29350D02*
X52650Y35700D01*
X46300Y16650D02*
Y29350D01*
Y16650D02*
X52650Y10300D01*
X65350D01*
X71700Y16650D01*
X97100Y10300D02*
Y35700D01*
X71700Y10300D02*
Y35700D01*
Y10300D02*
X97100D01*
X73000Y292000D02*
X93000D01*
X73000Y248000D02*
X93000D01*
Y292000D01*
X73000Y248000D02*
Y292000D01*
Y262500D02*
X93000D01*
X43500Y241000D02*
X53500D01*
Y271000D01*
X18500D02*
X53500D01*
X18500Y241000D02*
Y271000D01*
Y241000D02*
X28500D01*
X58500Y233500D02*
Y311000D01*
X36000Y233500D02*
X58500D01*
X36000Y311000D02*
X58500D01*
X13500Y233500D02*
Y311000D01*
X36000D01*
X13500Y233500D02*
X36000D01*
X64000Y271000D02*
X68000D01*
M02*
