G04*
G04 #@! TF.GenerationSoftware,Altium Limited,Altium Designer,20.1.7 (139)*
G04*
G04 Layer_Color=8388736*
%FSLAX44Y44*%
%MOMM*%
G71*
G04*
G04 #@! TF.SameCoordinates,E0ED747D-F99B-4A2E-885D-06FFC37D6295*
G04*
G04*
G04 #@! TF.FilePolarity,Negative*
G04*
G01*
G75*
%ADD12R,1.2032X2.2032*%
%ADD13R,0.9032X0.7032*%
%ADD14R,0.8032X0.8032*%
%ADD15R,0.8032X0.8032*%
%ADD16R,0.8032X1.6032*%
%ADD17R,0.8032X2.0032*%
%ADD18R,1.2032X1.4532*%
%ADD19R,1.8032X1.2032*%
%ADD20R,1.2032X2.2032*%
%ADD21R,2.2032X2.2032*%
%ADD22C,2.2032*%
G36*
X76133Y145009D02*
X76263Y144984D01*
X76390Y144941D01*
X76509Y144882D01*
X76620Y144808D01*
X76720Y144720D01*
X83220Y138220D01*
X83308Y138120D01*
X83382Y138009D01*
X83441Y137890D01*
X83483Y137764D01*
X83510Y137633D01*
X83518Y137500D01*
Y118500D01*
X83510Y118367D01*
X83483Y118237D01*
X83441Y118110D01*
X83382Y117991D01*
X83308Y117880D01*
X83220Y117780D01*
X76720Y111280D01*
X76620Y111192D01*
X76509Y111118D01*
X76390Y111059D01*
X76263Y111017D01*
X76133Y110990D01*
X76000Y110982D01*
X70000D01*
X69867Y110990D01*
X69736Y111017D01*
X69610Y111059D01*
X69491Y111118D01*
X69380Y111192D01*
X69280Y111280D01*
X62780Y117780D01*
X62692Y117880D01*
X62618Y117991D01*
X62559Y118110D01*
X62516Y118237D01*
X62491Y118367D01*
X62482Y118500D01*
Y137500D01*
X62491Y137633D01*
X62516Y137764D01*
X62559Y137890D01*
X62618Y138009D01*
X62692Y138120D01*
X62780Y138220D01*
X69280Y144720D01*
X69380Y144808D01*
X69491Y144882D01*
X69610Y144941D01*
X69736Y144984D01*
X69867Y145009D01*
X70000Y145018D01*
X76000D01*
X76133Y145009D01*
D02*
G37*
D12*
X36000Y166000D02*
D03*
X80000D02*
D03*
Y200000D02*
D03*
X36000D02*
D03*
D13*
X39000Y83500D02*
D03*
Y70500D02*
D03*
X59000Y77000D02*
D03*
D14*
X29000Y84000D02*
D03*
Y94000D02*
D03*
X71000Y72000D02*
D03*
Y82000D02*
D03*
X66000Y266000D02*
D03*
Y276000D02*
D03*
D15*
X93000Y45000D02*
D03*
X83000D02*
D03*
X43000Y224000D02*
D03*
X33000D02*
D03*
X93000Y61000D02*
D03*
X83000D02*
D03*
X43000Y142000D02*
D03*
X33000D02*
D03*
D16*
X58000Y101000D02*
D03*
X88000D02*
D03*
D17*
X73000Y103000D02*
D03*
D18*
X49000Y49000D02*
D03*
X69000D02*
D03*
D19*
X83000Y285000D02*
D03*
Y255000D02*
D03*
D20*
X36000Y297000D02*
D03*
Y246000D02*
D03*
D21*
X84400Y23000D02*
D03*
D22*
X59000D02*
D03*
X33600D02*
D03*
M02*
