G04*
G04 #@! TF.GenerationSoftware,Altium Limited,Altium Designer,20.1.7 (139)*
G04*
G04 Layer_Color=16776960*
%FSLAX44Y44*%
%MOMM*%
G71*
G04*
G04 #@! TF.SameCoordinates,E0ED747D-F99B-4A2E-885D-06FFC37D6295*
G04*
G04*
G04 #@! TF.FilePolarity,Positive*
G04*
G01*
G75*
%ADD11C,0.2000*%
%ADD49C,0.5000*%
G36*
X45140Y133200D02*
X45205Y133182D01*
X45242Y133145D01*
X45279Y133117D01*
X45307Y133080D01*
X45325Y133043D01*
X45334Y133025D01*
Y133015D01*
X46388Y129345D01*
Y129299D01*
Y129280D01*
Y129271D01*
X46379Y129188D01*
X46351Y129123D01*
X46305Y129077D01*
X46259Y129049D01*
X46213Y129031D01*
X46166Y129012D01*
X44548D01*
Y128217D01*
X44539Y128134D01*
X44511Y128069D01*
X44465Y128023D01*
X44419Y127995D01*
X44373Y127977D01*
X44327Y127958D01*
X44289D01*
X44197Y127967D01*
X44132Y127995D01*
X44086Y128041D01*
X44058Y128087D01*
X44031Y128134D01*
X44021Y128180D01*
Y128208D01*
Y128217D01*
Y129012D01*
X43504D01*
X43411Y129021D01*
X43346Y129049D01*
X43300Y129095D01*
X43273Y129141D01*
X43245Y129188D01*
X43236Y129234D01*
Y129262D01*
Y129271D01*
X43245Y129363D01*
X43273Y129428D01*
X43319Y129474D01*
X43365Y129502D01*
X43420Y129530D01*
X43457Y129539D01*
X44021D01*
Y130325D01*
X44031Y130417D01*
X44058Y130482D01*
X44105Y130528D01*
X44151Y130556D01*
X44206Y130584D01*
X44243Y130593D01*
X44289D01*
X44373Y130584D01*
X44437Y130556D01*
X44484Y130510D01*
X44511Y130463D01*
X44530Y130408D01*
X44548Y130371D01*
Y130334D01*
Y130325D01*
Y129539D01*
X45778D01*
X44826Y132867D01*
X44816Y132923D01*
Y132932D01*
Y132941D01*
X44826Y133034D01*
X44854Y133098D01*
X44900Y133145D01*
X44946Y133173D01*
X44992Y133200D01*
X45038Y133209D01*
X45075D01*
X45140Y133200D01*
D02*
G37*
G36*
X48949Y133191D02*
X49134Y133145D01*
X49291Y133089D01*
X49430Y133015D01*
X49541Y132941D01*
X49615Y132886D01*
X49670Y132840D01*
X49689Y132821D01*
X49818Y132673D01*
X49911Y132516D01*
X49976Y132359D01*
X50022Y132211D01*
X50050Y132091D01*
X50059Y131989D01*
X50068Y131952D01*
Y131924D01*
Y131906D01*
Y131897D01*
Y129271D01*
X50050Y129077D01*
X50012Y128892D01*
X49948Y128735D01*
X49874Y128596D01*
X49809Y128485D01*
X49744Y128411D01*
X49707Y128356D01*
X49689Y128337D01*
X49541Y128208D01*
X49375Y128115D01*
X49227Y128050D01*
X49079Y128004D01*
X48949Y127977D01*
X48848Y127967D01*
X48811Y127958D01*
X47710D01*
X47618Y127967D01*
X47553Y127995D01*
X47507Y128041D01*
X47479Y128087D01*
X47452Y128134D01*
X47442Y128180D01*
Y128208D01*
Y128217D01*
X47452Y128309D01*
X47479Y128374D01*
X47525Y128420D01*
X47572Y128448D01*
X47627Y128476D01*
X47664Y128485D01*
X48755D01*
X48875Y128494D01*
X48986Y128522D01*
X49079Y128559D01*
X49162Y128596D01*
X49227Y128633D01*
X49273Y128670D01*
X49310Y128698D01*
X49319Y128707D01*
X49393Y128799D01*
X49448Y128892D01*
X49486Y128984D01*
X49513Y129077D01*
X49532Y129151D01*
X49541Y129215D01*
Y129252D01*
Y129271D01*
Y131887D01*
X49532Y132008D01*
X49504Y132119D01*
X49467Y132211D01*
X49430Y132294D01*
X49393Y132359D01*
X49356Y132414D01*
X49328Y132442D01*
X49319Y132451D01*
X49227Y132525D01*
X49134Y132581D01*
X49042Y132627D01*
X48949Y132655D01*
X48875Y132673D01*
X48811Y132683D01*
X47710D01*
X47618Y132692D01*
X47553Y132719D01*
X47507Y132766D01*
X47479Y132812D01*
X47452Y132858D01*
X47442Y132904D01*
Y132932D01*
Y132941D01*
X47452Y133034D01*
X47479Y133098D01*
X47525Y133145D01*
X47572Y133173D01*
X47627Y133200D01*
X47664Y133209D01*
X48755D01*
X48949Y133191D01*
D02*
G37*
G36*
X88412Y259937D02*
X88476Y259909D01*
X88523Y259872D01*
X88532Y259863D01*
X88541Y259854D01*
X89567Y258827D01*
X89614Y258763D01*
X89632Y258707D01*
X89642Y258661D01*
Y258652D01*
Y258643D01*
X89632Y258550D01*
X89605Y258485D01*
X89558Y258439D01*
X89512Y258412D01*
X89466Y258393D01*
X89420Y258375D01*
X89383D01*
X89309Y258384D01*
X89244Y258412D01*
X89207Y258439D01*
X89198Y258449D01*
X88588Y259059D01*
Y254963D01*
X88578Y254880D01*
X88551Y254815D01*
X88504Y254769D01*
X88458Y254741D01*
X88412Y254722D01*
X88366Y254704D01*
X88329D01*
X88236Y254713D01*
X88171Y254741D01*
X88125Y254787D01*
X88097Y254833D01*
X88070Y254880D01*
X88061Y254926D01*
Y254954D01*
Y254963D01*
Y259687D01*
X88070Y259780D01*
X88097Y259844D01*
X88144Y259891D01*
X88190Y259918D01*
X88245Y259946D01*
X88282Y259956D01*
X88366D01*
X88412Y259937D01*
D02*
G37*
G36*
X98406Y259946D02*
X98471Y259918D01*
X98517Y259872D01*
X98545Y259826D01*
X98563Y259771D01*
X98582Y259734D01*
Y259697D01*
Y259687D01*
X98573Y259632D01*
Y259623D01*
Y259613D01*
X97010Y254898D01*
X96973Y254833D01*
X96936Y254787D01*
X96899Y254750D01*
X96853Y254732D01*
X96816Y254713D01*
X96779Y254704D01*
X96751D01*
X96687Y254713D01*
X96631Y254732D01*
X96585Y254769D01*
X96548Y254806D01*
X96502Y254870D01*
X96493Y254889D01*
Y254898D01*
X94921Y259613D01*
X94911Y259660D01*
Y259678D01*
Y259687D01*
X94921Y259780D01*
X94949Y259844D01*
X94995Y259891D01*
X95041Y259918D01*
X95087Y259946D01*
X95133Y259956D01*
X95170D01*
X95235Y259946D01*
X95290Y259928D01*
X95328Y259900D01*
X95365Y259872D01*
X95411Y259808D01*
X95420Y259789D01*
Y259780D01*
X96751Y255795D01*
X98074Y259780D01*
X98101Y259835D01*
X98138Y259881D01*
X98184Y259909D01*
X98221Y259937D01*
X98258Y259946D01*
X98295Y259956D01*
X98323D01*
X98406Y259946D01*
D02*
G37*
G36*
X93673D02*
X93737Y259918D01*
X93784Y259872D01*
X93811Y259826D01*
X93830Y259771D01*
X93848Y259734D01*
Y259697D01*
Y259687D01*
X93839Y259604D01*
X93811Y259539D01*
X93765Y259493D01*
X93719Y259466D01*
X93673Y259447D01*
X93626Y259429D01*
X92535D01*
Y254963D01*
X92526Y254880D01*
X92498Y254815D01*
X92452Y254769D01*
X92406Y254741D01*
X92360Y254722D01*
X92313Y254704D01*
X92276D01*
X92184Y254713D01*
X92119Y254741D01*
X92073Y254787D01*
X92045Y254833D01*
X92018Y254880D01*
X92008Y254926D01*
Y254954D01*
Y254963D01*
Y259429D01*
X90964D01*
X90871Y259438D01*
X90806Y259466D01*
X90760Y259512D01*
X90732Y259558D01*
X90705Y259604D01*
X90695Y259650D01*
Y259678D01*
Y259687D01*
X90705Y259780D01*
X90732Y259844D01*
X90779Y259891D01*
X90825Y259918D01*
X90880Y259946D01*
X90917Y259956D01*
X93589D01*
X93673Y259946D01*
D02*
G37*
G36*
X99930Y229212D02*
X99995Y229184D01*
X100041Y229138D01*
X100069Y229092D01*
X100087Y229037D01*
X100106Y229000D01*
Y228963D01*
Y228953D01*
Y224229D01*
X100097Y224146D01*
X100069Y224081D01*
X100023Y224035D01*
X99977Y224007D01*
X99930Y223988D01*
X99884Y223970D01*
X99847D01*
X99755Y223979D01*
X99690Y224007D01*
X99644Y224053D01*
X99616Y224099D01*
X99588Y224146D01*
X99579Y224192D01*
Y224220D01*
Y224229D01*
Y226069D01*
X98433D01*
X97462Y224109D01*
X97434Y224062D01*
X97397Y224025D01*
X97351Y224007D01*
X97314Y223988D01*
X97277Y223979D01*
X97249Y223970D01*
X97221D01*
X97147Y223979D01*
X97092Y224007D01*
X97055Y224035D01*
X97036Y224044D01*
X96990Y224109D01*
X96962Y224164D01*
X96953Y224210D01*
Y224229D01*
X96962Y224275D01*
X96972Y224312D01*
X96981Y224340D01*
X96990Y224349D01*
X97906Y226180D01*
X97739Y226263D01*
X97591Y226355D01*
X97462Y226457D01*
X97351Y226568D01*
X97258Y226688D01*
X97184Y226808D01*
X97120Y226929D01*
X97073Y227049D01*
X97036Y227169D01*
X97000Y227280D01*
X96981Y227382D01*
X96972Y227465D01*
X96962Y227539D01*
X96953Y227594D01*
Y227631D01*
Y227640D01*
X96962Y227761D01*
X96972Y227881D01*
X97027Y228093D01*
X97101Y228288D01*
X97184Y228445D01*
X97268Y228574D01*
X97305Y228630D01*
X97341Y228676D01*
X97369Y228713D01*
X97397Y228741D01*
X97406Y228750D01*
X97416Y228759D01*
X97508Y228842D01*
X97600Y228916D01*
X97693Y228972D01*
X97785Y229027D01*
X97970Y229111D01*
X98146Y229166D01*
X98303Y229194D01*
X98368Y229212D01*
X98423D01*
X98469Y229221D01*
X99847D01*
X99930Y229212D01*
D02*
G37*
G36*
X94781Y229203D02*
X94965Y229157D01*
X95123Y229101D01*
X95261Y229027D01*
X95372Y228953D01*
X95446Y228898D01*
X95502Y228852D01*
X95520Y228833D01*
X95650Y228685D01*
X95742Y228528D01*
X95807Y228371D01*
X95853Y228223D01*
X95881Y228093D01*
X95890Y227992D01*
X95899Y227955D01*
Y227927D01*
Y227909D01*
Y227899D01*
Y227382D01*
X95881Y227188D01*
X95844Y227003D01*
X95779Y226845D01*
X95705Y226707D01*
X95640Y226596D01*
X95576Y226522D01*
X95539Y226466D01*
X95520Y226448D01*
X95372Y226318D01*
X95206Y226226D01*
X95058Y226161D01*
X94910Y226115D01*
X94781Y226087D01*
X94679Y226078D01*
X94642Y226069D01*
X93819D01*
X93847Y225912D01*
X93893Y225764D01*
X93948Y225625D01*
X94013Y225495D01*
X94087Y225366D01*
X94161Y225255D01*
X94244Y225144D01*
X94337Y225052D01*
X94420Y224968D01*
X94494Y224895D01*
X94568Y224830D01*
X94633Y224774D01*
X94688Y224728D01*
X94734Y224700D01*
X94762Y224682D01*
X94771Y224673D01*
X94845Y224626D01*
X94919Y224589D01*
X95076Y224515D01*
X95141Y224488D01*
X95197Y224469D01*
X95233Y224460D01*
X95243Y224451D01*
X95289Y224432D01*
X95326Y224405D01*
X95344Y224368D01*
X95363Y224331D01*
X95372Y224294D01*
X95381Y224257D01*
Y224238D01*
Y224229D01*
X95372Y224155D01*
X95335Y224099D01*
X95308Y224062D01*
X95298Y224044D01*
X95233Y223998D01*
X95178Y223979D01*
X95132Y223970D01*
X95113D01*
X95030Y223979D01*
X94947Y224007D01*
X94845Y224053D01*
X94743Y224099D01*
X94660Y224136D01*
X94586Y224183D01*
X94540Y224210D01*
X94522Y224220D01*
X94300Y224368D01*
X94106Y224534D01*
X93939Y224700D01*
X93800Y224876D01*
X93680Y225052D01*
X93579Y225227D01*
X93495Y225403D01*
X93431Y225569D01*
X93375Y225717D01*
X93338Y225865D01*
X93310Y225995D01*
X93292Y226106D01*
X93283Y226198D01*
X93273Y226272D01*
Y226309D01*
Y226328D01*
Y227909D01*
X93292Y228103D01*
X93338Y228288D01*
X93394Y228445D01*
X93468Y228574D01*
X93542Y228685D01*
X93597Y228769D01*
X93643Y228815D01*
X93662Y228833D01*
X93810Y228963D01*
X93967Y229055D01*
X94124Y229129D01*
X94263Y229175D01*
X94392Y229203D01*
X94494Y229212D01*
X94531Y229221D01*
X94586D01*
X94781Y229203D01*
D02*
G37*
G36*
X77241Y118617D02*
X77305Y118589D01*
X77351Y118542D01*
X77379Y118496D01*
X77398Y118441D01*
X77416Y118404D01*
Y118367D01*
Y118358D01*
Y114626D01*
X78635D01*
X78718Y114616D01*
X78783Y114589D01*
X78829Y114543D01*
X78857Y114496D01*
X78875Y114441D01*
X78894Y114404D01*
Y114367D01*
Y114358D01*
Y109633D01*
X78885Y109550D01*
X78857Y109485D01*
X78811Y109439D01*
X78765Y109411D01*
X78718Y109393D01*
X78672Y109374D01*
X77063D01*
X76869Y109393D01*
X76684Y109430D01*
X76527Y109494D01*
X76388Y109568D01*
X76277Y109633D01*
X76194Y109698D01*
X76148Y109735D01*
X76129Y109753D01*
X76000Y109901D01*
X75908Y110068D01*
X75834Y110216D01*
X75787Y110364D01*
X75760Y110493D01*
X75750Y110595D01*
X75741Y110632D01*
Y110659D01*
Y110678D01*
Y110687D01*
Y113313D01*
X75760Y113507D01*
X75806Y113692D01*
X75861Y113849D01*
X75935Y113979D01*
X76009Y114089D01*
X76065Y114173D01*
X76111Y114219D01*
X76129Y114237D01*
X76277Y114367D01*
X76435Y114459D01*
X76592Y114533D01*
X76740Y114579D01*
X76869Y114607D01*
X76889Y114609D01*
Y115473D01*
X75743D01*
X74772Y113513D01*
X74744Y113467D01*
X74707Y113430D01*
X74666Y113413D01*
X74678Y113378D01*
X74687Y113331D01*
Y113322D01*
Y113313D01*
X74678Y113220D01*
X74650Y113156D01*
X74604Y113110D01*
X74558Y113082D01*
X74511Y113063D01*
X74465Y113045D01*
X74428D01*
X74354Y113054D01*
X74290Y113082D01*
X74253Y113110D01*
X74243Y113119D01*
X73633Y113729D01*
Y109633D01*
X73624Y109550D01*
X73596Y109485D01*
X73550Y109439D01*
X73504Y109411D01*
X73457Y109393D01*
X73411Y109374D01*
X73374D01*
X73282Y109383D01*
X73217Y109411D01*
X73171Y109457D01*
X73143Y109504D01*
X73115Y109550D01*
X73106Y109596D01*
Y109624D01*
Y109633D01*
Y114192D01*
X73089Y114151D01*
X73015Y114012D01*
X72951Y113901D01*
X72886Y113827D01*
X72849Y113772D01*
X72830Y113753D01*
X72682Y113624D01*
X72516Y113531D01*
X72368Y113467D01*
X72220Y113420D01*
X72091Y113393D01*
X71989Y113384D01*
X71952Y113374D01*
X71897D01*
X71702Y113393D01*
X71527Y113430D01*
X71370Y113494D01*
X71231Y113568D01*
X71120Y113633D01*
X71037Y113698D01*
X70991Y113735D01*
X70972Y113753D01*
X70843Y113901D01*
X70750Y114068D01*
X70676Y114216D01*
X70630Y114363D01*
X70602Y114493D01*
X70593Y114595D01*
X70584Y114632D01*
Y114659D01*
Y114678D01*
Y114687D01*
Y114807D01*
Y114909D01*
X70593Y115011D01*
Y115103D01*
X70602Y115251D01*
X70612Y115371D01*
X70621Y115455D01*
X70630Y115510D01*
X70639Y115547D01*
Y115556D01*
X70686Y115704D01*
X70750Y115843D01*
X70824Y115963D01*
X70907Y116065D01*
X70981Y116148D01*
X71046Y116203D01*
X71092Y116250D01*
X71111Y116259D01*
X71018Y116333D01*
X70935Y116416D01*
X70870Y116509D01*
X70806Y116592D01*
X70750Y116684D01*
X70713Y116767D01*
X70648Y116934D01*
X70612Y117082D01*
X70602Y117147D01*
X70593Y117202D01*
X70584Y117248D01*
Y117285D01*
Y117304D01*
Y117313D01*
X70602Y117507D01*
X70648Y117683D01*
X70704Y117840D01*
X70778Y117979D01*
X70852Y118090D01*
X70907Y118173D01*
X70954Y118219D01*
X70972Y118237D01*
X71120Y118367D01*
X71277Y118459D01*
X71434Y118533D01*
X71582Y118580D01*
X71702Y118607D01*
X71804Y118617D01*
X71841Y118626D01*
X71897D01*
X72091Y118607D01*
X72276Y118561D01*
X72433Y118506D01*
X72572Y118432D01*
X72682Y118358D01*
X72757Y118302D01*
X72812Y118256D01*
X72830Y118237D01*
X72960Y118090D01*
X73052Y117932D01*
X73117Y117775D01*
X73163Y117627D01*
X73191Y117507D01*
X73200Y117405D01*
X73210Y117368D01*
Y117341D01*
Y117322D01*
Y117313D01*
X73200Y117193D01*
X73191Y117082D01*
X73126Y116869D01*
X73043Y116693D01*
X72951Y116536D01*
X72858Y116416D01*
X72775Y116333D01*
X72710Y116277D01*
X72701Y116268D01*
X72692Y116259D01*
X72784Y116185D01*
X72858Y116102D01*
X72932Y116018D01*
X72988Y115926D01*
X73080Y115750D01*
X73145Y115584D01*
X73182Y115436D01*
X73191Y115371D01*
X73200Y115316D01*
X73210Y115270D01*
Y115233D01*
Y115214D01*
Y115205D01*
Y114687D01*
X73198Y114566D01*
X73236Y114589D01*
X73291Y114616D01*
X73328Y114626D01*
X73411D01*
X73457Y114607D01*
X73522Y114579D01*
X73569Y114543D01*
X73578Y114533D01*
X73587Y114524D01*
X74320Y113791D01*
X75216Y115584D01*
X75049Y115667D01*
X74901Y115760D01*
X74772Y115861D01*
X74661Y115972D01*
X74569Y116093D01*
X74495Y116213D01*
X74430Y116333D01*
X74384Y116453D01*
X74347Y116573D01*
X74310Y116684D01*
X74291Y116786D01*
X74282Y116869D01*
X74273Y116943D01*
X74264Y116999D01*
Y117036D01*
Y117045D01*
X74273Y117165D01*
X74282Y117285D01*
X74338Y117498D01*
X74411Y117692D01*
X74495Y117849D01*
X74578Y117979D01*
X74615Y118034D01*
X74652Y118080D01*
X74680Y118117D01*
X74707Y118145D01*
X74717Y118154D01*
X74726Y118163D01*
X74818Y118247D01*
X74911Y118321D01*
X75003Y118376D01*
X75096Y118432D01*
X75280Y118515D01*
X75456Y118570D01*
X75613Y118598D01*
X75678Y118617D01*
X75734D01*
X75780Y118626D01*
X77157D01*
X77241Y118617D01*
D02*
G37*
G36*
X94241Y119616D02*
X94305Y119589D01*
X94352Y119543D01*
X94379Y119496D01*
X94398Y119441D01*
X94416Y119404D01*
Y119367D01*
Y119358D01*
Y114633D01*
X94407Y114550D01*
X94379Y114485D01*
X94333Y114439D01*
X94287Y114411D01*
X94241Y114393D01*
X94194Y114374D01*
X94157D01*
X94065Y114383D01*
X94000Y114411D01*
X93954Y114458D01*
X93926Y114504D01*
X93898Y114550D01*
X93889Y114596D01*
Y114624D01*
Y114633D01*
Y116473D01*
X92743D01*
X91772Y114513D01*
X91744Y114467D01*
X91707Y114430D01*
X91661Y114411D01*
X91624Y114393D01*
X91587Y114383D01*
X91559Y114374D01*
X91532D01*
X91458Y114383D01*
X91402Y114411D01*
X91365Y114439D01*
X91347Y114448D01*
X91300Y114513D01*
X91273Y114568D01*
X91264Y114615D01*
Y114633D01*
X91273Y114679D01*
X91282Y114716D01*
X91291Y114744D01*
X91300Y114753D01*
X92216Y116584D01*
X92049Y116667D01*
X91901Y116760D01*
X91772Y116861D01*
X91661Y116972D01*
X91569Y117093D01*
X91495Y117213D01*
X91430Y117333D01*
X91384Y117453D01*
X91347Y117573D01*
X91310Y117684D01*
X91291Y117786D01*
X91282Y117869D01*
X91273Y117943D01*
X91264Y117999D01*
Y118035D01*
Y118045D01*
X91273Y118165D01*
X91282Y118285D01*
X91337Y118498D01*
X91411Y118692D01*
X91495Y118849D01*
X91578Y118979D01*
X91615Y119034D01*
X91652Y119080D01*
X91679Y119117D01*
X91707Y119145D01*
X91716Y119154D01*
X91726Y119164D01*
X91818Y119247D01*
X91911Y119321D01*
X92003Y119376D01*
X92096Y119432D01*
X92281Y119515D01*
X92456Y119570D01*
X92613Y119598D01*
X92678Y119616D01*
X92733D01*
X92780Y119626D01*
X94157D01*
X94241Y119616D01*
D02*
G37*
G36*
X88453D02*
X88527Y119598D01*
X88582Y119570D01*
X88601Y119561D01*
X88610D01*
X88813Y119469D01*
X88998Y119348D01*
X89165Y119228D01*
X89322Y119108D01*
X89442Y118997D01*
X89535Y118905D01*
X89572Y118868D01*
X89599Y118840D01*
X89608Y118831D01*
X89618Y118821D01*
X89719Y118692D01*
X89812Y118562D01*
X89895Y118424D01*
X89960Y118294D01*
X90015Y118156D01*
X90062Y118026D01*
X90135Y117786D01*
X90163Y117675D01*
X90182Y117573D01*
X90191Y117490D01*
X90200Y117407D01*
X90210Y117342D01*
Y117296D01*
Y117268D01*
Y117259D01*
Y115678D01*
X90191Y115484D01*
X90154Y115308D01*
X90089Y115142D01*
X90015Y115012D01*
X89951Y114901D01*
X89886Y114818D01*
X89849Y114772D01*
X89830Y114753D01*
X89683Y114624D01*
X89525Y114531D01*
X89368Y114467D01*
X89220Y114420D01*
X89091Y114393D01*
X88989Y114383D01*
X88952Y114374D01*
X88897D01*
X88702Y114393D01*
X88527Y114430D01*
X88370Y114494D01*
X88231Y114568D01*
X88120Y114633D01*
X88037Y114698D01*
X87991Y114735D01*
X87972Y114753D01*
X87843Y114901D01*
X87750Y115058D01*
X87676Y115216D01*
X87630Y115364D01*
X87602Y115493D01*
X87593Y115595D01*
X87584Y115632D01*
Y115659D01*
Y115678D01*
Y115687D01*
Y116205D01*
X87602Y116408D01*
X87639Y116584D01*
X87704Y116741D01*
X87769Y116880D01*
X87843Y116991D01*
X87907Y117074D01*
X87944Y117120D01*
X87963Y117139D01*
X88111Y117268D01*
X88268Y117361D01*
X88425Y117435D01*
X88573Y117481D01*
X88702Y117508D01*
X88804Y117518D01*
X88841Y117527D01*
X89664D01*
X89627Y117703D01*
X89581Y117869D01*
X89516Y118017D01*
X89442Y118156D01*
X89377Y118267D01*
X89322Y118359D01*
X89285Y118415D01*
X89266Y118424D01*
Y118433D01*
X89183Y118535D01*
X89100Y118627D01*
X88924Y118775D01*
X88749Y118895D01*
X88591Y118997D01*
X88453Y119062D01*
X88388Y119080D01*
X88342Y119108D01*
X88296Y119117D01*
X88268Y119127D01*
X88249Y119136D01*
X88240D01*
X88194Y119154D01*
X88166Y119182D01*
X88129Y119256D01*
X88120Y119293D01*
X88111Y119330D01*
Y119348D01*
Y119358D01*
X88120Y119450D01*
X88148Y119515D01*
X88194Y119561D01*
X88240Y119589D01*
X88296Y119616D01*
X88333Y119626D01*
X88379D01*
X88453Y119616D01*
D02*
G37*
G36*
X99930Y208384D02*
X99995Y208356D01*
X100041Y208310D01*
X100069Y208264D01*
X100087Y208209D01*
X100106Y208172D01*
Y208135D01*
Y208125D01*
Y203401D01*
X100097Y203318D01*
X100069Y203253D01*
X100023Y203207D01*
X99977Y203179D01*
X99930Y203160D01*
X99884Y203142D01*
X99847D01*
X99755Y203151D01*
X99690Y203179D01*
X99644Y203225D01*
X99616Y203271D01*
X99588Y203318D01*
X99579Y203364D01*
Y203392D01*
Y203401D01*
Y205241D01*
X98433D01*
X97462Y203281D01*
X97434Y203234D01*
X97397Y203197D01*
X97351Y203179D01*
X97314Y203160D01*
X97277Y203151D01*
X97249Y203142D01*
X97221D01*
X97147Y203151D01*
X97092Y203179D01*
X97055Y203207D01*
X97036Y203216D01*
X96990Y203281D01*
X96962Y203336D01*
X96953Y203382D01*
Y203401D01*
X96962Y203447D01*
X96972Y203484D01*
X96981Y203512D01*
X96990Y203521D01*
X97906Y205352D01*
X97739Y205435D01*
X97591Y205527D01*
X97462Y205629D01*
X97351Y205740D01*
X97258Y205860D01*
X97184Y205980D01*
X97120Y206101D01*
X97073Y206221D01*
X97036Y206341D01*
X97000Y206452D01*
X96981Y206554D01*
X96972Y206637D01*
X96962Y206711D01*
X96953Y206766D01*
Y206803D01*
Y206812D01*
X96962Y206933D01*
X96972Y207053D01*
X97027Y207265D01*
X97101Y207460D01*
X97184Y207617D01*
X97268Y207746D01*
X97305Y207802D01*
X97341Y207848D01*
X97369Y207885D01*
X97397Y207913D01*
X97406Y207922D01*
X97416Y207931D01*
X97508Y208014D01*
X97600Y208088D01*
X97693Y208144D01*
X97785Y208199D01*
X97970Y208283D01*
X98146Y208338D01*
X98303Y208366D01*
X98368Y208384D01*
X98423D01*
X98469Y208393D01*
X99847D01*
X99930Y208384D01*
D02*
G37*
G36*
X95724D02*
X95788Y208356D01*
X95835Y208310D01*
X95862Y208264D01*
X95881Y208209D01*
X95899Y208172D01*
Y208135D01*
Y208125D01*
Y206027D01*
X95890Y205943D01*
X95862Y205879D01*
X95816Y205833D01*
X95770Y205805D01*
X95724Y205786D01*
X95677Y205768D01*
X94586D01*
X94466Y205758D01*
X94365Y205731D01*
X94272Y205694D01*
X94189Y205657D01*
X94124Y205611D01*
X94069Y205574D01*
X94041Y205546D01*
X94032Y205537D01*
X93958Y205444D01*
X93902Y205352D01*
X93856Y205259D01*
X93828Y205167D01*
X93810Y205093D01*
X93800Y205028D01*
Y204991D01*
Y204973D01*
Y204455D01*
X93810Y204335D01*
X93837Y204224D01*
X93874Y204131D01*
X93911Y204048D01*
X93958Y203983D01*
X93995Y203937D01*
X94022Y203900D01*
X94032Y203891D01*
X94124Y203817D01*
X94216Y203761D01*
X94309Y203724D01*
X94392Y203697D01*
X94475Y203678D01*
X94531Y203669D01*
X95640D01*
X95724Y203660D01*
X95788Y203632D01*
X95835Y203586D01*
X95862Y203540D01*
X95881Y203484D01*
X95899Y203447D01*
Y203410D01*
Y203401D01*
X95890Y203318D01*
X95862Y203253D01*
X95816Y203207D01*
X95770Y203179D01*
X95724Y203160D01*
X95677Y203142D01*
X94586D01*
X94392Y203160D01*
X94216Y203197D01*
X94059Y203262D01*
X93921Y203336D01*
X93810Y203401D01*
X93727Y203466D01*
X93680Y203503D01*
X93662Y203521D01*
X93532Y203669D01*
X93440Y203835D01*
X93366Y203983D01*
X93320Y204131D01*
X93292Y204261D01*
X93283Y204362D01*
X93273Y204399D01*
Y204427D01*
Y204446D01*
Y204455D01*
Y204973D01*
X93292Y205167D01*
X93338Y205352D01*
X93394Y205509D01*
X93468Y205648D01*
X93542Y205758D01*
X93597Y205842D01*
X93643Y205888D01*
X93662Y205906D01*
X93810Y206036D01*
X93967Y206128D01*
X94124Y206202D01*
X94263Y206248D01*
X94392Y206276D01*
X94494Y206285D01*
X94531Y206295D01*
X95372D01*
Y207866D01*
X93800D01*
X93708Y207876D01*
X93643Y207903D01*
X93597Y207950D01*
X93569Y207996D01*
X93542Y208042D01*
X93532Y208088D01*
Y208116D01*
Y208125D01*
X93542Y208218D01*
X93569Y208283D01*
X93616Y208329D01*
X93662Y208356D01*
X93717Y208384D01*
X93754Y208393D01*
X95640D01*
X95724Y208384D01*
D02*
G37*
G36*
X45629Y229212D02*
X45694Y229194D01*
X45731Y229157D01*
X45768Y229129D01*
X45795Y229092D01*
X45814Y229055D01*
X45823Y229037D01*
Y229027D01*
X46877Y225357D01*
Y225311D01*
Y225292D01*
Y225283D01*
X46868Y225200D01*
X46840Y225135D01*
X46794Y225089D01*
X46748Y225061D01*
X46702Y225042D01*
X46655Y225024D01*
X45037D01*
Y224229D01*
X45028Y224146D01*
X45000Y224081D01*
X44954Y224035D01*
X44908Y224007D01*
X44862Y223988D01*
X44816Y223970D01*
X44778D01*
X44686Y223979D01*
X44621Y224007D01*
X44575Y224053D01*
X44547Y224099D01*
X44520Y224146D01*
X44510Y224192D01*
Y224220D01*
Y224229D01*
Y225024D01*
X43993D01*
X43900Y225033D01*
X43835Y225061D01*
X43789Y225107D01*
X43762Y225153D01*
X43734Y225200D01*
X43724Y225246D01*
Y225274D01*
Y225283D01*
X43734Y225375D01*
X43762Y225440D01*
X43808Y225486D01*
X43854Y225514D01*
X43909Y225542D01*
X43946Y225551D01*
X44510D01*
Y226337D01*
X44520Y226429D01*
X44547Y226494D01*
X44594Y226540D01*
X44640Y226568D01*
X44695Y226596D01*
X44732Y226605D01*
X44778D01*
X44862Y226596D01*
X44926Y226568D01*
X44973Y226522D01*
X45000Y226476D01*
X45019Y226420D01*
X45037Y226383D01*
Y226346D01*
Y226337D01*
Y225551D01*
X46267D01*
X45315Y228879D01*
X45306Y228935D01*
Y228944D01*
Y228953D01*
X45315Y229046D01*
X45342Y229111D01*
X45389Y229157D01*
X45435Y229184D01*
X45481Y229212D01*
X45527Y229221D01*
X45564D01*
X45629Y229212D01*
D02*
G37*
G36*
X50908D02*
X50973Y229184D01*
X51019Y229138D01*
X51047Y229092D01*
X51066Y229037D01*
X51084Y229000D01*
Y228963D01*
Y228953D01*
Y224229D01*
X51075Y224146D01*
X51047Y224081D01*
X51001Y224035D01*
X50954Y224007D01*
X50908Y223988D01*
X50862Y223970D01*
X50825D01*
X50733Y223979D01*
X50668Y224007D01*
X50622Y224053D01*
X50594Y224099D01*
X50566Y224146D01*
X50557Y224192D01*
Y224220D01*
Y224229D01*
Y226069D01*
X49411D01*
X48440Y224109D01*
X48412Y224062D01*
X48375Y224025D01*
X48329Y224007D01*
X48292Y223988D01*
X48255Y223979D01*
X48227Y223970D01*
X48199D01*
X48125Y223979D01*
X48070Y224007D01*
X48033Y224035D01*
X48014Y224044D01*
X47968Y224109D01*
X47941Y224164D01*
X47931Y224210D01*
Y224229D01*
X47941Y224275D01*
X47950Y224312D01*
X47959Y224340D01*
X47968Y224349D01*
X48884Y226180D01*
X48717Y226263D01*
X48569Y226355D01*
X48440Y226457D01*
X48329Y226568D01*
X48236Y226688D01*
X48162Y226808D01*
X48098Y226929D01*
X48051Y227049D01*
X48014Y227169D01*
X47977Y227280D01*
X47959Y227382D01*
X47950Y227465D01*
X47941Y227539D01*
X47931Y227594D01*
Y227631D01*
Y227640D01*
X47941Y227761D01*
X47950Y227881D01*
X48005Y228093D01*
X48079Y228288D01*
X48162Y228445D01*
X48246Y228574D01*
X48283Y228630D01*
X48320Y228676D01*
X48347Y228713D01*
X48375Y228741D01*
X48384Y228750D01*
X48394Y228759D01*
X48486Y228842D01*
X48578Y228916D01*
X48671Y228972D01*
X48763Y229027D01*
X48948Y229111D01*
X49124Y229166D01*
X49281Y229194D01*
X49346Y229212D01*
X49401D01*
X49447Y229221D01*
X50825D01*
X50908Y229212D01*
D02*
G37*
G36*
X75204Y228695D02*
X75269Y228667D01*
X75315Y228630D01*
X75324Y228621D01*
X75333Y228612D01*
X76360Y227586D01*
X76406Y227521D01*
X76424Y227465D01*
X76434Y227419D01*
Y227410D01*
Y227401D01*
X76424Y227308D01*
X76396Y227243D01*
X76350Y227197D01*
X76304Y227169D01*
X76258Y227151D01*
X76212Y227132D01*
X76175D01*
X76101Y227142D01*
X76036Y227169D01*
X75999Y227197D01*
X75990Y227206D01*
X75380Y227817D01*
Y223721D01*
X75370Y223638D01*
X75342Y223573D01*
X75296Y223527D01*
X75250Y223499D01*
X75204Y223480D01*
X75158Y223462D01*
X75121D01*
X75028Y223471D01*
X74963Y223499D01*
X74917Y223545D01*
X74889Y223591D01*
X74862Y223638D01*
X74852Y223684D01*
Y223712D01*
Y223721D01*
Y228445D01*
X74862Y228538D01*
X74889Y228603D01*
X74936Y228649D01*
X74982Y228676D01*
X75037Y228704D01*
X75074Y228713D01*
X75158D01*
X75204Y228695D01*
D02*
G37*
G36*
X85198Y228704D02*
X85263Y228676D01*
X85309Y228630D01*
X85337Y228584D01*
X85356Y228529D01*
X85374Y228492D01*
Y228455D01*
Y228445D01*
Y223721D01*
X85365Y223638D01*
X85337Y223573D01*
X85291Y223527D01*
X85245Y223499D01*
X85198Y223480D01*
X85152Y223462D01*
X83543D01*
X83349Y223480D01*
X83164Y223517D01*
X83007Y223582D01*
X82868Y223656D01*
X82758Y223721D01*
X82674Y223786D01*
X82628Y223823D01*
X82610Y223841D01*
X82480Y223989D01*
X82388Y224155D01*
X82314Y224303D01*
X82268Y224451D01*
X82240Y224581D01*
X82231Y224682D01*
X82221Y224719D01*
Y224747D01*
Y224766D01*
Y224775D01*
Y227401D01*
X82240Y227595D01*
X82286Y227780D01*
X82341Y227937D01*
X82415Y228066D01*
X82489Y228177D01*
X82545Y228260D01*
X82591Y228307D01*
X82610Y228325D01*
X82758Y228455D01*
X82915Y228547D01*
X83072Y228621D01*
X83220Y228667D01*
X83349Y228695D01*
X83451Y228704D01*
X83488Y228713D01*
X85115D01*
X85198Y228704D01*
D02*
G37*
G36*
X79401D02*
X79457Y228676D01*
X79503Y228649D01*
X79531Y228612D01*
X79559Y228566D01*
X79577Y228538D01*
X79595Y228510D01*
Y228501D01*
X81158Y223804D01*
X81167Y223749D01*
Y223730D01*
Y223721D01*
X81158Y223638D01*
X81130Y223573D01*
X81084Y223527D01*
X81038Y223499D01*
X80992Y223480D01*
X80945Y223462D01*
X80908D01*
X80844Y223471D01*
X80788Y223490D01*
X80751Y223517D01*
X80714Y223554D01*
X80668Y223610D01*
X80659Y223628D01*
Y223638D01*
X80280Y224775D01*
X78384D01*
X78005Y223638D01*
X77977Y223582D01*
X77941Y223536D01*
X77894Y223508D01*
X77857Y223480D01*
X77820Y223471D01*
X77783Y223462D01*
X77756D01*
X77672Y223471D01*
X77608Y223499D01*
X77561Y223545D01*
X77524Y223591D01*
X77506Y223638D01*
X77497Y223684D01*
Y223712D01*
Y223721D01*
Y223776D01*
X77506Y223795D01*
Y223804D01*
X79078Y228510D01*
X79106Y228575D01*
X79142Y228630D01*
X79189Y228667D01*
X79235Y228686D01*
X79272Y228704D01*
X79309Y228713D01*
X79337D01*
X79401Y228704D01*
D02*
G37*
G36*
X70115Y182222D02*
X70254Y182194D01*
X70383Y182148D01*
X70513Y182084D01*
X70624Y182010D01*
X70725Y181936D01*
X70827Y181852D01*
X70920Y181760D01*
X70994Y181677D01*
X71068Y181584D01*
X71123Y181510D01*
X71169Y181436D01*
X71216Y181372D01*
X71243Y181325D01*
X71252Y181298D01*
X71262Y181288D01*
X71280Y181215D01*
Y181187D01*
Y181178D01*
X71271Y181094D01*
X71243Y181030D01*
X71197Y180983D01*
X71151Y180956D01*
X71105Y180937D01*
X71058Y180919D01*
X71021D01*
X70966Y180928D01*
X70920Y180937D01*
X70855Y180983D01*
X70809Y181030D01*
X70799Y181039D01*
Y181048D01*
X70725Y181168D01*
X70651Y181261D01*
X70587Y181353D01*
X70513Y181427D01*
X70439Y181492D01*
X70374Y181547D01*
X70309Y181584D01*
X70245Y181621D01*
X70134Y181667D01*
X70051Y181695D01*
X69995Y181705D01*
X69977D01*
X69856Y181695D01*
X69745Y181667D01*
X69653Y181630D01*
X69570Y181593D01*
X69505Y181547D01*
X69450Y181510D01*
X69422Y181483D01*
X69413Y181473D01*
X69339Y181381D01*
X69283Y181288D01*
X69237Y181196D01*
X69209Y181113D01*
X69191Y181030D01*
X69181Y180974D01*
Y180937D01*
Y180919D01*
X69191Y180835D01*
X69200Y180761D01*
X69219Y180688D01*
X69246Y180623D01*
X69274Y180567D01*
X69292Y180521D01*
X69302Y180493D01*
X69311Y180484D01*
X71243Y177387D01*
X71262Y177341D01*
X71271Y177285D01*
X71280Y177257D01*
Y177239D01*
X71271Y177156D01*
X71243Y177091D01*
X71197Y177045D01*
X71151Y177017D01*
X71105Y176999D01*
X71058Y176980D01*
X68923D01*
X68830Y176989D01*
X68765Y177017D01*
X68719Y177063D01*
X68692Y177109D01*
X68664Y177156D01*
X68654Y177202D01*
Y177230D01*
Y177239D01*
X68664Y177331D01*
X68692Y177396D01*
X68738Y177442D01*
X68784Y177470D01*
X68839Y177498D01*
X68876Y177507D01*
X70550D01*
X68895Y180161D01*
X68812Y180299D01*
X68756Y180438D01*
X68710Y180567D01*
X68682Y180678D01*
X68664Y180780D01*
X68654Y180854D01*
Y180900D01*
Y180919D01*
X68673Y181113D01*
X68719Y181288D01*
X68775Y181446D01*
X68849Y181584D01*
X68923Y181695D01*
X68978Y181779D01*
X69024Y181825D01*
X69043Y181843D01*
X69191Y181973D01*
X69348Y182065D01*
X69505Y182139D01*
X69653Y182185D01*
X69773Y182213D01*
X69875Y182222D01*
X69912Y182232D01*
X69967D01*
X70115Y182222D01*
D02*
G37*
G36*
X73841Y182213D02*
X74026Y182167D01*
X74183Y182111D01*
X74322Y182037D01*
X74433Y181963D01*
X74507Y181908D01*
X74562Y181862D01*
X74581Y181843D01*
X74710Y181695D01*
X74803Y181538D01*
X74868Y181381D01*
X74914Y181233D01*
X74942Y181113D01*
X74951Y181011D01*
X74960Y180974D01*
Y180946D01*
Y180928D01*
Y180919D01*
Y178293D01*
X74942Y178099D01*
X74904Y177914D01*
X74840Y177757D01*
X74766Y177618D01*
X74701Y177507D01*
X74636Y177433D01*
X74599Y177377D01*
X74581Y177359D01*
X74433Y177230D01*
X74267Y177137D01*
X74119Y177072D01*
X73971Y177026D01*
X73841Y176999D01*
X73740Y176989D01*
X73703Y176980D01*
X72602D01*
X72510Y176989D01*
X72445Y177017D01*
X72399Y177063D01*
X72371Y177109D01*
X72344Y177156D01*
X72334Y177202D01*
Y177230D01*
Y177239D01*
X72344Y177331D01*
X72371Y177396D01*
X72417Y177442D01*
X72464Y177470D01*
X72519Y177498D01*
X72556Y177507D01*
X73647D01*
X73767Y177516D01*
X73878Y177544D01*
X73971Y177581D01*
X74054Y177618D01*
X74119Y177655D01*
X74165Y177692D01*
X74202Y177720D01*
X74211Y177729D01*
X74285Y177821D01*
X74341Y177914D01*
X74377Y178006D01*
X74405Y178099D01*
X74424Y178173D01*
X74433Y178237D01*
Y178274D01*
Y178293D01*
Y180909D01*
X74424Y181030D01*
X74396Y181140D01*
X74359Y181233D01*
X74322Y181316D01*
X74285Y181381D01*
X74248Y181436D01*
X74220Y181464D01*
X74211Y181473D01*
X74119Y181547D01*
X74026Y181603D01*
X73934Y181649D01*
X73841Y181677D01*
X73767Y181695D01*
X73703Y181705D01*
X72602D01*
X72510Y181714D01*
X72445Y181742D01*
X72399Y181788D01*
X72371Y181834D01*
X72344Y181880D01*
X72334Y181926D01*
Y181954D01*
Y181963D01*
X72344Y182056D01*
X72371Y182120D01*
X72417Y182167D01*
X72464Y182194D01*
X72519Y182222D01*
X72556Y182232D01*
X73647D01*
X73841Y182213D01*
D02*
G37*
G36*
X6428Y229419D02*
X6493Y229391D01*
X6539Y229354D01*
X6549Y229345D01*
X6558Y229336D01*
X7584Y228309D01*
X7631Y228245D01*
X7649Y228189D01*
X7658Y228143D01*
Y228134D01*
Y228125D01*
X7649Y228032D01*
X7621Y227967D01*
X7575Y227921D01*
X7529Y227894D01*
X7483Y227875D01*
X7436Y227857D01*
X7399D01*
X7325Y227866D01*
X7261Y227894D01*
X7224Y227921D01*
X7214Y227931D01*
X6604Y228541D01*
Y224445D01*
X6595Y224362D01*
X6567Y224297D01*
X6521Y224251D01*
X6475Y224223D01*
X6428Y224205D01*
X6382Y224186D01*
X6345D01*
X6253Y224195D01*
X6188Y224223D01*
X6142Y224269D01*
X6114Y224315D01*
X6086Y224362D01*
X6077Y224408D01*
Y224436D01*
Y224445D01*
Y229169D01*
X6086Y229262D01*
X6114Y229326D01*
X6160Y229373D01*
X6207Y229401D01*
X6262Y229428D01*
X6299Y229438D01*
X6382D01*
X6428Y229419D01*
D02*
G37*
G36*
X10219D02*
X10404Y229373D01*
X10561Y229317D01*
X10700Y229243D01*
X10811Y229169D01*
X10885Y229114D01*
X10940Y229068D01*
X10959Y229049D01*
X11088Y228901D01*
X11181Y228744D01*
X11245Y228587D01*
X11292Y228439D01*
X11320Y228319D01*
X11329Y228217D01*
X11338Y228180D01*
Y228152D01*
Y228134D01*
Y228125D01*
Y225499D01*
X11320Y225305D01*
X11283Y225120D01*
X11218Y224963D01*
X11144Y224824D01*
X11079Y224713D01*
X11014Y224639D01*
X10977Y224583D01*
X10959Y224565D01*
X10811Y224436D01*
X10645Y224343D01*
X10497Y224278D01*
X10349Y224232D01*
X10219Y224205D01*
X10117Y224195D01*
X10080Y224186D01*
X8980D01*
X8888Y224195D01*
X8823Y224223D01*
X8777Y224269D01*
X8749Y224315D01*
X8721Y224362D01*
X8712Y224408D01*
Y224436D01*
Y224445D01*
X8721Y224537D01*
X8749Y224602D01*
X8795Y224648D01*
X8842Y224676D01*
X8897Y224704D01*
X8934Y224713D01*
X10025D01*
X10145Y224722D01*
X10256Y224750D01*
X10349Y224787D01*
X10432Y224824D01*
X10497Y224861D01*
X10543Y224898D01*
X10580Y224926D01*
X10589Y224935D01*
X10663Y225027D01*
X10718Y225120D01*
X10755Y225212D01*
X10783Y225305D01*
X10802Y225379D01*
X10811Y225443D01*
Y225480D01*
Y225499D01*
Y228115D01*
X10802Y228236D01*
X10774Y228347D01*
X10737Y228439D01*
X10700Y228522D01*
X10663Y228587D01*
X10626Y228642D01*
X10598Y228670D01*
X10589Y228679D01*
X10497Y228753D01*
X10404Y228809D01*
X10312Y228855D01*
X10219Y228883D01*
X10145Y228901D01*
X10080Y228911D01*
X8980D01*
X8888Y228920D01*
X8823Y228948D01*
X8777Y228994D01*
X8749Y229040D01*
X8721Y229086D01*
X8712Y229132D01*
Y229160D01*
Y229169D01*
X8721Y229262D01*
X8749Y229326D01*
X8795Y229373D01*
X8842Y229401D01*
X8897Y229428D01*
X8934Y229438D01*
X10025D01*
X10219Y229419D01*
D02*
G37*
%LPC*%
G36*
X99579Y228694D02*
X98534D01*
X98377Y228685D01*
X98229Y228648D01*
X98100Y228602D01*
X97989Y228547D01*
X97906Y228482D01*
X97841Y228436D01*
X97795Y228399D01*
X97785Y228389D01*
X97684Y228269D01*
X97610Y228140D01*
X97554Y228020D01*
X97517Y227899D01*
X97499Y227798D01*
X97480Y227715D01*
Y227659D01*
Y227650D01*
Y227640D01*
X97490Y227483D01*
X97526Y227335D01*
X97573Y227206D01*
X97628Y227104D01*
X97693Y227012D01*
X97739Y226947D01*
X97776Y226910D01*
X97785Y226892D01*
X97906Y226790D01*
X98035Y226725D01*
X98155Y226670D01*
X98275Y226633D01*
X98377Y226614D01*
X98460Y226605D01*
X98516Y226596D01*
X99579D01*
Y228694D01*
D02*
G37*
G36*
X94642D02*
X94586D01*
X94466Y228685D01*
X94365Y228657D01*
X94272Y228620D01*
X94189Y228584D01*
X94124Y228537D01*
X94069Y228500D01*
X94041Y228473D01*
X94032Y228463D01*
X93958Y228371D01*
X93902Y228278D01*
X93856Y228186D01*
X93828Y228093D01*
X93810Y228020D01*
X93800Y227955D01*
Y227918D01*
Y227899D01*
Y226596D01*
X94586D01*
X94706Y226605D01*
X94817Y226633D01*
X94910Y226670D01*
X94993Y226707D01*
X95058Y226744D01*
X95104Y226781D01*
X95141Y226808D01*
X95150Y226818D01*
X95224Y226910D01*
X95280Y227003D01*
X95317Y227095D01*
X95344Y227188D01*
X95363Y227261D01*
X95372Y227326D01*
Y227363D01*
Y227382D01*
Y227899D01*
X95363Y228020D01*
X95335Y228130D01*
X95298Y228223D01*
X95261Y228306D01*
X95224Y228371D01*
X95187Y228426D01*
X95160Y228454D01*
X95150Y228463D01*
X95058Y228537D01*
X94965Y228593D01*
X94873Y228639D01*
X94781Y228667D01*
X94706Y228685D01*
X94642Y228694D01*
D02*
G37*
G36*
X71952Y118099D02*
X71897D01*
X71776Y118090D01*
X71675Y118062D01*
X71582Y118025D01*
X71499Y117988D01*
X71434Y117942D01*
X71379Y117905D01*
X71351Y117877D01*
X71342Y117868D01*
X71268Y117775D01*
X71213Y117683D01*
X71166Y117590D01*
X71139Y117507D01*
X71120Y117424D01*
X71111Y117368D01*
Y117331D01*
Y117313D01*
X71120Y117193D01*
X71148Y117082D01*
X71185Y116989D01*
X71222Y116906D01*
X71268Y116841D01*
X71305Y116795D01*
X71333Y116758D01*
X71342Y116749D01*
X71434Y116675D01*
X71527Y116620D01*
X71619Y116582D01*
X71702Y116555D01*
X71786Y116536D01*
X71841Y116527D01*
X71897D01*
X72017Y116536D01*
X72128Y116564D01*
X72220Y116601D01*
X72303Y116638D01*
X72368Y116675D01*
X72414Y116712D01*
X72451Y116740D01*
X72461Y116749D01*
X72535Y116841D01*
X72590Y116934D01*
X72627Y117026D01*
X72655Y117119D01*
X72673Y117193D01*
X72682Y117257D01*
Y117294D01*
Y117313D01*
X72673Y117433D01*
X72646Y117535D01*
X72608Y117627D01*
X72572Y117710D01*
X72535Y117775D01*
X72498Y117831D01*
X72470Y117858D01*
X72461Y117868D01*
X72368Y117942D01*
X72276Y117997D01*
X72183Y118043D01*
X72091Y118071D01*
X72017Y118090D01*
X71952Y118099D01*
D02*
G37*
G36*
X76889D02*
X75844D01*
X75687Y118090D01*
X75539Y118053D01*
X75410Y118006D01*
X75299Y117951D01*
X75216Y117886D01*
X75151Y117840D01*
X75105Y117803D01*
X75096Y117794D01*
X74994Y117674D01*
X74920Y117544D01*
X74865Y117424D01*
X74827Y117304D01*
X74809Y117202D01*
X74791Y117119D01*
Y117063D01*
Y117054D01*
Y117045D01*
X74800Y116888D01*
X74837Y116740D01*
X74883Y116610D01*
X74938Y116509D01*
X75003Y116416D01*
X75049Y116351D01*
X75086Y116314D01*
X75096Y116296D01*
X75216Y116194D01*
X75345Y116129D01*
X75465Y116074D01*
X75586Y116037D01*
X75687Y116018D01*
X75771Y116009D01*
X75826Y116000D01*
X76889D01*
Y118099D01*
D02*
G37*
G36*
X71952Y116000D02*
X71897D01*
X71776Y115991D01*
X71675Y115963D01*
X71582Y115926D01*
X71499Y115889D01*
X71434Y115843D01*
X71379Y115806D01*
X71351Y115778D01*
X71342Y115769D01*
X71268Y115676D01*
X71213Y115584D01*
X71166Y115492D01*
X71139Y115399D01*
X71120Y115325D01*
X71111Y115260D01*
Y115223D01*
Y115205D01*
Y114687D01*
X71120Y114567D01*
X71148Y114456D01*
X71185Y114363D01*
X71222Y114280D01*
X71268Y114216D01*
X71305Y114169D01*
X71333Y114132D01*
X71342Y114123D01*
X71434Y114049D01*
X71527Y113994D01*
X71619Y113957D01*
X71702Y113929D01*
X71786Y113911D01*
X71841Y113901D01*
X71897D01*
X72017Y113911D01*
X72128Y113938D01*
X72220Y113975D01*
X72303Y114012D01*
X72368Y114049D01*
X72414Y114086D01*
X72451Y114114D01*
X72461Y114123D01*
X72535Y114216D01*
X72590Y114308D01*
X72627Y114401D01*
X72655Y114493D01*
X72673Y114567D01*
X72682Y114632D01*
Y114669D01*
Y114687D01*
Y115205D01*
X72673Y115325D01*
X72646Y115436D01*
X72608Y115528D01*
X72572Y115612D01*
X72535Y115676D01*
X72498Y115732D01*
X72470Y115760D01*
X72461Y115769D01*
X72368Y115843D01*
X72276Y115898D01*
X72183Y115944D01*
X72091Y115972D01*
X72017Y115991D01*
X71952Y116000D01*
D02*
G37*
G36*
X78367Y114099D02*
X77416D01*
Y113633D01*
X77407Y113550D01*
X77379Y113485D01*
X77333Y113439D01*
X77287Y113411D01*
X77241Y113393D01*
X77194Y113374D01*
X77157D01*
X77065Y113384D01*
X77000Y113411D01*
X76954Y113457D01*
X76926Y113504D01*
X76898Y113550D01*
X76889Y113596D01*
Y113624D01*
Y113633D01*
Y114076D01*
X76832Y114062D01*
X76740Y114025D01*
X76656Y113988D01*
X76592Y113942D01*
X76536Y113905D01*
X76509Y113877D01*
X76499Y113868D01*
X76425Y113775D01*
X76370Y113683D01*
X76324Y113590D01*
X76296Y113498D01*
X76277Y113424D01*
X76268Y113359D01*
Y113322D01*
Y113304D01*
Y110687D01*
X76277Y110567D01*
X76305Y110456D01*
X76342Y110364D01*
X76379Y110280D01*
X76425Y110216D01*
X76462Y110169D01*
X76490Y110132D01*
X76499Y110123D01*
X76592Y110049D01*
X76684Y109994D01*
X76777Y109957D01*
X76869Y109929D01*
X76943Y109910D01*
X77008Y109901D01*
X78367D01*
Y114099D01*
D02*
G37*
G36*
X93889Y119099D02*
X92844D01*
X92687Y119089D01*
X92539Y119052D01*
X92410Y119006D01*
X92299Y118951D01*
X92216Y118886D01*
X92151Y118840D01*
X92105Y118803D01*
X92096Y118794D01*
X91994Y118673D01*
X91920Y118544D01*
X91865Y118424D01*
X91827Y118304D01*
X91809Y118202D01*
X91791Y118119D01*
Y118063D01*
Y118054D01*
Y118045D01*
X91800Y117888D01*
X91837Y117740D01*
X91883Y117610D01*
X91938Y117508D01*
X92003Y117416D01*
X92049Y117351D01*
X92086Y117314D01*
X92096Y117296D01*
X92216Y117194D01*
X92345Y117129D01*
X92465Y117074D01*
X92586Y117037D01*
X92687Y117018D01*
X92771Y117009D01*
X92826Y117000D01*
X93889D01*
Y119099D01*
D02*
G37*
G36*
X89683Y117000D02*
X88897D01*
X88776Y116991D01*
X88675Y116963D01*
X88582Y116926D01*
X88499Y116889D01*
X88434Y116843D01*
X88379Y116806D01*
X88351Y116778D01*
X88342Y116769D01*
X88268Y116676D01*
X88212Y116584D01*
X88166Y116491D01*
X88139Y116399D01*
X88120Y116325D01*
X88111Y116260D01*
Y116223D01*
Y116205D01*
Y115687D01*
X88120Y115567D01*
X88148Y115456D01*
X88185Y115364D01*
X88222Y115280D01*
X88268Y115216D01*
X88305Y115169D01*
X88333Y115132D01*
X88342Y115123D01*
X88434Y115049D01*
X88527Y114994D01*
X88619Y114957D01*
X88702Y114929D01*
X88786Y114910D01*
X88841Y114901D01*
X88897D01*
X89017Y114910D01*
X89128Y114938D01*
X89220Y114975D01*
X89303Y115012D01*
X89368Y115049D01*
X89414Y115086D01*
X89451Y115114D01*
X89461Y115123D01*
X89535Y115216D01*
X89590Y115308D01*
X89627Y115400D01*
X89655Y115493D01*
X89673Y115567D01*
X89683Y115632D01*
Y115669D01*
Y115687D01*
Y117000D01*
D02*
G37*
G36*
X99579Y207866D02*
X98534D01*
X98377Y207857D01*
X98229Y207820D01*
X98100Y207774D01*
X97989Y207719D01*
X97906Y207654D01*
X97841Y207608D01*
X97795Y207571D01*
X97785Y207561D01*
X97684Y207441D01*
X97610Y207312D01*
X97554Y207192D01*
X97517Y207071D01*
X97499Y206970D01*
X97480Y206887D01*
Y206831D01*
Y206822D01*
Y206812D01*
X97490Y206655D01*
X97526Y206507D01*
X97573Y206378D01*
X97628Y206276D01*
X97693Y206184D01*
X97739Y206119D01*
X97776Y206082D01*
X97785Y206064D01*
X97906Y205962D01*
X98035Y205897D01*
X98155Y205842D01*
X98275Y205805D01*
X98377Y205786D01*
X98460Y205777D01*
X98516Y205768D01*
X99579D01*
Y207866D01*
D02*
G37*
G36*
X50557Y228694D02*
X49512D01*
X49355Y228685D01*
X49207Y228648D01*
X49078Y228602D01*
X48967Y228547D01*
X48884Y228482D01*
X48819Y228436D01*
X48773Y228399D01*
X48763Y228389D01*
X48662Y228269D01*
X48588Y228140D01*
X48532Y228020D01*
X48495Y227899D01*
X48477Y227798D01*
X48458Y227715D01*
Y227659D01*
Y227650D01*
Y227640D01*
X48467Y227483D01*
X48504Y227335D01*
X48551Y227206D01*
X48606Y227104D01*
X48671Y227012D01*
X48717Y226947D01*
X48754Y226910D01*
X48763Y226892D01*
X48884Y226790D01*
X49013Y226725D01*
X49133Y226670D01*
X49253Y226633D01*
X49355Y226614D01*
X49438Y226605D01*
X49494Y226596D01*
X50557D01*
Y228694D01*
D02*
G37*
G36*
X84847Y228186D02*
X83543D01*
X83423Y228177D01*
X83312Y228150D01*
X83220Y228113D01*
X83137Y228076D01*
X83072Y228029D01*
X83016Y227992D01*
X82989Y227965D01*
X82979Y227955D01*
X82905Y227863D01*
X82850Y227770D01*
X82804Y227678D01*
X82776Y227586D01*
X82758Y227512D01*
X82748Y227447D01*
Y227410D01*
Y227391D01*
Y224775D01*
X82758Y224655D01*
X82785Y224544D01*
X82822Y224451D01*
X82859Y224368D01*
X82905Y224303D01*
X82942Y224257D01*
X82970Y224220D01*
X82979Y224211D01*
X83072Y224137D01*
X83164Y224081D01*
X83257Y224044D01*
X83349Y224017D01*
X83423Y223998D01*
X83488Y223989D01*
X84847D01*
Y228186D01*
D02*
G37*
G36*
X79337Y227623D02*
X78560Y225302D01*
X80104D01*
X79337Y227623D01*
D02*
G37*
%LPD*%
D11*
X88000Y103000D02*
X92000D01*
X87500Y227000D02*
Y247000D01*
X80500D02*
X87500D01*
X80500Y227000D02*
Y247000D01*
Y227000D02*
X87500D01*
X65000Y165000D02*
Y169000D01*
X93000Y209000D02*
X97000D01*
X93000Y188000D02*
X97000D01*
X55000Y195500D02*
Y200500D01*
X83000Y195500D02*
Y200500D01*
X55000D02*
X83000D01*
X55000Y195500D02*
X83000D01*
X7000Y174000D02*
X27000D01*
X7000Y218000D02*
X27000D01*
Y174000D02*
Y218000D01*
X7000Y174000D02*
Y218000D01*
X30000Y174000D02*
X50000D01*
X30000Y218000D02*
X50000D01*
Y174000D02*
Y218000D01*
X30000Y174000D02*
Y218000D01*
X41750Y101250D02*
X56250D01*
X41750Y99250D02*
Y101250D01*
Y66750D02*
Y68750D01*
Y66750D02*
X56250D01*
X76250D01*
Y68750D01*
X56250Y101250D02*
X76250D01*
Y99250D02*
Y101250D01*
X43000Y113000D02*
X47000D01*
X68000Y106000D02*
Y110000D01*
D49*
X74000Y106000D02*
D03*
M02*
