G04*
G04 #@! TF.GenerationSoftware,Altium Limited,Altium Designer,20.1.7 (139)*
G04*
G04 Layer_Color=8388736*
%FSLAX44Y44*%
%MOMM*%
G71*
G04*
G04 #@! TF.SameCoordinates,662E4E51-3FC6-4070-AA2F-EFADEBEA197F*
G04*
G04*
G04 #@! TF.FilePolarity,Negative*
G04*
G01*
G75*
%ADD13R,1.0532X1.0532*%
%ADD14R,1.0532X1.0532*%
G04:AMPARAMS|DCode=15|XSize=1.7532mm|YSize=0.8032mm|CornerRadius=0.4016mm|HoleSize=0mm|Usage=FLASHONLY|Rotation=0.000|XOffset=0mm|YOffset=0mm|HoleType=Round|Shape=RoundedRectangle|*
%AMROUNDEDRECTD15*
21,1,1.7532,0.0000,0,0,0.0*
21,1,0.9500,0.8032,0,0,0.0*
1,1,0.8032,0.4750,0.0000*
1,1,0.8032,-0.4750,0.0000*
1,1,0.8032,-0.4750,0.0000*
1,1,0.8032,0.4750,0.0000*
%
%ADD15ROUNDEDRECTD15*%
%ADD16R,1.8032X1.2032*%
%ADD17R,0.8032X1.6032*%
%ADD18R,0.8032X2.0032*%
%ADD19R,0.7032X0.9032*%
%ADD20R,1.3032X0.8032*%
%ADD21R,1.2032X2.2032*%
%ADD22O,2.2032X1.4032*%
%ADD23C,2.2032*%
%ADD24R,2.2032X2.2032*%
G36*
X303133Y122009D02*
X303263Y121983D01*
X303390Y121941D01*
X303509Y121882D01*
X303620Y121808D01*
X303720Y121720D01*
X310220Y115220D01*
X310308Y115120D01*
X310382Y115009D01*
X310441Y114890D01*
X310483Y114763D01*
X310509Y114633D01*
X310518Y114500D01*
Y95500D01*
X310509Y95367D01*
X310483Y95237D01*
X310441Y95110D01*
X310382Y94991D01*
X310308Y94880D01*
X310220Y94780D01*
X303720Y88280D01*
X303620Y88192D01*
X303509Y88118D01*
X303390Y88059D01*
X303263Y88017D01*
X303133Y87991D01*
X303000Y87982D01*
X297000D01*
X296867Y87991D01*
X296737Y88017D01*
X296610Y88059D01*
X296491Y88118D01*
X296380Y88192D01*
X296280Y88280D01*
X289780Y94780D01*
X289692Y94880D01*
X289618Y94991D01*
X289559Y95110D01*
X289517Y95237D01*
X289491Y95367D01*
X289482Y95500D01*
Y114500D01*
X289491Y114633D01*
X289517Y114763D01*
X289559Y114890D01*
X289618Y115009D01*
X289692Y115120D01*
X289780Y115220D01*
X296280Y121720D01*
X296380Y121808D01*
X296491Y121882D01*
X296610Y121941D01*
X296737Y121983D01*
X296867Y122009D01*
X297000Y122018D01*
X303000D01*
X303133Y122009D01*
D02*
G37*
D13*
X200000Y105500D02*
D03*
Y119500D02*
D03*
X442500Y30000D02*
D03*
Y44000D02*
D03*
X75000Y34500D02*
D03*
Y20500D02*
D03*
X442500Y60500D02*
D03*
Y74500D02*
D03*
X120000Y20500D02*
D03*
Y34500D02*
D03*
X422500Y30500D02*
D03*
Y44500D02*
D03*
X265000Y75000D02*
D03*
Y89000D02*
D03*
X335000Y77500D02*
D03*
Y91500D02*
D03*
X265000Y119500D02*
D03*
Y105500D02*
D03*
X123019Y101981D02*
D03*
Y115981D02*
D03*
D14*
X185500Y72500D02*
D03*
X199500D02*
D03*
X239500D02*
D03*
X225500D02*
D03*
X360500Y77500D02*
D03*
X374500D02*
D03*
X360500Y57500D02*
D03*
X374500D02*
D03*
X240000Y87500D02*
D03*
X226000D02*
D03*
X85000Y82500D02*
D03*
X99000D02*
D03*
D15*
X185500Y56550D02*
D03*
Y43850D02*
D03*
Y31150D02*
D03*
Y18450D02*
D03*
X239500D02*
D03*
Y31150D02*
D03*
Y43850D02*
D03*
Y56550D02*
D03*
D16*
X170000Y90000D02*
D03*
Y120000D02*
D03*
X147500D02*
D03*
Y90000D02*
D03*
D17*
X285000Y78000D02*
D03*
X315000D02*
D03*
D18*
X300000Y80000D02*
D03*
D19*
X97500Y17500D02*
D03*
X91000Y37500D02*
D03*
X104000D02*
D03*
X422500Y77500D02*
D03*
X429000Y57500D02*
D03*
X416000D02*
D03*
D20*
X219500Y122000D02*
D03*
Y112500D02*
D03*
Y103000D02*
D03*
X245500D02*
D03*
Y122000D02*
D03*
X105500Y98000D02*
D03*
Y107500D02*
D03*
Y117000D02*
D03*
X79500D02*
D03*
Y98000D02*
D03*
D21*
X360500Y105000D02*
D03*
X404500D02*
D03*
X360500Y30000D02*
D03*
X404500D02*
D03*
D22*
X37500Y117700D02*
D03*
Y92300D02*
D03*
X37500Y47700D02*
D03*
Y22300D02*
D03*
D23*
X465000Y85400D02*
D03*
Y60000D02*
D03*
D24*
Y34600D02*
D03*
M02*
