G04*
G04 #@! TF.GenerationSoftware,Altium Limited,Altium Designer,20.1.7 (139)*
G04*
G04 Layer_Color=39423*
%FSLAX44Y44*%
%MOMM*%
G71*
G04*
G04 #@! TF.SameCoordinates,662E4E51-3FC6-4070-AA2F-EFADEBEA197F*
G04*
G04*
G04 #@! TF.FilePolarity,Positive*
G04*
G01*
G75*
%ADD10C,0.2540*%
%ADD11C,0.2500*%
%ADD12C,0.2000*%
G36*
X196550Y60750D02*
X196550Y53550D01*
X203750Y60750D01*
X196550Y60750D01*
D02*
G37*
G36*
X53796Y94463D02*
X53907Y94426D01*
X54000Y94370D01*
X54092Y94278D01*
X54148Y94148D01*
X54166Y93982D01*
Y92389D01*
X55722D01*
X55740D01*
X55814D01*
X55888Y92352D01*
X55999Y92315D01*
X56092Y92260D01*
X56185Y92167D01*
X56240Y92037D01*
X56259Y91871D01*
Y91778D01*
X56240Y91704D01*
X56185Y91593D01*
X56129Y91500D01*
X56036Y91408D01*
X55907Y91352D01*
X55722Y91334D01*
X54166D01*
Y89667D01*
X54148Y89593D01*
X54092Y89482D01*
X54037Y89389D01*
X53944Y89297D01*
X53814Y89241D01*
X53629Y89223D01*
X53611D01*
X53555D01*
X53463Y89241D01*
X53370Y89297D01*
X53277Y89352D01*
X53185Y89445D01*
X53129Y89575D01*
X53111Y89760D01*
Y91334D01*
X51518D01*
X51500D01*
X51444D01*
X51352Y91352D01*
X51259Y91408D01*
X51167Y91463D01*
X51074Y91556D01*
X51018Y91685D01*
X51000Y91871D01*
Y91945D01*
X51037Y92037D01*
X51074Y92130D01*
X51129Y92222D01*
X51222Y92315D01*
X51352Y92371D01*
X51518Y92389D01*
X53111D01*
Y94056D01*
X53148Y94148D01*
X53185Y94241D01*
X53240Y94333D01*
X53333Y94426D01*
X53463Y94481D01*
X53629Y94500D01*
X53648D01*
X53722D01*
X53796Y94463D01*
D02*
G37*
G36*
X21537Y50759D02*
X21630Y50703D01*
X21722Y50648D01*
X21815Y50555D01*
X21871Y50425D01*
X21889Y50240D01*
Y48666D01*
X23482D01*
X23500D01*
X23556D01*
X23648Y48648D01*
X23741Y48592D01*
X23833Y48537D01*
X23926Y48444D01*
X23981Y48314D01*
X24000Y48129D01*
Y48055D01*
X23963Y47963D01*
X23926Y47870D01*
X23870Y47778D01*
X23778Y47685D01*
X23648Y47629D01*
X23482Y47611D01*
X21889D01*
Y45944D01*
X21852Y45852D01*
X21815Y45759D01*
X21760Y45667D01*
X21667Y45574D01*
X21537Y45518D01*
X21371Y45500D01*
X21352D01*
X21278D01*
X21204Y45537D01*
X21093Y45574D01*
X21000Y45630D01*
X20908Y45722D01*
X20852Y45852D01*
X20834Y46018D01*
Y47611D01*
X19278D01*
X19260D01*
X19186D01*
X19112Y47648D01*
X19001Y47685D01*
X18908Y47741D01*
X18815Y47833D01*
X18760Y47963D01*
X18741Y48129D01*
Y48222D01*
X18760Y48296D01*
X18815Y48407D01*
X18871Y48500D01*
X18964Y48592D01*
X19093Y48648D01*
X19278Y48666D01*
X20834D01*
Y50333D01*
X20852Y50407D01*
X20908Y50518D01*
X20963Y50611D01*
X21056Y50703D01*
X21186Y50759D01*
X21371Y50777D01*
X21389D01*
X21445D01*
X21537Y50759D01*
D02*
G37*
G36*
X416995Y97587D02*
X417088Y97531D01*
X417180Y97476D01*
X417273Y97383D01*
X417329Y97254D01*
X417347Y97068D01*
Y97050D01*
Y97013D01*
X417329Y96920D01*
X414181Y87477D01*
Y87458D01*
X414162Y87421D01*
X414070Y87292D01*
X413996Y87218D01*
X413903Y87143D01*
X413792Y87107D01*
X413662Y87088D01*
X413607D01*
X413533Y87107D01*
X413459Y87143D01*
X413366Y87181D01*
X413292Y87255D01*
X413218Y87347D01*
X413144Y87477D01*
X410014Y96920D01*
Y96939D01*
Y96957D01*
X409996Y97068D01*
Y97087D01*
Y97161D01*
X410033Y97235D01*
X410070Y97346D01*
X410126Y97439D01*
X410218Y97531D01*
X410348Y97587D01*
X410514Y97605D01*
X410570D01*
X410644Y97587D01*
X410718Y97568D01*
X410792Y97513D01*
X410885Y97457D01*
X410959Y97365D01*
X411014Y97254D01*
X413662Y89273D01*
X416329Y97254D01*
Y97272D01*
X416347Y97309D01*
X416440Y97439D01*
X416514Y97494D01*
X416588Y97550D01*
X416699Y97587D01*
X416829Y97605D01*
X416903D01*
X416995Y97587D01*
D02*
G37*
G36*
X430716D02*
X430920Y97568D01*
X431161Y97513D01*
X431457Y97420D01*
X431772Y97272D01*
X432086Y97087D01*
X432383Y96828D01*
X432420Y96791D01*
X432512Y96698D01*
X432623Y96531D01*
X432771Y96309D01*
X432920Y96032D01*
X433031Y95717D01*
X433123Y95365D01*
X433160Y94976D01*
Y94939D01*
Y94846D01*
X433142Y94698D01*
X433105Y94495D01*
X433049Y94272D01*
X432957Y94013D01*
X432845Y93735D01*
X432679Y93458D01*
X429364Y88143D01*
X432716D01*
X432790Y88125D01*
X432901Y88069D01*
X432994Y88014D01*
X433086Y87921D01*
X433142Y87792D01*
X433160Y87606D01*
Y87588D01*
Y87532D01*
X433142Y87440D01*
X433086Y87347D01*
X433031Y87255D01*
X432938Y87162D01*
X432808Y87107D01*
X432623Y87088D01*
X428346D01*
X428253Y87125D01*
X428161Y87162D01*
X428068Y87218D01*
X427976Y87310D01*
X427920Y87440D01*
X427901Y87606D01*
Y87643D01*
X427920Y87699D01*
X427939Y87810D01*
X427976Y87903D01*
X431846Y94106D01*
X431864Y94124D01*
X431883Y94180D01*
X431920Y94272D01*
X431975Y94383D01*
X432031Y94513D01*
X432068Y94661D01*
X432086Y94809D01*
X432105Y94976D01*
Y95013D01*
Y95087D01*
X432086Y95198D01*
X432049Y95365D01*
X431994Y95532D01*
X431901Y95717D01*
X431790Y95902D01*
X431642Y96087D01*
X431623Y96106D01*
X431568Y96161D01*
X431457Y96235D01*
X431327Y96328D01*
X431161Y96402D01*
X430975Y96476D01*
X430753Y96531D01*
X430512Y96550D01*
X430475D01*
X430364Y96531D01*
X430198Y96476D01*
X429975Y96383D01*
X429846Y96309D01*
X429716Y96235D01*
X429586Y96124D01*
X429438Y95995D01*
X429290Y95846D01*
X429161Y95661D01*
X429012Y95476D01*
X428864Y95235D01*
Y95217D01*
X428846Y95198D01*
X428753Y95106D01*
X428624Y95013D01*
X428531Y94995D01*
X428420Y94976D01*
X428346D01*
X428253Y95013D01*
X428161Y95050D01*
X428068Y95106D01*
X427976Y95198D01*
X427920Y95328D01*
X427901Y95494D01*
Y95513D01*
Y95569D01*
X427939Y95717D01*
X427957Y95735D01*
X427976Y95791D01*
X428031Y95883D01*
X428124Y96013D01*
X428216Y96161D01*
X428327Y96309D01*
X428475Y96494D01*
X428624Y96661D01*
X428809Y96846D01*
X429012Y97013D01*
X429216Y97161D01*
X429438Y97309D01*
X429698Y97439D01*
X429957Y97531D01*
X430235Y97587D01*
X430531Y97605D01*
X430642D01*
X430716Y97587D01*
D02*
G37*
G36*
X425420D02*
X425531Y97531D01*
X425624Y97476D01*
X425717Y97383D01*
X425772Y97254D01*
X425791Y97068D01*
Y97050D01*
Y96994D01*
X425772Y96902D01*
X425717Y96809D01*
X425661Y96717D01*
X425568Y96624D01*
X425439Y96568D01*
X425254Y96550D01*
X423161D01*
Y87606D01*
Y87588D01*
Y87532D01*
X423143Y87440D01*
X423087Y87347D01*
X423032Y87255D01*
X422939Y87162D01*
X422809Y87107D01*
X422624Y87088D01*
X422550D01*
X422458Y87125D01*
X422365Y87162D01*
X422272Y87218D01*
X422180Y87310D01*
X422124Y87440D01*
X422106Y87606D01*
Y96550D01*
X419921D01*
X419828Y96587D01*
X419736Y96624D01*
X419643Y96680D01*
X419551Y96772D01*
X419495Y96902D01*
X419477Y97068D01*
Y97087D01*
Y97161D01*
X419514Y97235D01*
X419551Y97346D01*
X419606Y97439D01*
X419699Y97531D01*
X419828Y97587D01*
X419995Y97605D01*
X425346D01*
X425420Y97587D01*
D02*
G37*
G36*
X91875Y57709D02*
X91968Y57653D01*
X92060Y57598D01*
X92153Y57505D01*
X92209Y57376D01*
X92227Y57190D01*
Y57172D01*
Y57135D01*
X92209Y57042D01*
X89061Y47599D01*
Y47580D01*
X89042Y47543D01*
X88950Y47414D01*
X88876Y47340D01*
X88783Y47266D01*
X88672Y47228D01*
X88542Y47210D01*
X88487D01*
X88413Y47228D01*
X88339Y47266D01*
X88246Y47303D01*
X88172Y47377D01*
X88098Y47469D01*
X88024Y47599D01*
X84895Y57042D01*
Y57061D01*
Y57079D01*
X84876Y57190D01*
Y57209D01*
Y57283D01*
X84913Y57357D01*
X84950Y57468D01*
X85006Y57561D01*
X85098Y57653D01*
X85228Y57709D01*
X85394Y57727D01*
X85450D01*
X85524Y57709D01*
X85598Y57690D01*
X85672Y57635D01*
X85765Y57579D01*
X85839Y57487D01*
X85894Y57376D01*
X88542Y49395D01*
X91209Y57376D01*
Y57394D01*
X91227Y57431D01*
X91320Y57561D01*
X91394Y57616D01*
X91468Y57672D01*
X91579Y57709D01*
X91709Y57727D01*
X91783D01*
X91875Y57709D01*
D02*
G37*
G36*
X105577D02*
X105689Y57653D01*
X105781Y57598D01*
X105874Y57505D01*
X105929Y57376D01*
X105948Y57190D01*
Y47729D01*
Y47710D01*
Y47654D01*
X105929Y47562D01*
X105874Y47469D01*
X105818Y47377D01*
X105726Y47284D01*
X105596Y47228D01*
X105411Y47210D01*
X105337D01*
X105244Y47247D01*
X105152Y47284D01*
X105059Y47340D01*
X104966Y47432D01*
X104911Y47562D01*
X104892Y47729D01*
Y55931D01*
X103670Y54709D01*
X103652Y54691D01*
X103578Y54635D01*
X103448Y54580D01*
X103300Y54561D01*
X103226D01*
X103133Y54598D01*
X103041Y54635D01*
X102948Y54691D01*
X102856Y54783D01*
X102800Y54913D01*
X102781Y55098D01*
Y55117D01*
Y55135D01*
X102800Y55228D01*
X102837Y55339D01*
X102930Y55468D01*
X104985Y57524D01*
X105003Y57542D01*
X105022Y57561D01*
X105115Y57635D01*
X105244Y57690D01*
X105337Y57727D01*
X105504D01*
X105577Y57709D01*
D02*
G37*
G36*
X100300D02*
X100411Y57653D01*
X100504Y57598D01*
X100597Y57505D01*
X100652Y57376D01*
X100671Y57190D01*
Y57172D01*
Y57116D01*
X100652Y57024D01*
X100597Y56931D01*
X100541Y56839D01*
X100448Y56746D01*
X100319Y56691D01*
X100134Y56672D01*
X98041D01*
Y47729D01*
Y47710D01*
Y47654D01*
X98023Y47562D01*
X97967Y47469D01*
X97912Y47377D01*
X97819Y47284D01*
X97690Y47228D01*
X97504Y47210D01*
X97430D01*
X97338Y47247D01*
X97245Y47284D01*
X97153Y47340D01*
X97060Y47432D01*
X97004Y47562D01*
X96986Y47729D01*
Y56672D01*
X94801D01*
X94708Y56709D01*
X94616Y56746D01*
X94523Y56802D01*
X94431Y56894D01*
X94375Y57024D01*
X94356Y57190D01*
Y57209D01*
Y57283D01*
X94394Y57357D01*
X94431Y57468D01*
X94486Y57561D01*
X94579Y57653D01*
X94708Y57709D01*
X94875Y57727D01*
X100226D01*
X100300Y57709D01*
D02*
G37*
G36*
X355176Y63551D02*
X355343Y63532D01*
X355547Y63514D01*
X355769Y63495D01*
X356213Y63421D01*
X356695Y63329D01*
X357139Y63181D01*
X357361Y63088D01*
X357546Y62995D01*
X357565D01*
X357602Y62958D01*
X357713Y62866D01*
X357806Y62718D01*
X357843Y62625D01*
X357861Y62514D01*
Y62477D01*
X357843Y62384D01*
X357787Y62273D01*
X357695Y62144D01*
X357676Y62125D01*
X357602Y62070D01*
X357491Y62014D01*
X357343Y61996D01*
X357287D01*
X357213Y62014D01*
X357121Y62051D01*
X357102D01*
X357065Y62070D01*
X357009Y62088D01*
X356917Y62125D01*
X356806Y62162D01*
X356676Y62199D01*
X356361Y62292D01*
X355991Y62366D01*
X355584Y62440D01*
X355158Y62495D01*
X354713Y62514D01*
X354602D01*
X354473Y62495D01*
X354324Y62458D01*
X354139Y62403D01*
X353954Y62310D01*
X353769Y62199D01*
X353584Y62051D01*
X353565Y62032D01*
X353510Y61977D01*
X353436Y61866D01*
X353362Y61736D01*
X353288Y61570D01*
X353214Y61385D01*
X353158Y61181D01*
X353139Y60940D01*
Y60922D01*
Y60903D01*
X353158Y60792D01*
X353176Y60607D01*
X353251Y60403D01*
X353343Y60181D01*
X353491Y59940D01*
X353713Y59718D01*
X353843Y59625D01*
X353991Y59533D01*
X356954Y58014D01*
X356972D01*
X357009Y57977D01*
X357084Y57940D01*
X357176Y57866D01*
X357417Y57700D01*
X357546Y57589D01*
X357676Y57440D01*
X357806Y57292D01*
X357935Y57126D01*
X358065Y56922D01*
X358176Y56718D01*
X358269Y56496D01*
X358343Y56237D01*
X358380Y55978D01*
X358398Y55681D01*
Y55663D01*
Y55626D01*
Y55570D01*
X358380Y55496D01*
X358361Y55293D01*
X358306Y55033D01*
X358213Y54737D01*
X358065Y54441D01*
X357880Y54107D01*
X357620Y53811D01*
X357583Y53774D01*
X357491Y53700D01*
X357324Y53570D01*
X357102Y53441D01*
X356824Y53293D01*
X356509Y53163D01*
X356139Y53089D01*
X355750Y53052D01*
X355565D01*
X355417Y53071D01*
X355250Y53089D01*
X355065Y53108D01*
X354843Y53145D01*
X354584Y53200D01*
X354047Y53330D01*
X353769Y53422D01*
X353473Y53533D01*
X353176Y53663D01*
X352880Y53830D01*
X352584Y53996D01*
X352306Y54200D01*
X352269Y54237D01*
X352195Y54311D01*
X352121Y54459D01*
X352103Y54533D01*
X352084Y54626D01*
Y54644D01*
Y54663D01*
X352103Y54756D01*
X352140Y54867D01*
X352232Y54978D01*
X352251Y54996D01*
X352343Y55070D01*
X352454Y55126D01*
X352602Y55144D01*
X352621D01*
X352695Y55126D01*
X352788Y55107D01*
X352899Y55052D01*
X352917Y55033D01*
X352991Y54996D01*
X353102Y54941D01*
X353251Y54867D01*
X353454Y54756D01*
X353713Y54626D01*
X354010Y54496D01*
X354361Y54330D01*
X354399D01*
X354473Y54293D01*
X354602Y54256D01*
X354769Y54219D01*
X354973Y54181D01*
X355213Y54145D01*
X355472Y54126D01*
X355750Y54107D01*
X355861D01*
X355991Y54126D01*
X356139Y54163D01*
X356324Y54219D01*
X356509Y54293D01*
X356695Y54404D01*
X356880Y54552D01*
X356898Y54570D01*
X356954Y54644D01*
X357028Y54737D01*
X357121Y54867D01*
X357195Y55033D01*
X357269Y55218D01*
X357324Y55441D01*
X357343Y55681D01*
Y55700D01*
Y55718D01*
X357324Y55848D01*
X357306Y56015D01*
X357232Y56218D01*
X357121Y56441D01*
X356972Y56681D01*
X356750Y56903D01*
X356602Y56996D01*
X356454Y57089D01*
X353510Y58607D01*
X353491D01*
X353454Y58644D01*
X353380Y58681D01*
X353288Y58737D01*
X353065Y58922D01*
X352936Y59033D01*
X352806Y59163D01*
X352658Y59329D01*
X352528Y59496D01*
X352417Y59681D01*
X352306Y59903D01*
X352214Y60125D01*
X352140Y60385D01*
X352103Y60644D01*
X352084Y60940D01*
Y60959D01*
Y60996D01*
Y61051D01*
X352103Y61125D01*
X352121Y61329D01*
X352177Y61570D01*
X352269Y61866D01*
X352399Y62181D01*
X352584Y62495D01*
X352843Y62792D01*
X352880Y62829D01*
X352991Y62921D01*
X353139Y63032D01*
X353362Y63181D01*
X353639Y63329D01*
X353954Y63440D01*
X354324Y63532D01*
X354713Y63569D01*
X355010D01*
X355176Y63551D01*
D02*
G37*
G36*
X369619D02*
X369712Y63495D01*
X369804Y63440D01*
X369897Y63347D01*
X369953Y63218D01*
X369971Y63032D01*
Y63014D01*
X369953Y62921D01*
X367860Y53478D01*
Y53459D01*
X367842Y53404D01*
X367805Y53348D01*
X367767Y53274D01*
X367693Y53182D01*
X367601Y53126D01*
X367490Y53071D01*
X367342Y53052D01*
X367286D01*
X367212Y53071D01*
X367138Y53108D01*
X367045Y53163D01*
X366953Y53237D01*
X366879Y53348D01*
X366805Y53496D01*
X365249Y58200D01*
X363675Y53496D01*
Y53478D01*
X363638Y53422D01*
X363601Y53348D01*
X363546Y53274D01*
X363472Y53200D01*
X363379Y53126D01*
X363268Y53071D01*
X363138Y53052D01*
X363064D01*
X362990Y53071D01*
X362916Y53108D01*
X362824Y53163D01*
X362749Y53237D01*
X362676Y53348D01*
X362620Y53496D01*
X360509Y62921D01*
Y62940D01*
Y62958D01*
Y63032D01*
Y63051D01*
Y63125D01*
X360546Y63199D01*
X360583Y63310D01*
X360639Y63403D01*
X360731Y63495D01*
X360861Y63551D01*
X361027Y63569D01*
X361102D01*
X361176Y63551D01*
X361250Y63514D01*
X361342Y63477D01*
X361435Y63403D01*
X361490Y63292D01*
X361546Y63162D01*
X363231Y55552D01*
X364712Y59977D01*
Y59996D01*
X364749Y60051D01*
X364786Y60125D01*
X364842Y60199D01*
X364897Y60273D01*
X364990Y60347D01*
X365101Y60403D01*
X365231Y60422D01*
X365286D01*
X365360Y60403D01*
X365453Y60366D01*
X365527Y60311D01*
X365620Y60236D01*
X365694Y60125D01*
X365768Y59977D01*
X367231Y55552D01*
X368934Y63162D01*
Y63181D01*
X368953Y63218D01*
X368990Y63292D01*
X369027Y63366D01*
X369101Y63440D01*
X369193Y63514D01*
X369304Y63551D01*
X369453Y63569D01*
X369527D01*
X369619Y63551D01*
D02*
G37*
G36*
X374896D02*
X375100Y63532D01*
X375341Y63477D01*
X375637Y63384D01*
X375952Y63236D01*
X376267Y63051D01*
X376563Y62792D01*
X376600Y62755D01*
X376693Y62662D01*
X376804Y62495D01*
X376952Y62273D01*
X377100Y61996D01*
X377211Y61681D01*
X377304Y61329D01*
X377341Y60940D01*
Y60903D01*
Y60810D01*
X377322Y60662D01*
X377285Y60459D01*
X377229Y60236D01*
X377137Y59977D01*
X377026Y59699D01*
X376859Y59422D01*
X373545Y54107D01*
X376896D01*
X376970Y54089D01*
X377081Y54033D01*
X377174Y53978D01*
X377267Y53885D01*
X377322Y53756D01*
X377341Y53570D01*
Y53552D01*
Y53496D01*
X377322Y53404D01*
X377267Y53311D01*
X377211Y53219D01*
X377118Y53126D01*
X376989Y53071D01*
X376804Y53052D01*
X372526D01*
X372434Y53089D01*
X372341Y53126D01*
X372249Y53182D01*
X372156Y53274D01*
X372100Y53404D01*
X372082Y53570D01*
Y53608D01*
X372100Y53663D01*
X372119Y53774D01*
X372156Y53867D01*
X376026Y60070D01*
X376045Y60088D01*
X376063Y60144D01*
X376100Y60236D01*
X376156Y60347D01*
X376211Y60477D01*
X376248Y60625D01*
X376267Y60773D01*
X376285Y60940D01*
Y60977D01*
Y61051D01*
X376267Y61162D01*
X376230Y61329D01*
X376174Y61496D01*
X376082Y61681D01*
X375970Y61866D01*
X375822Y62051D01*
X375804Y62070D01*
X375748Y62125D01*
X375637Y62199D01*
X375508Y62292D01*
X375341Y62366D01*
X375156Y62440D01*
X374934Y62495D01*
X374693Y62514D01*
X374656D01*
X374545Y62495D01*
X374378Y62440D01*
X374156Y62347D01*
X374026Y62273D01*
X373896Y62199D01*
X373767Y62088D01*
X373619Y61958D01*
X373471Y61810D01*
X373341Y61625D01*
X373193Y61440D01*
X373045Y61199D01*
Y61181D01*
X373026Y61162D01*
X372934Y61070D01*
X372804Y60977D01*
X372711Y60959D01*
X372600Y60940D01*
X372526D01*
X372434Y60977D01*
X372341Y61014D01*
X372249Y61070D01*
X372156Y61162D01*
X372100Y61292D01*
X372082Y61459D01*
Y61477D01*
Y61533D01*
X372119Y61681D01*
X372137Y61699D01*
X372156Y61755D01*
X372211Y61847D01*
X372304Y61977D01*
X372397Y62125D01*
X372508Y62273D01*
X372656Y62458D01*
X372804Y62625D01*
X372989Y62810D01*
X373193Y62977D01*
X373397Y63125D01*
X373619Y63273D01*
X373878Y63403D01*
X374137Y63495D01*
X374415Y63551D01*
X374711Y63569D01*
X374822D01*
X374896Y63551D01*
D02*
G37*
G36*
X355176Y138481D02*
X355343Y138462D01*
X355547Y138444D01*
X355769Y138425D01*
X356213Y138351D01*
X356695Y138259D01*
X357139Y138111D01*
X357361Y138018D01*
X357546Y137925D01*
X357565D01*
X357602Y137888D01*
X357713Y137796D01*
X357806Y137648D01*
X357843Y137555D01*
X357861Y137444D01*
Y137407D01*
X357843Y137314D01*
X357787Y137203D01*
X357695Y137074D01*
X357676Y137055D01*
X357602Y137000D01*
X357491Y136944D01*
X357343Y136925D01*
X357287D01*
X357213Y136944D01*
X357121Y136981D01*
X357102D01*
X357065Y137000D01*
X357009Y137018D01*
X356917Y137055D01*
X356806Y137092D01*
X356676Y137129D01*
X356361Y137222D01*
X355991Y137296D01*
X355584Y137370D01*
X355158Y137425D01*
X354713Y137444D01*
X354602D01*
X354473Y137425D01*
X354324Y137388D01*
X354139Y137333D01*
X353954Y137240D01*
X353769Y137129D01*
X353584Y136981D01*
X353565Y136962D01*
X353510Y136907D01*
X353436Y136796D01*
X353362Y136666D01*
X353288Y136500D01*
X353214Y136314D01*
X353158Y136111D01*
X353139Y135870D01*
Y135851D01*
Y135833D01*
X353158Y135722D01*
X353176Y135537D01*
X353251Y135333D01*
X353343Y135111D01*
X353491Y134870D01*
X353713Y134648D01*
X353843Y134555D01*
X353991Y134463D01*
X356954Y132944D01*
X356972D01*
X357009Y132907D01*
X357084Y132870D01*
X357176Y132796D01*
X357417Y132630D01*
X357546Y132519D01*
X357676Y132370D01*
X357806Y132222D01*
X357935Y132056D01*
X358065Y131852D01*
X358176Y131648D01*
X358269Y131426D01*
X358343Y131167D01*
X358380Y130908D01*
X358398Y130611D01*
Y130593D01*
Y130556D01*
Y130500D01*
X358380Y130426D01*
X358361Y130223D01*
X358306Y129963D01*
X358213Y129667D01*
X358065Y129371D01*
X357880Y129037D01*
X357620Y128741D01*
X357583Y128704D01*
X357491Y128630D01*
X357324Y128500D01*
X357102Y128371D01*
X356824Y128223D01*
X356509Y128093D01*
X356139Y128019D01*
X355750Y127982D01*
X355565D01*
X355417Y128000D01*
X355250Y128019D01*
X355065Y128038D01*
X354843Y128075D01*
X354584Y128130D01*
X354047Y128260D01*
X353769Y128352D01*
X353473Y128463D01*
X353176Y128593D01*
X352880Y128760D01*
X352584Y128926D01*
X352306Y129130D01*
X352269Y129167D01*
X352195Y129241D01*
X352121Y129389D01*
X352103Y129463D01*
X352084Y129556D01*
Y129574D01*
Y129593D01*
X352103Y129685D01*
X352140Y129797D01*
X352232Y129908D01*
X352251Y129926D01*
X352343Y130000D01*
X352454Y130056D01*
X352602Y130074D01*
X352621D01*
X352695Y130056D01*
X352788Y130037D01*
X352899Y129982D01*
X352917Y129963D01*
X352991Y129926D01*
X353102Y129871D01*
X353251Y129797D01*
X353454Y129685D01*
X353713Y129556D01*
X354010Y129426D01*
X354361Y129260D01*
X354399D01*
X354473Y129223D01*
X354602Y129186D01*
X354769Y129149D01*
X354973Y129111D01*
X355213Y129074D01*
X355472Y129056D01*
X355750Y129037D01*
X355861D01*
X355991Y129056D01*
X356139Y129093D01*
X356324Y129149D01*
X356509Y129223D01*
X356695Y129334D01*
X356880Y129482D01*
X356898Y129500D01*
X356954Y129574D01*
X357028Y129667D01*
X357121Y129797D01*
X357195Y129963D01*
X357269Y130148D01*
X357324Y130371D01*
X357343Y130611D01*
Y130630D01*
Y130648D01*
X357324Y130778D01*
X357306Y130945D01*
X357232Y131148D01*
X357121Y131370D01*
X356972Y131611D01*
X356750Y131833D01*
X356602Y131926D01*
X356454Y132019D01*
X353510Y133537D01*
X353491D01*
X353454Y133574D01*
X353380Y133611D01*
X353288Y133667D01*
X353065Y133852D01*
X352936Y133963D01*
X352806Y134093D01*
X352658Y134259D01*
X352528Y134426D01*
X352417Y134611D01*
X352306Y134833D01*
X352214Y135055D01*
X352140Y135315D01*
X352103Y135574D01*
X352084Y135870D01*
Y135889D01*
Y135926D01*
Y135981D01*
X352103Y136055D01*
X352121Y136259D01*
X352177Y136500D01*
X352269Y136796D01*
X352399Y137111D01*
X352584Y137425D01*
X352843Y137722D01*
X352880Y137759D01*
X352991Y137851D01*
X353139Y137962D01*
X353362Y138111D01*
X353639Y138259D01*
X353954Y138370D01*
X354324Y138462D01*
X354713Y138499D01*
X355010D01*
X355176Y138481D01*
D02*
G37*
G36*
X369619D02*
X369712Y138425D01*
X369804Y138370D01*
X369897Y138277D01*
X369953Y138148D01*
X369971Y137962D01*
Y137944D01*
X369953Y137851D01*
X367860Y128408D01*
Y128389D01*
X367842Y128334D01*
X367805Y128278D01*
X367767Y128204D01*
X367693Y128112D01*
X367601Y128056D01*
X367490Y128000D01*
X367342Y127982D01*
X367286D01*
X367212Y128000D01*
X367138Y128038D01*
X367045Y128093D01*
X366953Y128167D01*
X366879Y128278D01*
X366805Y128426D01*
X365249Y133130D01*
X363675Y128426D01*
Y128408D01*
X363638Y128352D01*
X363601Y128278D01*
X363546Y128204D01*
X363472Y128130D01*
X363379Y128056D01*
X363268Y128000D01*
X363138Y127982D01*
X363064D01*
X362990Y128000D01*
X362916Y128038D01*
X362824Y128093D01*
X362749Y128167D01*
X362676Y128278D01*
X362620Y128426D01*
X360509Y137851D01*
Y137870D01*
Y137888D01*
Y137962D01*
Y137981D01*
Y138055D01*
X360546Y138129D01*
X360583Y138240D01*
X360639Y138333D01*
X360731Y138425D01*
X360861Y138481D01*
X361027Y138499D01*
X361102D01*
X361176Y138481D01*
X361250Y138444D01*
X361342Y138407D01*
X361435Y138333D01*
X361490Y138222D01*
X361546Y138092D01*
X363231Y130482D01*
X364712Y134907D01*
Y134926D01*
X364749Y134981D01*
X364786Y135055D01*
X364842Y135129D01*
X364897Y135204D01*
X364990Y135278D01*
X365101Y135333D01*
X365231Y135352D01*
X365286D01*
X365360Y135333D01*
X365453Y135296D01*
X365527Y135240D01*
X365620Y135166D01*
X365694Y135055D01*
X365768Y134907D01*
X367231Y130482D01*
X368934Y138092D01*
Y138111D01*
X368953Y138148D01*
X368990Y138222D01*
X369027Y138296D01*
X369101Y138370D01*
X369193Y138444D01*
X369304Y138481D01*
X369453Y138499D01*
X369527D01*
X369619Y138481D01*
D02*
G37*
G36*
X374878D02*
X374989Y138425D01*
X375082Y138370D01*
X375174Y138277D01*
X375230Y138148D01*
X375248Y137962D01*
Y128500D01*
Y128482D01*
Y128426D01*
X375230Y128334D01*
X375174Y128241D01*
X375119Y128149D01*
X375026Y128056D01*
X374896Y128000D01*
X374711Y127982D01*
X374637D01*
X374545Y128019D01*
X374452Y128056D01*
X374359Y128112D01*
X374267Y128204D01*
X374211Y128334D01*
X374193Y128500D01*
Y136703D01*
X372971Y135481D01*
X372952Y135463D01*
X372878Y135407D01*
X372748Y135352D01*
X372600Y135333D01*
X372526D01*
X372434Y135370D01*
X372341Y135407D01*
X372249Y135463D01*
X372156Y135555D01*
X372100Y135685D01*
X372082Y135870D01*
Y135889D01*
Y135907D01*
X372100Y136000D01*
X372137Y136111D01*
X372230Y136240D01*
X374285Y138296D01*
X374304Y138314D01*
X374322Y138333D01*
X374415Y138407D01*
X374545Y138462D01*
X374637Y138499D01*
X374804D01*
X374878Y138481D01*
D02*
G37*
G36*
X150648Y142240D02*
X150851Y142222D01*
X151092Y142166D01*
X151388Y142074D01*
X151703Y141925D01*
X152018Y141740D01*
X152314Y141481D01*
X152351Y141444D01*
X152444Y141351D01*
X152555Y141185D01*
X152703Y140963D01*
X152851Y140685D01*
X152962Y140370D01*
X153055Y140018D01*
X153092Y139629D01*
Y139611D01*
Y139574D01*
Y139500D01*
X153073Y139407D01*
X153055Y139296D01*
X153036Y139166D01*
X152962Y138870D01*
X152833Y138537D01*
X152759Y138370D01*
X152647Y138185D01*
X152518Y138018D01*
X152388Y137833D01*
X152222Y137667D01*
X152037Y137519D01*
X152073Y137500D01*
X152166Y137407D01*
X152296Y137296D01*
X152444Y137130D01*
X152611Y136926D01*
X152759Y136685D01*
X152888Y136407D01*
X152981Y136111D01*
Y136093D01*
X152999Y136019D01*
X153018Y135907D01*
X153036Y135741D01*
X153055Y135500D01*
X153073Y135204D01*
Y135019D01*
X153092Y134815D01*
Y134611D01*
Y134371D01*
Y134352D01*
Y134315D01*
Y134260D01*
X153073Y134185D01*
X153055Y133982D01*
X152999Y133723D01*
X152907Y133426D01*
X152759Y133130D01*
X152573Y132797D01*
X152314Y132500D01*
X152277Y132463D01*
X152185Y132389D01*
X152018Y132260D01*
X151796Y132130D01*
X151518Y131982D01*
X151203Y131852D01*
X150851Y131778D01*
X150463Y131741D01*
X150351D01*
X150277Y131760D01*
X150074Y131778D01*
X149815Y131834D01*
X149518Y131926D01*
X149222Y132056D01*
X148889Y132241D01*
X148592Y132500D01*
X148555Y132537D01*
X148481Y132649D01*
X148352Y132797D01*
X148222Y133019D01*
X148074Y133297D01*
X147944Y133611D01*
X147870Y133982D01*
X147833Y134371D01*
Y135408D01*
Y135426D01*
Y135463D01*
Y135537D01*
X147852Y135630D01*
X147870Y135741D01*
X147889Y135871D01*
X147963Y136167D01*
X148092Y136500D01*
X148278Y136852D01*
X148389Y137037D01*
X148537Y137204D01*
X148685Y137370D01*
X148870Y137519D01*
X148852Y137537D01*
X148833Y137556D01*
X148703Y137667D01*
X148537Y137833D01*
X148352Y138074D01*
X148167Y138389D01*
X148000Y138741D01*
X147870Y139166D01*
X147852Y139389D01*
X147833Y139629D01*
Y139648D01*
Y139685D01*
Y139740D01*
X147852Y139815D01*
X147870Y140018D01*
X147926Y140259D01*
X148018Y140555D01*
X148148Y140870D01*
X148333Y141185D01*
X148592Y141481D01*
X148629Y141518D01*
X148741Y141611D01*
X148889Y141722D01*
X149111Y141870D01*
X149389Y142018D01*
X149703Y142129D01*
X150074Y142222D01*
X150463Y142259D01*
X150574D01*
X150648Y142240D01*
D02*
G37*
G36*
X142778D02*
X142889D01*
X143019Y142203D01*
X143334Y142148D01*
X143686Y142037D01*
X144056Y141870D01*
X144241Y141759D01*
X144426Y141648D01*
X144611Y141500D01*
X144796Y141333D01*
X144815Y141314D01*
X144833Y141296D01*
X144889Y141240D01*
X144945Y141166D01*
X145019Y141074D01*
X145093Y140963D01*
X145259Y140703D01*
X145426Y140388D01*
X145574Y140000D01*
X145685Y139574D01*
X145704Y139333D01*
X145722Y139092D01*
Y139074D01*
Y139000D01*
X145704Y138889D01*
X145685Y138741D01*
X145667Y138574D01*
X145630Y138370D01*
X145556Y138148D01*
X145482Y137907D01*
X145389Y137667D01*
X145259Y137426D01*
X145111Y137185D01*
X144926Y136945D01*
X144704Y136722D01*
X144445Y136519D01*
X144148Y136333D01*
X143815Y136167D01*
X145648Y132500D01*
X145667Y132482D01*
X145685Y132426D01*
X145704Y132352D01*
X145722Y132260D01*
Y132223D01*
X145704Y132130D01*
X145648Y132019D01*
X145556Y131889D01*
X145519Y131871D01*
X145445Y131815D01*
X145333Y131760D01*
X145185Y131741D01*
X145130D01*
X145074Y131760D01*
X145000Y131778D01*
X144926Y131815D01*
X144833Y131852D01*
X144760Y131926D01*
X144704Y132019D01*
X142760Y135945D01*
X140464D01*
Y132260D01*
Y132241D01*
Y132186D01*
X140445Y132093D01*
X140389Y132001D01*
X140334Y131908D01*
X140241Y131815D01*
X140112Y131760D01*
X139927Y131741D01*
X139853D01*
X139760Y131778D01*
X139667Y131815D01*
X139575Y131871D01*
X139482Y131964D01*
X139427Y132093D01*
X139408Y132260D01*
Y141722D01*
Y141740D01*
Y141814D01*
X139445Y141888D01*
X139482Y142000D01*
X139538Y142092D01*
X139630Y142185D01*
X139760Y142240D01*
X139927Y142259D01*
X142686D01*
X142778Y142240D01*
D02*
G37*
G36*
X81171Y57455D02*
X81264Y57418D01*
X81357Y57344D01*
X81449Y57251D01*
X81505Y57122D01*
X81542Y56955D01*
Y56918D01*
X81523Y56825D01*
X80616Y52752D01*
X81097D01*
X81171Y52733D01*
X81283Y52678D01*
X81375Y52622D01*
X81468Y52530D01*
X81523Y52400D01*
X81542Y52215D01*
Y52196D01*
Y52141D01*
X81523Y52048D01*
X81468Y51955D01*
X81412Y51863D01*
X81320Y51770D01*
X81190Y51715D01*
X81005Y51696D01*
X80375Y51678D01*
X79412Y47363D01*
Y47345D01*
X79394Y47308D01*
X79357Y47234D01*
X79320Y47160D01*
X79246Y47086D01*
X79172Y47011D01*
X79061Y46975D01*
X78912Y46956D01*
X78838D01*
X78746Y46993D01*
X78653Y47030D01*
X78542Y47086D01*
X78468Y47178D01*
X78394Y47308D01*
X78375Y47474D01*
Y47493D01*
Y47512D01*
X78394Y47586D01*
X79301Y51696D01*
X78820D01*
X78727Y51733D01*
X78635Y51770D01*
X78542Y51826D01*
X78450Y51918D01*
X78394Y52048D01*
X78375Y52215D01*
Y52233D01*
Y52307D01*
X78412Y52381D01*
X78450Y52492D01*
X78505Y52585D01*
X78598Y52678D01*
X78727Y52733D01*
X78894Y52752D01*
X79523Y52733D01*
X80338Y56418D01*
X76727D01*
X76635Y56455D01*
X76542Y56492D01*
X76450Y56548D01*
X76357Y56640D01*
X76301Y56770D01*
X76283Y56936D01*
Y56955D01*
Y57029D01*
X76320Y57103D01*
X76357Y57214D01*
X76413Y57307D01*
X76505Y57399D01*
X76635Y57455D01*
X76802Y57473D01*
X81079D01*
X81171Y57455D01*
D02*
G37*
G36*
X71228D02*
X71339D01*
X71469Y57418D01*
X71783Y57362D01*
X72135Y57251D01*
X72506Y57085D01*
X72691Y56974D01*
X72876Y56862D01*
X73061Y56714D01*
X73246Y56548D01*
X73265Y56529D01*
X73283Y56511D01*
X73339Y56455D01*
X73394Y56381D01*
X73468Y56288D01*
X73543Y56177D01*
X73709Y55918D01*
X73876Y55603D01*
X74024Y55214D01*
X74135Y54788D01*
X74154Y54548D01*
X74172Y54307D01*
Y54289D01*
Y54215D01*
X74154Y54103D01*
X74135Y53955D01*
X74117Y53789D01*
X74080Y53585D01*
X74005Y53363D01*
X73931Y53122D01*
X73839Y52881D01*
X73709Y52641D01*
X73561Y52400D01*
X73376Y52159D01*
X73154Y51937D01*
X72895Y51733D01*
X72598Y51548D01*
X72265Y51382D01*
X74098Y47715D01*
X74117Y47697D01*
X74135Y47641D01*
X74154Y47567D01*
X74172Y47474D01*
Y47437D01*
X74154Y47345D01*
X74098Y47234D01*
X74005Y47104D01*
X73969Y47086D01*
X73894Y47030D01*
X73783Y46975D01*
X73635Y46956D01*
X73580D01*
X73524Y46975D01*
X73450Y46993D01*
X73376Y47030D01*
X73283Y47067D01*
X73209Y47141D01*
X73154Y47234D01*
X71210Y51159D01*
X68913D01*
Y47474D01*
Y47456D01*
Y47400D01*
X68895Y47308D01*
X68839Y47215D01*
X68784Y47123D01*
X68691Y47030D01*
X68562Y46975D01*
X68376Y46956D01*
X68302D01*
X68210Y46993D01*
X68117Y47030D01*
X68025Y47086D01*
X67932Y47178D01*
X67877Y47308D01*
X67858Y47474D01*
Y56936D01*
Y56955D01*
Y57029D01*
X67895Y57103D01*
X67932Y57214D01*
X67988Y57307D01*
X68080Y57399D01*
X68210Y57455D01*
X68376Y57473D01*
X71135D01*
X71228Y57455D01*
D02*
G37*
G36*
X125074D02*
X125185Y57399D01*
X125278Y57344D01*
X125370Y57251D01*
X125426Y57122D01*
X125444Y56936D01*
Y56918D01*
Y56881D01*
X125426Y56807D01*
X125407Y56733D01*
X125333Y56585D01*
X125278Y56529D01*
X125185Y56492D01*
X125167D01*
X125129Y56473D01*
X125074Y56455D01*
X124981Y56437D01*
X124889Y56381D01*
X124759Y56344D01*
X124481Y56214D01*
X124167Y56011D01*
X123815Y55770D01*
X123463Y55474D01*
X123296Y55289D01*
X123130Y55085D01*
Y55066D01*
X123093Y55048D01*
X123019Y54937D01*
X122907Y54752D01*
X122778Y54529D01*
X122630Y54251D01*
X122500Y53955D01*
X122408Y53622D01*
X122333Y53270D01*
X123982D01*
X124056Y53252D01*
X124259Y53233D01*
X124518Y53178D01*
X124815Y53085D01*
X125129Y52937D01*
X125444Y52752D01*
X125741Y52492D01*
X125778Y52455D01*
X125852Y52363D01*
X125981Y52196D01*
X126129Y51974D01*
X126259Y51696D01*
X126389Y51382D01*
X126463Y51030D01*
X126500Y50622D01*
Y49585D01*
Y49567D01*
Y49530D01*
Y49474D01*
X126481Y49400D01*
X126463Y49197D01*
X126407Y48937D01*
X126315Y48641D01*
X126166Y48326D01*
X125981Y48011D01*
X125722Y47715D01*
X125685Y47678D01*
X125592Y47604D01*
X125426Y47474D01*
X125204Y47345D01*
X124926Y47197D01*
X124611Y47067D01*
X124259Y46993D01*
X123870Y46956D01*
X123759D01*
X123685Y46975D01*
X123482Y46993D01*
X123222Y47049D01*
X122926Y47141D01*
X122611Y47271D01*
X122296Y47456D01*
X122000Y47715D01*
X121963Y47752D01*
X121889Y47845D01*
X121760Y48011D01*
X121630Y48234D01*
X121482Y48493D01*
X121352Y48826D01*
X121278Y49178D01*
X121241Y49567D01*
Y52733D01*
Y52752D01*
Y52807D01*
Y52900D01*
X121259Y53029D01*
X121278Y53196D01*
X121297Y53363D01*
X121334Y53566D01*
X121389Y53789D01*
X121537Y54270D01*
X121630Y54529D01*
X121741Y54807D01*
X121871Y55066D01*
X122037Y55344D01*
X122222Y55603D01*
X122426Y55862D01*
X122445Y55881D01*
X122463Y55900D01*
X122519Y55955D01*
X122593Y56029D01*
X122778Y56214D01*
X123019Y56437D01*
X123333Y56677D01*
X123667Y56918D01*
X124037Y57159D01*
X124444Y57344D01*
X124463D01*
X124500Y57362D01*
X124611Y57418D01*
X124759Y57455D01*
X124907Y57473D01*
X125000D01*
X125074Y57455D01*
D02*
G37*
G36*
X116186D02*
X116297D01*
X116427Y57418D01*
X116742Y57362D01*
X117093Y57251D01*
X117464Y57085D01*
X117649Y56974D01*
X117834Y56862D01*
X118019Y56714D01*
X118204Y56548D01*
X118223Y56529D01*
X118241Y56511D01*
X118297Y56455D01*
X118352Y56381D01*
X118427Y56288D01*
X118501Y56177D01*
X118667Y55918D01*
X118834Y55603D01*
X118982Y55214D01*
X119093Y54788D01*
X119112Y54548D01*
X119130Y54307D01*
Y54289D01*
Y54215D01*
X119112Y54103D01*
X119093Y53955D01*
X119075Y53789D01*
X119038Y53585D01*
X118963Y53363D01*
X118889Y53122D01*
X118797Y52881D01*
X118667Y52641D01*
X118519Y52400D01*
X118334Y52159D01*
X118112Y51937D01*
X117852Y51733D01*
X117556Y51548D01*
X117223Y51382D01*
X119056Y47715D01*
X119075Y47697D01*
X119093Y47641D01*
X119112Y47567D01*
X119130Y47474D01*
Y47437D01*
X119112Y47345D01*
X119056Y47234D01*
X118963Y47104D01*
X118926Y47086D01*
X118852Y47030D01*
X118741Y46975D01*
X118593Y46956D01*
X118538D01*
X118482Y46975D01*
X118408Y46993D01*
X118334Y47030D01*
X118241Y47067D01*
X118167Y47141D01*
X118112Y47234D01*
X116167Y51159D01*
X113871D01*
Y47474D01*
Y47456D01*
Y47400D01*
X113853Y47308D01*
X113797Y47215D01*
X113742Y47123D01*
X113649Y47030D01*
X113520Y46975D01*
X113334Y46956D01*
X113260D01*
X113168Y46993D01*
X113075Y47030D01*
X112983Y47086D01*
X112890Y47178D01*
X112835Y47308D01*
X112816Y47474D01*
Y56936D01*
Y56955D01*
Y57029D01*
X112853Y57103D01*
X112890Y57214D01*
X112946Y57307D01*
X113038Y57399D01*
X113168Y57455D01*
X113334Y57473D01*
X116093D01*
X116186Y57455D01*
D02*
G37*
G36*
X366149Y100381D02*
X366260Y100325D01*
X366353Y100270D01*
X366445Y100177D01*
X366501Y100048D01*
X366519Y99862D01*
Y99844D01*
Y99788D01*
X366501Y99696D01*
X366445Y99603D01*
X366390Y99511D01*
X366297Y99418D01*
X366167Y99362D01*
X365982Y99344D01*
X362835D01*
Y96196D01*
X364520D01*
X364594Y96178D01*
X364797Y96159D01*
X365056Y96104D01*
X365334Y96011D01*
X365649Y95863D01*
X365964Y95678D01*
X366260Y95419D01*
X366297Y95381D01*
X366390Y95289D01*
X366501Y95122D01*
X366649Y94900D01*
X366797Y94622D01*
X366908Y94307D01*
X367001Y93937D01*
X367038Y93548D01*
Y92511D01*
Y92493D01*
Y92456D01*
Y92400D01*
X367019Y92326D01*
X367001Y92122D01*
X366945Y91863D01*
X366853Y91567D01*
X366704Y91271D01*
X366519Y90937D01*
X366260Y90641D01*
X366223Y90604D01*
X366130Y90530D01*
X365964Y90400D01*
X365742Y90271D01*
X365464Y90123D01*
X365149Y89993D01*
X364797Y89919D01*
X364408Y89882D01*
X362223D01*
X362131Y89919D01*
X362038Y89956D01*
X361946Y90012D01*
X361853Y90104D01*
X361797Y90234D01*
X361779Y90400D01*
Y90419D01*
Y90493D01*
X361816Y90567D01*
X361853Y90678D01*
X361909Y90771D01*
X362001Y90863D01*
X362131Y90919D01*
X362298Y90937D01*
X364520D01*
X364631Y90956D01*
X364797Y90993D01*
X364964Y91048D01*
X365149Y91123D01*
X365334Y91234D01*
X365519Y91382D01*
X365538Y91400D01*
X365593Y91474D01*
X365667Y91567D01*
X365760Y91697D01*
X365834Y91863D01*
X365908Y92048D01*
X365964Y92271D01*
X365982Y92511D01*
Y93548D01*
Y93585D01*
Y93659D01*
X365964Y93789D01*
X365927Y93937D01*
X365871Y94122D01*
X365779Y94307D01*
X365667Y94493D01*
X365519Y94678D01*
X365501Y94696D01*
X365445Y94752D01*
X365334Y94826D01*
X365205Y94918D01*
X365038Y94993D01*
X364853Y95067D01*
X364649Y95122D01*
X364408Y95141D01*
X362223D01*
X362131Y95178D01*
X362038Y95215D01*
X361946Y95270D01*
X361853Y95363D01*
X361797Y95492D01*
X361779Y95659D01*
Y99862D01*
Y99881D01*
Y99955D01*
X361816Y100029D01*
X361853Y100140D01*
X361909Y100233D01*
X362001Y100325D01*
X362131Y100381D01*
X362298Y100399D01*
X366075D01*
X366149Y100381D01*
D02*
G37*
G36*
X356724D02*
X356835D01*
X356965Y100344D01*
X357280Y100288D01*
X357631Y100177D01*
X358002Y100011D01*
X358187Y99900D01*
X358372Y99788D01*
X358557Y99640D01*
X358742Y99474D01*
X358761Y99455D01*
X358779Y99437D01*
X358835Y99381D01*
X358890Y99307D01*
X358965Y99214D01*
X359039Y99103D01*
X359205Y98844D01*
X359372Y98529D01*
X359520Y98140D01*
X359631Y97715D01*
X359650Y97474D01*
X359668Y97233D01*
Y97215D01*
Y97141D01*
X359650Y97029D01*
X359631Y96881D01*
X359613Y96715D01*
X359576Y96511D01*
X359501Y96289D01*
X359427Y96048D01*
X359335Y95807D01*
X359205Y95567D01*
X359057Y95326D01*
X358872Y95085D01*
X358650Y94863D01*
X358391Y94659D01*
X358094Y94474D01*
X357761Y94307D01*
X359594Y90641D01*
X359613Y90623D01*
X359631Y90567D01*
X359650Y90493D01*
X359668Y90400D01*
Y90363D01*
X359650Y90271D01*
X359594Y90160D01*
X359501Y90030D01*
X359464Y90012D01*
X359390Y89956D01*
X359279Y89901D01*
X359131Y89882D01*
X359076D01*
X359020Y89901D01*
X358946Y89919D01*
X358872Y89956D01*
X358779Y89993D01*
X358705Y90067D01*
X358650Y90160D01*
X356706Y94085D01*
X354409D01*
Y90400D01*
Y90382D01*
Y90326D01*
X354391Y90234D01*
X354335Y90141D01*
X354280Y90049D01*
X354187Y89956D01*
X354058Y89901D01*
X353872Y89882D01*
X353798D01*
X353706Y89919D01*
X353613Y89956D01*
X353521Y90012D01*
X353428Y90104D01*
X353372Y90234D01*
X353354Y90400D01*
Y99862D01*
Y99881D01*
Y99955D01*
X353391Y100029D01*
X353428Y100140D01*
X353484Y100233D01*
X353576Y100325D01*
X353706Y100381D01*
X353872Y100399D01*
X356631D01*
X356724Y100381D01*
D02*
G37*
G36*
X364575Y80315D02*
X364668Y80259D01*
X364760Y80204D01*
X364853Y80111D01*
X364908Y79982D01*
X364927Y79796D01*
Y79778D01*
Y79759D01*
X364908Y79648D01*
X363001Y72982D01*
X365464D01*
Y74556D01*
Y74575D01*
Y74649D01*
X365501Y74723D01*
X365538Y74834D01*
X365593Y74927D01*
X365686Y75019D01*
X365816Y75075D01*
X365982Y75093D01*
X366075D01*
X366149Y75075D01*
X366260Y75019D01*
X366353Y74964D01*
X366445Y74871D01*
X366501Y74741D01*
X366519Y74556D01*
Y72982D01*
X367649D01*
X367723Y72964D01*
X367834Y72908D01*
X367926Y72853D01*
X368019Y72760D01*
X368075Y72631D01*
X368093Y72445D01*
Y72427D01*
Y72371D01*
X368075Y72279D01*
X368019Y72186D01*
X367964Y72094D01*
X367871Y72001D01*
X367741Y71945D01*
X367556Y71927D01*
X366519D01*
Y70335D01*
Y70316D01*
Y70260D01*
X366501Y70168D01*
X366445Y70075D01*
X366390Y69983D01*
X366297Y69890D01*
X366167Y69834D01*
X365982Y69816D01*
X365908D01*
X365816Y69853D01*
X365723Y69890D01*
X365630Y69946D01*
X365538Y70038D01*
X365482Y70168D01*
X365464Y70335D01*
Y71927D01*
X362223D01*
X362131Y71964D01*
X362038Y72001D01*
X361946Y72056D01*
X361853Y72149D01*
X361797Y72279D01*
X361779Y72445D01*
Y72464D01*
Y72501D01*
Y72593D01*
X363890Y79945D01*
Y79963D01*
X363908Y80000D01*
X363946Y80074D01*
X364001Y80148D01*
X364075Y80204D01*
X364149Y80278D01*
X364279Y80315D01*
X364408Y80333D01*
X364482D01*
X364575Y80315D01*
D02*
G37*
G36*
X356724D02*
X356835D01*
X356965Y80278D01*
X357280Y80222D01*
X357631Y80111D01*
X358002Y79945D01*
X358187Y79833D01*
X358372Y79722D01*
X358557Y79574D01*
X358742Y79408D01*
X358761Y79389D01*
X358779Y79371D01*
X358835Y79315D01*
X358890Y79241D01*
X358965Y79148D01*
X359039Y79037D01*
X359205Y78778D01*
X359372Y78463D01*
X359520Y78074D01*
X359631Y77649D01*
X359650Y77408D01*
X359668Y77167D01*
Y77149D01*
Y77074D01*
X359650Y76963D01*
X359631Y76815D01*
X359613Y76649D01*
X359576Y76445D01*
X359501Y76223D01*
X359427Y75982D01*
X359335Y75741D01*
X359205Y75501D01*
X359057Y75260D01*
X358872Y75019D01*
X358650Y74797D01*
X358391Y74593D01*
X358094Y74408D01*
X357761Y74241D01*
X359594Y70575D01*
X359613Y70557D01*
X359631Y70501D01*
X359650Y70427D01*
X359668Y70335D01*
Y70297D01*
X359650Y70205D01*
X359594Y70094D01*
X359501Y69964D01*
X359464Y69946D01*
X359390Y69890D01*
X359279Y69834D01*
X359131Y69816D01*
X359076D01*
X359020Y69834D01*
X358946Y69853D01*
X358872Y69890D01*
X358779Y69927D01*
X358705Y70001D01*
X358650Y70094D01*
X356706Y74019D01*
X354409D01*
Y70335D01*
Y70316D01*
Y70260D01*
X354391Y70168D01*
X354335Y70075D01*
X354280Y69983D01*
X354187Y69890D01*
X354058Y69834D01*
X353872Y69816D01*
X353798D01*
X353706Y69853D01*
X353613Y69890D01*
X353521Y69946D01*
X353428Y70038D01*
X353372Y70168D01*
X353354Y70335D01*
Y79796D01*
Y79815D01*
Y79889D01*
X353391Y79963D01*
X353428Y80074D01*
X353484Y80167D01*
X353576Y80259D01*
X353706Y80315D01*
X353872Y80333D01*
X356631D01*
X356724Y80315D01*
D02*
G37*
G36*
X446382Y97333D02*
X446585Y97314D01*
X446826Y97259D01*
X447122Y97166D01*
X447437Y97018D01*
X447752Y96833D01*
X448048Y96574D01*
X448085Y96537D01*
X448178Y96444D01*
X448289Y96278D01*
X448437Y96055D01*
X448585Y95778D01*
X448696Y95463D01*
X448789Y95111D01*
X448826Y94722D01*
Y94704D01*
Y94667D01*
Y94592D01*
X448807Y94500D01*
X448789Y94389D01*
X448770Y94259D01*
X448696Y93963D01*
X448567Y93630D01*
X448492Y93463D01*
X448381Y93278D01*
X448252Y93111D01*
X448122Y92926D01*
X447956Y92759D01*
X447770Y92611D01*
X447789D01*
X447807Y92574D01*
X447863Y92537D01*
X447937Y92463D01*
X448104Y92296D01*
X448307Y92056D01*
X448492Y91741D01*
X448659Y91389D01*
X448733Y91185D01*
X448789Y90963D01*
X448807Y90741D01*
X448826Y90500D01*
Y89463D01*
Y89445D01*
Y89408D01*
Y89352D01*
X448807Y89278D01*
X448789Y89074D01*
X448733Y88815D01*
X448641Y88519D01*
X448492Y88223D01*
X448307Y87889D01*
X448048Y87593D01*
X448011Y87556D01*
X447918Y87482D01*
X447752Y87353D01*
X447530Y87223D01*
X447252Y87075D01*
X446937Y86945D01*
X446585Y86871D01*
X446196Y86834D01*
X444011D01*
X443919Y86871D01*
X443826Y86908D01*
X443734Y86964D01*
X443641Y87056D01*
X443586Y87186D01*
X443567Y87353D01*
Y87371D01*
Y87445D01*
X443604Y87519D01*
X443641Y87630D01*
X443697Y87723D01*
X443789Y87815D01*
X443919Y87871D01*
X444086Y87889D01*
X446289D01*
X446419Y87908D01*
X446567Y87945D01*
X446752Y88000D01*
X446937Y88075D01*
X447122Y88186D01*
X447307Y88334D01*
X447326Y88352D01*
X447382Y88426D01*
X447455Y88519D01*
X447548Y88649D01*
X447622Y88815D01*
X447696Y89000D01*
X447752Y89223D01*
X447770Y89463D01*
Y90500D01*
Y90537D01*
Y90611D01*
X447752Y90741D01*
X447715Y90889D01*
X447659Y91074D01*
X447567Y91259D01*
X447455Y91445D01*
X447289Y91630D01*
X447270Y91648D01*
X447215Y91704D01*
X447104Y91778D01*
X446974Y91870D01*
X446807Y91945D01*
X446622Y92019D01*
X446419Y92074D01*
X446178Y92093D01*
X445048D01*
X444956Y92130D01*
X444863Y92167D01*
X444771Y92222D01*
X444678Y92315D01*
X444622Y92444D01*
X444604Y92611D01*
Y92630D01*
Y92704D01*
X444641Y92778D01*
X444678Y92889D01*
X444734Y92982D01*
X444826Y93074D01*
X444956Y93130D01*
X445122Y93148D01*
X446289D01*
X446419Y93167D01*
X446567Y93204D01*
X446752Y93259D01*
X446937Y93333D01*
X447122Y93444D01*
X447307Y93593D01*
X447326Y93611D01*
X447382Y93685D01*
X447455Y93778D01*
X447548Y93907D01*
X447622Y94074D01*
X447696Y94259D01*
X447752Y94481D01*
X447770Y94722D01*
Y94759D01*
Y94833D01*
X447752Y94944D01*
X447715Y95111D01*
X447659Y95278D01*
X447567Y95463D01*
X447455Y95648D01*
X447307Y95833D01*
X447289Y95852D01*
X447233Y95907D01*
X447122Y95981D01*
X446993Y96074D01*
X446826Y96148D01*
X446641Y96222D01*
X446419Y96278D01*
X446178Y96296D01*
X444011D01*
X443919Y96333D01*
X443826Y96370D01*
X443734Y96426D01*
X443641Y96518D01*
X443586Y96648D01*
X443567Y96814D01*
Y96833D01*
Y96907D01*
X443604Y96981D01*
X443641Y97092D01*
X443697Y97185D01*
X443789Y97277D01*
X443919Y97333D01*
X444086Y97351D01*
X446307D01*
X446382Y97333D01*
D02*
G37*
G36*
X438512D02*
X438623D01*
X438753Y97296D01*
X439067Y97240D01*
X439419Y97129D01*
X439790Y96963D01*
X439975Y96852D01*
X440160Y96740D01*
X440345Y96592D01*
X440530Y96426D01*
X440549Y96407D01*
X440567Y96389D01*
X440623Y96333D01*
X440678Y96259D01*
X440752Y96166D01*
X440827Y96055D01*
X440993Y95796D01*
X441160Y95481D01*
X441308Y95092D01*
X441419Y94667D01*
X441438Y94426D01*
X441456Y94185D01*
Y94167D01*
Y94093D01*
X441438Y93981D01*
X441419Y93833D01*
X441401Y93667D01*
X441364Y93463D01*
X441289Y93241D01*
X441215Y93000D01*
X441123Y92759D01*
X440993Y92519D01*
X440845Y92278D01*
X440660Y92037D01*
X440438Y91815D01*
X440178Y91611D01*
X439882Y91426D01*
X439549Y91259D01*
X441382Y87593D01*
X441401Y87575D01*
X441419Y87519D01*
X441438Y87445D01*
X441456Y87353D01*
Y87315D01*
X441438Y87223D01*
X441382Y87112D01*
X441289Y86982D01*
X441253Y86964D01*
X441178Y86908D01*
X441067Y86853D01*
X440919Y86834D01*
X440864D01*
X440808Y86853D01*
X440734Y86871D01*
X440660Y86908D01*
X440567Y86945D01*
X440493Y87019D01*
X440438Y87112D01*
X438493Y91037D01*
X436197D01*
Y87353D01*
Y87334D01*
Y87278D01*
X436179Y87186D01*
X436123Y87093D01*
X436068Y87001D01*
X435975Y86908D01*
X435846Y86853D01*
X435660Y86834D01*
X435586D01*
X435494Y86871D01*
X435401Y86908D01*
X435309Y86964D01*
X435216Y87056D01*
X435160Y87186D01*
X435142Y87353D01*
Y96814D01*
Y96833D01*
Y96907D01*
X435179Y96981D01*
X435216Y97092D01*
X435272Y97185D01*
X435364Y97277D01*
X435494Y97333D01*
X435660Y97351D01*
X438419D01*
X438512Y97333D01*
D02*
G37*
G36*
X426570Y67361D02*
X426773Y67342D01*
X427014Y67287D01*
X427310Y67194D01*
X427625Y67046D01*
X427940Y66861D01*
X428236Y66602D01*
X428273Y66565D01*
X428366Y66472D01*
X428477Y66305D01*
X428625Y66083D01*
X428773Y65806D01*
X428884Y65491D01*
X428977Y65139D01*
X429014Y64750D01*
Y64713D01*
Y64620D01*
X428995Y64472D01*
X428958Y64269D01*
X428903Y64046D01*
X428810Y63787D01*
X428699Y63509D01*
X428532Y63232D01*
X425218Y57917D01*
X428569D01*
X428643Y57899D01*
X428755Y57843D01*
X428847Y57788D01*
X428940Y57695D01*
X428995Y57566D01*
X429014Y57380D01*
Y57362D01*
Y57306D01*
X428995Y57214D01*
X428940Y57121D01*
X428884Y57029D01*
X428792Y56936D01*
X428662Y56880D01*
X428477Y56862D01*
X424199D01*
X424107Y56899D01*
X424014Y56936D01*
X423922Y56992D01*
X423829Y57084D01*
X423773Y57214D01*
X423755Y57380D01*
Y57417D01*
X423773Y57473D01*
X423792Y57584D01*
X423829Y57677D01*
X427699Y63880D01*
X427718Y63898D01*
X427736Y63954D01*
X427773Y64046D01*
X427829Y64158D01*
X427884Y64287D01*
X427921Y64435D01*
X427940Y64583D01*
X427958Y64750D01*
Y64787D01*
Y64861D01*
X427940Y64972D01*
X427903Y65139D01*
X427847Y65306D01*
X427755Y65491D01*
X427644Y65676D01*
X427495Y65861D01*
X427477Y65880D01*
X427421Y65935D01*
X427310Y66009D01*
X427181Y66102D01*
X427014Y66176D01*
X426829Y66250D01*
X426607Y66305D01*
X426366Y66324D01*
X426329D01*
X426218Y66305D01*
X426051Y66250D01*
X425829Y66157D01*
X425699Y66083D01*
X425570Y66009D01*
X425440Y65898D01*
X425292Y65768D01*
X425144Y65620D01*
X425014Y65435D01*
X424866Y65250D01*
X424718Y65009D01*
Y64991D01*
X424699Y64972D01*
X424607Y64880D01*
X424477Y64787D01*
X424385Y64769D01*
X424273Y64750D01*
X424199D01*
X424107Y64787D01*
X424014Y64824D01*
X423922Y64880D01*
X423829Y64972D01*
X423773Y65102D01*
X423755Y65269D01*
Y65287D01*
Y65343D01*
X423792Y65491D01*
X423811Y65509D01*
X423829Y65565D01*
X423885Y65657D01*
X423977Y65787D01*
X424070Y65935D01*
X424181Y66083D01*
X424329Y66268D01*
X424477Y66435D01*
X424662Y66620D01*
X424866Y66787D01*
X425070Y66935D01*
X425292Y67083D01*
X425551Y67213D01*
X425810Y67305D01*
X426088Y67361D01*
X426384Y67379D01*
X426496D01*
X426570Y67361D01*
D02*
G37*
G36*
X418700D02*
X418811D01*
X418941Y67324D01*
X419255Y67268D01*
X419607Y67157D01*
X419978Y66991D01*
X420163Y66880D01*
X420348Y66768D01*
X420533Y66620D01*
X420718Y66454D01*
X420737Y66435D01*
X420755Y66417D01*
X420811Y66361D01*
X420866Y66287D01*
X420941Y66194D01*
X421015Y66083D01*
X421181Y65824D01*
X421348Y65509D01*
X421496Y65120D01*
X421607Y64694D01*
X421626Y64454D01*
X421644Y64213D01*
Y64195D01*
Y64120D01*
X421626Y64009D01*
X421607Y63861D01*
X421589Y63695D01*
X421552Y63491D01*
X421478Y63269D01*
X421403Y63028D01*
X421311Y62787D01*
X421181Y62547D01*
X421033Y62306D01*
X420848Y62065D01*
X420626Y61843D01*
X420367Y61639D01*
X420070Y61454D01*
X419737Y61287D01*
X421570Y57621D01*
X421589Y57603D01*
X421607Y57547D01*
X421626Y57473D01*
X421644Y57380D01*
Y57343D01*
X421626Y57251D01*
X421570Y57140D01*
X421478Y57010D01*
X421441Y56992D01*
X421366Y56936D01*
X421255Y56880D01*
X421107Y56862D01*
X421052D01*
X420996Y56880D01*
X420922Y56899D01*
X420848Y56936D01*
X420755Y56973D01*
X420681Y57047D01*
X420626Y57140D01*
X418681Y61065D01*
X416385D01*
Y57380D01*
Y57362D01*
Y57306D01*
X416367Y57214D01*
X416311Y57121D01*
X416256Y57029D01*
X416163Y56936D01*
X416034Y56880D01*
X415848Y56862D01*
X415774D01*
X415682Y56899D01*
X415589Y56936D01*
X415497Y56992D01*
X415404Y57084D01*
X415349Y57214D01*
X415330Y57380D01*
Y66842D01*
Y66861D01*
Y66935D01*
X415367Y67009D01*
X415404Y67120D01*
X415460Y67213D01*
X415552Y67305D01*
X415682Y67361D01*
X415848Y67379D01*
X418607D01*
X418700Y67361D01*
D02*
G37*
G36*
X190425Y92740D02*
X190536Y92685D01*
X190629Y92629D01*
X190722Y92536D01*
X190777Y92407D01*
X190796Y92222D01*
Y82760D01*
Y82741D01*
Y82686D01*
X190777Y82593D01*
X190722Y82500D01*
X190666Y82408D01*
X190574Y82315D01*
X190444Y82260D01*
X190259Y82241D01*
X190185D01*
X190092Y82278D01*
X190000Y82315D01*
X189907Y82371D01*
X189814Y82464D01*
X189759Y82593D01*
X189740Y82760D01*
Y90963D01*
X188518Y89740D01*
X188500Y89722D01*
X188426Y89667D01*
X188296Y89611D01*
X188148Y89592D01*
X188074D01*
X187981Y89629D01*
X187889Y89667D01*
X187796Y89722D01*
X187703Y89815D01*
X187648Y89944D01*
X187629Y90129D01*
Y90148D01*
Y90166D01*
X187648Y90259D01*
X187685Y90370D01*
X187778Y90500D01*
X189833Y92555D01*
X189851Y92574D01*
X189870Y92592D01*
X189962Y92666D01*
X190092Y92722D01*
X190185Y92759D01*
X190351D01*
X190425Y92740D01*
D02*
G37*
G36*
X182574D02*
X182685D01*
X182815Y92703D01*
X183130Y92648D01*
X183482Y92536D01*
X183852Y92370D01*
X184037Y92259D01*
X184222Y92148D01*
X184408Y92000D01*
X184593Y91833D01*
X184611Y91814D01*
X184630Y91796D01*
X184685Y91740D01*
X184741Y91666D01*
X184815Y91574D01*
X184889Y91463D01*
X185056Y91203D01*
X185222Y90889D01*
X185370Y90500D01*
X185481Y90074D01*
X185500Y89833D01*
X185518Y89592D01*
Y89574D01*
Y89500D01*
X185500Y89389D01*
X185481Y89241D01*
X185463Y89074D01*
X185426Y88870D01*
X185352Y88648D01*
X185278Y88407D01*
X185185Y88167D01*
X185056Y87926D01*
X184907Y87685D01*
X184722Y87444D01*
X184500Y87222D01*
X184241Y87019D01*
X183944Y86833D01*
X183611Y86667D01*
X185444Y83000D01*
X185463Y82982D01*
X185481Y82926D01*
X185500Y82852D01*
X185518Y82760D01*
Y82723D01*
X185500Y82630D01*
X185444Y82519D01*
X185352Y82389D01*
X185315Y82371D01*
X185241Y82315D01*
X185130Y82260D01*
X184981Y82241D01*
X184926D01*
X184870Y82260D01*
X184796Y82278D01*
X184722Y82315D01*
X184630Y82352D01*
X184556Y82427D01*
X184500Y82519D01*
X182556Y86445D01*
X180260D01*
Y82760D01*
Y82741D01*
Y82686D01*
X180241Y82593D01*
X180186Y82500D01*
X180130Y82408D01*
X180037Y82315D01*
X179908Y82260D01*
X179723Y82241D01*
X179649D01*
X179556Y82278D01*
X179464Y82315D01*
X179371Y82371D01*
X179278Y82464D01*
X179223Y82593D01*
X179204Y82760D01*
Y92222D01*
Y92240D01*
Y92314D01*
X179241Y92388D01*
X179278Y92500D01*
X179334Y92592D01*
X179426Y92685D01*
X179556Y92740D01*
X179723Y92759D01*
X182482D01*
X182574Y92740D01*
D02*
G37*
G36*
X83143Y139497D02*
X83236Y139441D01*
X83328Y139386D01*
X83421Y139293D01*
X83476Y139164D01*
X83495Y138978D01*
Y138960D01*
Y138941D01*
X83476Y138830D01*
X81569Y132164D01*
X84032D01*
Y133738D01*
Y133757D01*
Y133831D01*
X84069Y133905D01*
X84106Y134016D01*
X84162Y134109D01*
X84254Y134201D01*
X84384Y134257D01*
X84550Y134275D01*
X84643D01*
X84717Y134257D01*
X84828Y134201D01*
X84921Y134146D01*
X85013Y134053D01*
X85069Y133923D01*
X85087Y133738D01*
Y132164D01*
X86217D01*
X86291Y132146D01*
X86402Y132090D01*
X86495Y132035D01*
X86587Y131942D01*
X86643Y131812D01*
X86661Y131627D01*
Y131609D01*
Y131553D01*
X86643Y131461D01*
X86587Y131368D01*
X86532Y131276D01*
X86439Y131183D01*
X86309Y131127D01*
X86124Y131109D01*
X85087D01*
Y129516D01*
Y129498D01*
Y129442D01*
X85069Y129350D01*
X85013Y129257D01*
X84958Y129165D01*
X84865Y129072D01*
X84735Y129017D01*
X84550Y128998D01*
X84476D01*
X84384Y129035D01*
X84291Y129072D01*
X84199Y129128D01*
X84106Y129220D01*
X84050Y129350D01*
X84032Y129516D01*
Y131109D01*
X80791D01*
X80699Y131146D01*
X80606Y131183D01*
X80514Y131238D01*
X80421Y131331D01*
X80365Y131461D01*
X80347Y131627D01*
Y131646D01*
Y131683D01*
Y131776D01*
X82458Y139127D01*
Y139145D01*
X82476Y139182D01*
X82514Y139256D01*
X82569Y139330D01*
X82643Y139386D01*
X82717Y139460D01*
X82847Y139497D01*
X82976Y139515D01*
X83050D01*
X83143Y139497D01*
D02*
G37*
G36*
X75773D02*
X75977Y139478D01*
X76236Y139423D01*
X76533Y139330D01*
X76847Y139182D01*
X77162Y138997D01*
X77458Y138738D01*
X77495Y138701D01*
X77588Y138608D01*
X77699Y138441D01*
X77847Y138219D01*
X77995Y137960D01*
X78106Y137645D01*
X78199Y137275D01*
X78236Y136886D01*
Y131627D01*
Y131609D01*
Y131572D01*
Y131516D01*
X78218Y131442D01*
X78199Y131238D01*
X78144Y130979D01*
X78051Y130683D01*
X77903Y130387D01*
X77718Y130053D01*
X77458Y129757D01*
X77421Y129720D01*
X77329Y129646D01*
X77162Y129516D01*
X76940Y129387D01*
X76662Y129239D01*
X76347Y129109D01*
X75977Y129035D01*
X75588Y128998D01*
X72366D01*
X72274Y129035D01*
X72181Y129072D01*
X72089Y129128D01*
X71996Y129220D01*
X71940Y129350D01*
X71922Y129516D01*
Y138978D01*
Y138997D01*
Y139071D01*
X71959Y139145D01*
X71996Y139256D01*
X72052Y139349D01*
X72144Y139441D01*
X72274Y139497D01*
X72440Y139515D01*
X75699D01*
X75773Y139497D01*
D02*
G37*
G36*
X223116Y144577D02*
X223319Y144558D01*
X223560Y144503D01*
X223856Y144410D01*
X224171Y144262D01*
X224486Y144077D01*
X224782Y143818D01*
X224819Y143781D01*
X224912Y143688D01*
X225023Y143521D01*
X225171Y143299D01*
X225319Y143021D01*
X225430Y142707D01*
X225523Y142355D01*
X225560Y141966D01*
Y141947D01*
Y141910D01*
Y141836D01*
X225541Y141744D01*
X225523Y141633D01*
X225504Y141503D01*
X225430Y141207D01*
X225301Y140874D01*
X225226Y140707D01*
X225115Y140522D01*
X224986Y140355D01*
X224856Y140170D01*
X224690Y140003D01*
X224504Y139855D01*
X224523D01*
X224541Y139818D01*
X224597Y139781D01*
X224671Y139707D01*
X224838Y139540D01*
X225041Y139300D01*
X225226Y138985D01*
X225393Y138633D01*
X225467Y138429D01*
X225523Y138207D01*
X225541Y137985D01*
X225560Y137744D01*
Y136707D01*
Y136689D01*
Y136652D01*
Y136596D01*
X225541Y136522D01*
X225523Y136319D01*
X225467Y136059D01*
X225375Y135763D01*
X225226Y135467D01*
X225041Y135133D01*
X224782Y134837D01*
X224745Y134800D01*
X224652Y134726D01*
X224486Y134597D01*
X224264Y134467D01*
X223986Y134319D01*
X223671Y134189D01*
X223319Y134115D01*
X222930Y134078D01*
X220745D01*
X220653Y134115D01*
X220560Y134152D01*
X220468Y134208D01*
X220375Y134300D01*
X220319Y134430D01*
X220301Y134597D01*
Y134615D01*
Y134689D01*
X220338Y134763D01*
X220375Y134874D01*
X220431Y134967D01*
X220523Y135059D01*
X220653Y135115D01*
X220819Y135133D01*
X223023D01*
X223153Y135152D01*
X223301Y135189D01*
X223486Y135245D01*
X223671Y135319D01*
X223856Y135430D01*
X224041Y135578D01*
X224060Y135596D01*
X224116Y135670D01*
X224189Y135763D01*
X224282Y135893D01*
X224356Y136059D01*
X224430Y136244D01*
X224486Y136467D01*
X224504Y136707D01*
Y137744D01*
Y137781D01*
Y137855D01*
X224486Y137985D01*
X224449Y138133D01*
X224393Y138318D01*
X224301Y138504D01*
X224189Y138689D01*
X224023Y138874D01*
X224004Y138892D01*
X223949Y138948D01*
X223838Y139022D01*
X223708Y139115D01*
X223541Y139189D01*
X223356Y139263D01*
X223153Y139318D01*
X222912Y139337D01*
X221782D01*
X221690Y139374D01*
X221597Y139411D01*
X221505Y139466D01*
X221412Y139559D01*
X221357Y139689D01*
X221338Y139855D01*
Y139874D01*
Y139948D01*
X221375Y140022D01*
X221412Y140133D01*
X221468Y140225D01*
X221560Y140318D01*
X221690Y140374D01*
X221856Y140392D01*
X223023D01*
X223153Y140411D01*
X223301Y140448D01*
X223486Y140503D01*
X223671Y140577D01*
X223856Y140688D01*
X224041Y140836D01*
X224060Y140855D01*
X224116Y140929D01*
X224189Y141022D01*
X224282Y141151D01*
X224356Y141318D01*
X224430Y141503D01*
X224486Y141725D01*
X224504Y141966D01*
Y142003D01*
Y142077D01*
X224486Y142188D01*
X224449Y142355D01*
X224393Y142522D01*
X224301Y142707D01*
X224189Y142892D01*
X224041Y143077D01*
X224023Y143096D01*
X223967Y143151D01*
X223856Y143225D01*
X223727Y143318D01*
X223560Y143392D01*
X223375Y143466D01*
X223153Y143521D01*
X222912Y143540D01*
X220745D01*
X220653Y143577D01*
X220560Y143614D01*
X220468Y143670D01*
X220375Y143762D01*
X220319Y143892D01*
X220301Y144058D01*
Y144077D01*
Y144151D01*
X220338Y144225D01*
X220375Y144336D01*
X220431Y144429D01*
X220523Y144521D01*
X220653Y144577D01*
X220819Y144595D01*
X223041D01*
X223116Y144577D01*
D02*
G37*
G36*
X215727D02*
X215931Y144558D01*
X216190Y144503D01*
X216487Y144410D01*
X216801Y144262D01*
X217116Y144077D01*
X217412Y143818D01*
X217449Y143781D01*
X217542Y143688D01*
X217653Y143521D01*
X217801Y143299D01*
X217949Y143040D01*
X218060Y142725D01*
X218153Y142355D01*
X218190Y141966D01*
Y136707D01*
Y136689D01*
Y136652D01*
Y136596D01*
X218172Y136522D01*
X218153Y136319D01*
X218098Y136059D01*
X218005Y135763D01*
X217857Y135467D01*
X217672Y135133D01*
X217412Y134837D01*
X217375Y134800D01*
X217283Y134726D01*
X217116Y134597D01*
X216894Y134467D01*
X216616Y134319D01*
X216301Y134189D01*
X215931Y134115D01*
X215542Y134078D01*
X212320D01*
X212228Y134115D01*
X212135Y134152D01*
X212043Y134208D01*
X211950Y134300D01*
X211894Y134430D01*
X211876Y134597D01*
Y144058D01*
Y144077D01*
Y144151D01*
X211913Y144225D01*
X211950Y144336D01*
X212006Y144429D01*
X212098Y144521D01*
X212228Y144577D01*
X212394Y144595D01*
X215653D01*
X215727Y144577D01*
D02*
G37*
G36*
X216898Y10240D02*
X217101Y10222D01*
X217342Y10166D01*
X217638Y10074D01*
X217953Y9926D01*
X218268Y9740D01*
X218564Y9481D01*
X218601Y9444D01*
X218694Y9351D01*
X218805Y9185D01*
X218953Y8963D01*
X219101Y8685D01*
X219212Y8370D01*
X219305Y8018D01*
X219342Y7629D01*
Y7592D01*
Y7500D01*
X219323Y7352D01*
X219286Y7148D01*
X219231Y6926D01*
X219138Y6666D01*
X219027Y6389D01*
X218860Y6111D01*
X215546Y797D01*
X218897D01*
X218972Y778D01*
X219083Y723D01*
X219175Y667D01*
X219268Y575D01*
X219323Y445D01*
X219342Y260D01*
Y241D01*
Y186D01*
X219323Y93D01*
X219268Y1D01*
X219212Y-92D01*
X219120Y-185D01*
X218990Y-240D01*
X218805Y-259D01*
X214528D01*
X214435Y-222D01*
X214342Y-185D01*
X214250Y-129D01*
X214157Y-37D01*
X214102Y93D01*
X214083Y260D01*
Y297D01*
X214102Y352D01*
X214120Y463D01*
X214157Y556D01*
X218027Y6759D01*
X218046Y6778D01*
X218064Y6833D01*
X218101Y6926D01*
X218157Y7037D01*
X218212Y7167D01*
X218249Y7315D01*
X218268Y7463D01*
X218286Y7629D01*
Y7666D01*
Y7740D01*
X218268Y7852D01*
X218231Y8018D01*
X218175Y8185D01*
X218083Y8370D01*
X217972Y8555D01*
X217824Y8740D01*
X217805Y8759D01*
X217750Y8814D01*
X217638Y8888D01*
X217509Y8981D01*
X217342Y9055D01*
X217157Y9129D01*
X216935Y9185D01*
X216694Y9203D01*
X216657D01*
X216546Y9185D01*
X216379Y9129D01*
X216157Y9037D01*
X216027Y8963D01*
X215898Y8888D01*
X215768Y8777D01*
X215620Y8648D01*
X215472Y8500D01*
X215342Y8314D01*
X215194Y8129D01*
X215046Y7889D01*
Y7870D01*
X215028Y7852D01*
X214935Y7759D01*
X214805Y7666D01*
X214713Y7648D01*
X214602Y7629D01*
X214528D01*
X214435Y7666D01*
X214342Y7703D01*
X214250Y7759D01*
X214157Y7852D01*
X214102Y7981D01*
X214083Y8148D01*
Y8166D01*
Y8222D01*
X214120Y8370D01*
X214139Y8389D01*
X214157Y8444D01*
X214213Y8537D01*
X214305Y8666D01*
X214398Y8814D01*
X214509Y8963D01*
X214657Y9148D01*
X214805Y9314D01*
X214991Y9500D01*
X215194Y9666D01*
X215398Y9814D01*
X215620Y9962D01*
X215879Y10092D01*
X216138Y10185D01*
X216416Y10240D01*
X216712Y10259D01*
X216824D01*
X216898Y10240D01*
D02*
G37*
G36*
X209510D02*
X209713Y10222D01*
X209972Y10166D01*
X210269Y10074D01*
X210583Y9926D01*
X210898Y9740D01*
X211195Y9481D01*
X211232Y9444D01*
X211324Y9351D01*
X211435Y9185D01*
X211583Y8963D01*
X211732Y8703D01*
X211843Y8389D01*
X211935Y8018D01*
X211972Y7629D01*
Y2371D01*
Y2352D01*
Y2315D01*
Y2260D01*
X211954Y2185D01*
X211935Y1982D01*
X211880Y1723D01*
X211787Y1426D01*
X211639Y1130D01*
X211454Y797D01*
X211195Y501D01*
X211157Y463D01*
X211065Y389D01*
X210898Y260D01*
X210676Y130D01*
X210398Y-18D01*
X210084Y-148D01*
X209713Y-222D01*
X209324Y-259D01*
X206103D01*
X206010Y-222D01*
X205917Y-185D01*
X205825Y-129D01*
X205732Y-37D01*
X205677Y93D01*
X205658Y260D01*
Y9722D01*
Y9740D01*
Y9814D01*
X205695Y9888D01*
X205732Y9999D01*
X205788Y10092D01*
X205880Y10185D01*
X206010Y10240D01*
X206177Y10259D01*
X209436D01*
X209510Y10240D01*
D02*
G37*
G36*
X285327Y139497D02*
X285438Y139441D01*
X285531Y139386D01*
X285623Y139293D01*
X285679Y139164D01*
X285697Y138978D01*
Y129516D01*
Y129498D01*
Y129442D01*
X285679Y129350D01*
X285623Y129257D01*
X285568Y129165D01*
X285475Y129072D01*
X285346Y129017D01*
X285160Y128998D01*
X285086D01*
X284994Y129035D01*
X284901Y129072D01*
X284809Y129128D01*
X284716Y129220D01*
X284660Y129350D01*
X284642Y129516D01*
Y137719D01*
X283420Y136497D01*
X283401Y136479D01*
X283327Y136423D01*
X283198Y136368D01*
X283050Y136349D01*
X282975D01*
X282883Y136386D01*
X282790Y136423D01*
X282698Y136479D01*
X282605Y136571D01*
X282549Y136701D01*
X282531Y136886D01*
Y136905D01*
Y136923D01*
X282549Y137016D01*
X282587Y137127D01*
X282679Y137256D01*
X284734Y139312D01*
X284753Y139330D01*
X284771Y139349D01*
X284864Y139423D01*
X284994Y139478D01*
X285086Y139515D01*
X285253D01*
X285327Y139497D01*
D02*
G37*
G36*
X277957D02*
X278161Y139478D01*
X278420Y139423D01*
X278717Y139330D01*
X279031Y139182D01*
X279346Y138997D01*
X279642Y138738D01*
X279680Y138701D01*
X279772Y138608D01*
X279883Y138441D01*
X280031Y138219D01*
X280179Y137960D01*
X280291Y137645D01*
X280383Y137275D01*
X280420Y136886D01*
Y131627D01*
Y131609D01*
Y131572D01*
Y131516D01*
X280402Y131442D01*
X280383Y131238D01*
X280328Y130979D01*
X280235Y130683D01*
X280087Y130387D01*
X279902Y130053D01*
X279642Y129757D01*
X279605Y129720D01*
X279513Y129646D01*
X279346Y129516D01*
X279124Y129387D01*
X278846Y129239D01*
X278531Y129109D01*
X278161Y129035D01*
X277772Y128998D01*
X274550D01*
X274458Y129035D01*
X274365Y129072D01*
X274273Y129128D01*
X274180Y129220D01*
X274125Y129350D01*
X274106Y129516D01*
Y138978D01*
Y138997D01*
Y139071D01*
X274143Y139145D01*
X274180Y139256D01*
X274236Y139349D01*
X274328Y139441D01*
X274458Y139497D01*
X274624Y139515D01*
X277883D01*
X277957Y139497D01*
D02*
G37*
G36*
X93170Y105207D02*
X93262Y105188D01*
X93392Y105170D01*
X93522Y105114D01*
X93688Y105059D01*
X93855Y104966D01*
X94022Y104874D01*
X94207Y104726D01*
X94373Y104577D01*
X94558Y104374D01*
X94725Y104151D01*
X94892Y103874D01*
X95058Y103559D01*
X95188Y103207D01*
Y103189D01*
X95207Y103152D01*
X95225Y103077D01*
X95262Y102966D01*
X95299Y102837D01*
X95336Y102670D01*
X95373Y102485D01*
X95429Y102281D01*
X95466Y102059D01*
X95503Y101818D01*
X95540Y101541D01*
X95577Y101263D01*
X95632Y100652D01*
X95651Y99967D01*
Y99948D01*
Y99893D01*
Y99782D01*
Y99652D01*
X95632Y99485D01*
Y99300D01*
X95614Y99078D01*
X95596Y98856D01*
X95540Y98337D01*
X95447Y97800D01*
X95336Y97245D01*
X95188Y96708D01*
Y96689D01*
X95151Y96615D01*
X95114Y96523D01*
X95058Y96393D01*
X94984Y96245D01*
X94892Y96078D01*
X94670Y95708D01*
X94355Y95338D01*
X94188Y95171D01*
X93984Y95023D01*
X93781Y94893D01*
X93540Y94801D01*
X93299Y94726D01*
X93022Y94708D01*
X92948D01*
X92873Y94726D01*
X92781Y94745D01*
X92651Y94763D01*
X92503Y94819D01*
X92355Y94875D01*
X92188Y94967D01*
X92003Y95060D01*
X91837Y95189D01*
X91651Y95356D01*
X91466Y95560D01*
X91300Y95782D01*
X91133Y96041D01*
X90966Y96356D01*
X90837Y96708D01*
Y96726D01*
X90818Y96763D01*
X90800Y96856D01*
X90763Y96948D01*
X90726Y97078D01*
X90689Y97245D01*
X90652Y97430D01*
X90615Y97634D01*
X90577Y97856D01*
X90540Y98115D01*
X90503Y98374D01*
X90466Y98671D01*
X90411Y99282D01*
X90392Y99967D01*
Y99985D01*
Y100059D01*
Y100152D01*
Y100281D01*
X90411Y100448D01*
Y100633D01*
X90429Y100837D01*
X90448Y101078D01*
X90503Y101578D01*
X90577Y102133D01*
X90689Y102689D01*
X90837Y103226D01*
Y103244D01*
X90874Y103318D01*
X90911Y103411D01*
X90966Y103540D01*
X91040Y103688D01*
X91133Y103855D01*
X91374Y104226D01*
X91670Y104596D01*
X91855Y104762D01*
X92040Y104911D01*
X92262Y105040D01*
X92503Y105133D01*
X92744Y105207D01*
X93022Y105225D01*
X93096D01*
X93170Y105207D01*
D02*
G37*
G36*
X87930D02*
X88041Y105151D01*
X88133Y105096D01*
X88226Y105003D01*
X88281Y104874D01*
X88300Y104688D01*
Y95226D01*
Y95208D01*
Y95152D01*
X88281Y95060D01*
X88226Y94967D01*
X88170Y94875D01*
X88078Y94782D01*
X87948Y94726D01*
X87763Y94708D01*
X87689D01*
X87596Y94745D01*
X87504Y94782D01*
X87411Y94838D01*
X87318Y94930D01*
X87263Y95060D01*
X87245Y95226D01*
Y103429D01*
X86022Y102207D01*
X86004Y102189D01*
X85930Y102133D01*
X85800Y102078D01*
X85652Y102059D01*
X85578D01*
X85485Y102096D01*
X85393Y102133D01*
X85300Y102189D01*
X85208Y102281D01*
X85152Y102411D01*
X85134Y102596D01*
Y102615D01*
Y102633D01*
X85152Y102726D01*
X85189Y102837D01*
X85282Y102966D01*
X87337Y105022D01*
X87356Y105040D01*
X87374Y105059D01*
X87467Y105133D01*
X87596Y105188D01*
X87689Y105225D01*
X87856D01*
X87930Y105207D01*
D02*
G37*
G36*
X82652D02*
X82764Y105151D01*
X82856Y105096D01*
X82949Y105003D01*
X83004Y104874D01*
X83023Y104688D01*
Y104670D01*
Y104614D01*
X83004Y104522D01*
X82949Y104429D01*
X82893Y104337D01*
X82801Y104244D01*
X82671Y104188D01*
X82486Y104170D01*
X80282D01*
X80153Y104151D01*
X80005Y104114D01*
X79819Y104059D01*
X79634Y103966D01*
X79449Y103855D01*
X79264Y103707D01*
X79245Y103688D01*
X79190Y103633D01*
X79116Y103522D01*
X79042Y103392D01*
X78968Y103226D01*
X78893Y103041D01*
X78838Y102818D01*
X78819Y102577D01*
Y97337D01*
Y97300D01*
Y97226D01*
X78838Y97097D01*
X78875Y96948D01*
X78931Y96763D01*
X79005Y96578D01*
X79116Y96393D01*
X79264Y96208D01*
X79282Y96189D01*
X79356Y96134D01*
X79449Y96060D01*
X79579Y95986D01*
X79745Y95912D01*
X79930Y95837D01*
X80153Y95782D01*
X80393Y95763D01*
X82578D01*
X82652Y95745D01*
X82764Y95689D01*
X82856Y95634D01*
X82949Y95541D01*
X83004Y95412D01*
X83023Y95226D01*
Y95208D01*
Y95152D01*
X83004Y95060D01*
X82949Y94967D01*
X82893Y94875D01*
X82801Y94782D01*
X82671Y94726D01*
X82486Y94708D01*
X80282D01*
X80208Y94726D01*
X80005Y94745D01*
X79745Y94801D01*
X79449Y94893D01*
X79153Y95023D01*
X78819Y95208D01*
X78523Y95467D01*
X78486Y95504D01*
X78412Y95615D01*
X78282Y95763D01*
X78153Y95986D01*
X78005Y96263D01*
X77875Y96578D01*
X77801Y96948D01*
X77764Y97337D01*
Y102596D01*
Y102615D01*
Y102652D01*
Y102707D01*
X77783Y102781D01*
X77801Y102985D01*
X77857Y103226D01*
X77949Y103522D01*
X78079Y103837D01*
X78264Y104151D01*
X78523Y104448D01*
X78560Y104485D01*
X78671Y104577D01*
X78819Y104688D01*
X79042Y104837D01*
X79319Y104985D01*
X79634Y105096D01*
X80005Y105188D01*
X80393Y105225D01*
X82578D01*
X82652Y105207D01*
D02*
G37*
G36*
X126048Y138735D02*
X126252Y138716D01*
X126511Y138661D01*
X126789Y138568D01*
X127104Y138420D01*
X127418Y138235D01*
X127715Y137976D01*
X127752Y137939D01*
X127844Y137846D01*
X127955Y137680D01*
X128104Y137457D01*
X128252Y137198D01*
X128363Y136883D01*
X128455Y136513D01*
X128492Y136124D01*
Y132958D01*
Y132921D01*
Y132847D01*
X128474Y132698D01*
X128455Y132513D01*
X128418Y132291D01*
X128363Y132032D01*
X128289Y131736D01*
X128177Y131439D01*
X128048Y131106D01*
X127881Y130754D01*
X127678Y130402D01*
X127437Y130051D01*
X127159Y129699D01*
X126826Y129366D01*
X126437Y129032D01*
X125993Y128736D01*
X125955Y128717D01*
X125863Y128662D01*
X125715Y128569D01*
X125548Y128495D01*
X125344Y128403D01*
X125141Y128310D01*
X124974Y128254D01*
X124808Y128236D01*
X124770D01*
X124678Y128254D01*
X124567Y128292D01*
X124437Y128384D01*
X124419Y128421D01*
X124363Y128495D01*
X124289Y128606D01*
X124270Y128755D01*
Y128773D01*
Y128810D01*
X124289Y128884D01*
X124307Y128958D01*
X124345Y129032D01*
X124382Y129106D01*
X124456Y129162D01*
X124548Y129199D01*
X124567Y129217D01*
X124641Y129236D01*
X124752Y129273D01*
X124882Y129328D01*
X125196Y129477D01*
X125344Y129551D01*
X125493Y129643D01*
X125511Y129662D01*
X125567Y129699D01*
X125659Y129754D01*
X125770Y129847D01*
X125900Y129958D01*
X126048Y130088D01*
X126196Y130236D01*
X126363Y130402D01*
X126548Y130588D01*
X126715Y130810D01*
X126863Y131032D01*
X127011Y131291D01*
X127141Y131551D01*
X127252Y131828D01*
X127344Y132125D01*
X127400Y132439D01*
X125752D01*
X125678Y132458D01*
X125474Y132476D01*
X125215Y132532D01*
X124919Y132624D01*
X124622Y132754D01*
X124289Y132939D01*
X123993Y133198D01*
X123956Y133236D01*
X123882Y133347D01*
X123752Y133495D01*
X123622Y133717D01*
X123474Y133995D01*
X123345Y134309D01*
X123271Y134680D01*
X123234Y135069D01*
Y136105D01*
Y136124D01*
Y136161D01*
Y136217D01*
X123252Y136291D01*
X123271Y136494D01*
X123326Y136754D01*
X123419Y137050D01*
X123548Y137365D01*
X123734Y137680D01*
X123993Y137976D01*
X124030Y138013D01*
X124141Y138105D01*
X124289Y138216D01*
X124511Y138365D01*
X124789Y138513D01*
X125104Y138624D01*
X125474Y138716D01*
X125863Y138753D01*
X125974D01*
X126048Y138735D01*
D02*
G37*
G36*
X120752D02*
X120864Y138679D01*
X120956Y138624D01*
X121049Y138531D01*
X121104Y138402D01*
X121123Y138216D01*
Y138198D01*
Y138142D01*
X121104Y138050D01*
X121049Y137957D01*
X120993Y137865D01*
X120900Y137772D01*
X120771Y137717D01*
X120586Y137698D01*
X118382D01*
X118253Y137680D01*
X118104Y137642D01*
X117919Y137587D01*
X117734Y137494D01*
X117549Y137383D01*
X117364Y137235D01*
X117345Y137217D01*
X117290Y137161D01*
X117216Y137050D01*
X117142Y136920D01*
X117068Y136754D01*
X116994Y136568D01*
X116938Y136346D01*
X116919Y136105D01*
Y130865D01*
Y130828D01*
Y130754D01*
X116938Y130625D01*
X116975Y130477D01*
X117030Y130291D01*
X117105Y130106D01*
X117216Y129921D01*
X117364Y129736D01*
X117382Y129717D01*
X117456Y129662D01*
X117549Y129588D01*
X117679Y129514D01*
X117845Y129440D01*
X118030Y129366D01*
X118253Y129310D01*
X118493Y129291D01*
X120678D01*
X120752Y129273D01*
X120864Y129217D01*
X120956Y129162D01*
X121049Y129069D01*
X121104Y128940D01*
X121123Y128755D01*
Y128736D01*
Y128680D01*
X121104Y128588D01*
X121049Y128495D01*
X120993Y128403D01*
X120900Y128310D01*
X120771Y128254D01*
X120586Y128236D01*
X118382D01*
X118308Y128254D01*
X118104Y128273D01*
X117845Y128329D01*
X117549Y128421D01*
X117253Y128551D01*
X116919Y128736D01*
X116623Y128995D01*
X116586Y129032D01*
X116512Y129143D01*
X116382Y129291D01*
X116253Y129514D01*
X116105Y129791D01*
X115975Y130106D01*
X115901Y130477D01*
X115864Y130865D01*
Y136124D01*
Y136143D01*
Y136180D01*
Y136235D01*
X115883Y136309D01*
X115901Y136513D01*
X115957Y136754D01*
X116049Y137050D01*
X116179Y137365D01*
X116364Y137680D01*
X116623Y137976D01*
X116660Y138013D01*
X116771Y138105D01*
X116919Y138216D01*
X117142Y138365D01*
X117419Y138513D01*
X117734Y138624D01*
X118104Y138716D01*
X118493Y138753D01*
X120678D01*
X120752Y138735D01*
D02*
G37*
G36*
X176370Y142740D02*
X176574Y142722D01*
X176814Y142666D01*
X177111Y142574D01*
X177425Y142425D01*
X177740Y142240D01*
X178036Y141981D01*
X178074Y141944D01*
X178166Y141851D01*
X178277Y141685D01*
X178425Y141463D01*
X178573Y141185D01*
X178685Y140870D01*
X178777Y140518D01*
X178814Y140129D01*
Y140111D01*
Y140074D01*
Y140000D01*
X178796Y139907D01*
X178777Y139796D01*
X178759Y139667D01*
X178685Y139370D01*
X178555Y139037D01*
X178481Y138870D01*
X178370Y138685D01*
X178240Y138518D01*
X178111Y138333D01*
X177944Y138167D01*
X177759Y138019D01*
X177796Y138000D01*
X177888Y137907D01*
X178018Y137796D01*
X178166Y137630D01*
X178333Y137426D01*
X178481Y137185D01*
X178610Y136908D01*
X178703Y136611D01*
Y136593D01*
X178722Y136519D01*
X178740Y136408D01*
X178759Y136241D01*
X178777Y136000D01*
X178796Y135704D01*
Y135519D01*
X178814Y135315D01*
Y135111D01*
Y134871D01*
Y134852D01*
Y134815D01*
Y134760D01*
X178796Y134685D01*
X178777Y134482D01*
X178722Y134223D01*
X178629Y133926D01*
X178481Y133630D01*
X178296Y133297D01*
X178036Y133000D01*
X177999Y132963D01*
X177907Y132889D01*
X177740Y132760D01*
X177518Y132630D01*
X177240Y132482D01*
X176926Y132352D01*
X176574Y132278D01*
X176185Y132241D01*
X176074D01*
X176000Y132260D01*
X175796Y132278D01*
X175537Y132334D01*
X175240Y132427D01*
X174944Y132556D01*
X174611Y132741D01*
X174315Y133000D01*
X174278Y133038D01*
X174203Y133149D01*
X174074Y133297D01*
X173944Y133519D01*
X173796Y133797D01*
X173666Y134111D01*
X173592Y134482D01*
X173555Y134871D01*
Y135908D01*
Y135926D01*
Y135963D01*
Y136037D01*
X173574Y136130D01*
X173592Y136241D01*
X173611Y136370D01*
X173685Y136667D01*
X173815Y137000D01*
X174000Y137352D01*
X174111Y137537D01*
X174259Y137704D01*
X174407Y137870D01*
X174592Y138019D01*
X174574Y138037D01*
X174555Y138055D01*
X174426Y138167D01*
X174259Y138333D01*
X174074Y138574D01*
X173889Y138889D01*
X173722Y139241D01*
X173592Y139667D01*
X173574Y139889D01*
X173555Y140129D01*
Y140148D01*
Y140185D01*
Y140240D01*
X173574Y140315D01*
X173592Y140518D01*
X173648Y140759D01*
X173741Y141055D01*
X173870Y141370D01*
X174055Y141685D01*
X174315Y141981D01*
X174352Y142018D01*
X174463Y142111D01*
X174611Y142222D01*
X174833Y142370D01*
X175111Y142518D01*
X175426Y142629D01*
X175796Y142722D01*
X176185Y142759D01*
X176296D01*
X176370Y142740D01*
D02*
G37*
G36*
X171074D02*
X171185Y142685D01*
X171278Y142629D01*
X171371Y142536D01*
X171426Y142407D01*
X171444Y142222D01*
Y142203D01*
Y142148D01*
X171426Y142055D01*
X171371Y141962D01*
X171315Y141870D01*
X171222Y141777D01*
X171093Y141722D01*
X170908Y141703D01*
X168704D01*
X168575Y141685D01*
X168426Y141648D01*
X168241Y141592D01*
X168056Y141500D01*
X167871Y141389D01*
X167686Y141240D01*
X167667Y141222D01*
X167612Y141166D01*
X167537Y141055D01*
X167463Y140926D01*
X167389Y140759D01*
X167315Y140574D01*
X167260Y140352D01*
X167241Y140111D01*
Y134871D01*
Y134834D01*
Y134760D01*
X167260Y134630D01*
X167297Y134482D01*
X167352Y134297D01*
X167426Y134111D01*
X167537Y133926D01*
X167686Y133741D01*
X167704Y133723D01*
X167778Y133667D01*
X167871Y133593D01*
X168001Y133519D01*
X168167Y133445D01*
X168352Y133371D01*
X168575Y133315D01*
X168815Y133297D01*
X171000D01*
X171074Y133278D01*
X171185Y133223D01*
X171278Y133167D01*
X171371Y133075D01*
X171426Y132945D01*
X171444Y132760D01*
Y132741D01*
Y132686D01*
X171426Y132593D01*
X171371Y132500D01*
X171315Y132408D01*
X171222Y132315D01*
X171093Y132260D01*
X170908Y132241D01*
X168704D01*
X168630Y132260D01*
X168426Y132278D01*
X168167Y132334D01*
X167871Y132427D01*
X167575Y132556D01*
X167241Y132741D01*
X166945Y133000D01*
X166908Y133038D01*
X166834Y133149D01*
X166704Y133297D01*
X166575Y133519D01*
X166427Y133797D01*
X166297Y134111D01*
X166223Y134482D01*
X166186Y134871D01*
Y140129D01*
Y140148D01*
Y140185D01*
Y140240D01*
X166204Y140315D01*
X166223Y140518D01*
X166278Y140759D01*
X166371Y141055D01*
X166501Y141370D01*
X166686Y141685D01*
X166945Y141981D01*
X166982Y142018D01*
X167093Y142111D01*
X167241Y142222D01*
X167463Y142370D01*
X167741Y142518D01*
X168056Y142629D01*
X168426Y142722D01*
X168815Y142759D01*
X171000D01*
X171074Y142740D01*
D02*
G37*
G36*
X230944Y92740D02*
X231036Y92703D01*
X231129Y92629D01*
X231222Y92536D01*
X231277Y92407D01*
X231314Y92240D01*
Y92203D01*
X231296Y92111D01*
X230388Y88037D01*
X230870D01*
X230944Y88019D01*
X231055Y87963D01*
X231147Y87907D01*
X231240Y87815D01*
X231296Y87685D01*
X231314Y87500D01*
Y87481D01*
Y87426D01*
X231296Y87333D01*
X231240Y87241D01*
X231185Y87148D01*
X231092Y87056D01*
X230962Y87000D01*
X230777Y86982D01*
X230148Y86963D01*
X229185Y82649D01*
Y82630D01*
X229166Y82593D01*
X229129Y82519D01*
X229092Y82445D01*
X229018Y82371D01*
X228944Y82297D01*
X228833Y82260D01*
X228685Y82241D01*
X228611D01*
X228518Y82278D01*
X228426Y82315D01*
X228314Y82371D01*
X228240Y82464D01*
X228166Y82593D01*
X228148Y82760D01*
Y82778D01*
Y82797D01*
X228166Y82871D01*
X229074Y86982D01*
X228592D01*
X228500Y87019D01*
X228407Y87056D01*
X228314Y87111D01*
X228222Y87204D01*
X228166Y87333D01*
X228148Y87500D01*
Y87519D01*
Y87593D01*
X228185Y87667D01*
X228222Y87778D01*
X228277Y87870D01*
X228370Y87963D01*
X228500Y88019D01*
X228666Y88037D01*
X229296Y88019D01*
X230111Y91703D01*
X226500D01*
X226407Y91740D01*
X226315Y91777D01*
X226222Y91833D01*
X226129Y91925D01*
X226074Y92055D01*
X226055Y92222D01*
Y92240D01*
Y92314D01*
X226092Y92388D01*
X226129Y92500D01*
X226185Y92592D01*
X226278Y92685D01*
X226407Y92740D01*
X226574Y92759D01*
X230851D01*
X230944Y92740D01*
D02*
G37*
G36*
X223574D02*
X223685Y92685D01*
X223778Y92629D01*
X223871Y92536D01*
X223926Y92407D01*
X223944Y92222D01*
Y92203D01*
Y92148D01*
X223926Y92055D01*
X223871Y91962D01*
X223815Y91870D01*
X223722Y91777D01*
X223593Y91722D01*
X223408Y91703D01*
X221204D01*
X221075Y91685D01*
X220926Y91648D01*
X220741Y91592D01*
X220556Y91500D01*
X220371Y91389D01*
X220186Y91240D01*
X220167Y91222D01*
X220112Y91166D01*
X220037Y91055D01*
X219963Y90926D01*
X219889Y90759D01*
X219815Y90574D01*
X219760Y90352D01*
X219741Y90111D01*
Y84871D01*
Y84834D01*
Y84760D01*
X219760Y84630D01*
X219797Y84482D01*
X219852Y84297D01*
X219926Y84111D01*
X220037Y83926D01*
X220186Y83741D01*
X220204Y83723D01*
X220278Y83667D01*
X220371Y83593D01*
X220500Y83519D01*
X220667Y83445D01*
X220852Y83371D01*
X221075Y83315D01*
X221315Y83297D01*
X223500D01*
X223574Y83278D01*
X223685Y83223D01*
X223778Y83167D01*
X223871Y83075D01*
X223926Y82945D01*
X223944Y82760D01*
Y82741D01*
Y82686D01*
X223926Y82593D01*
X223871Y82500D01*
X223815Y82408D01*
X223722Y82315D01*
X223593Y82260D01*
X223408Y82241D01*
X221204D01*
X221130Y82260D01*
X220926Y82278D01*
X220667Y82334D01*
X220371Y82427D01*
X220075Y82556D01*
X219741Y82741D01*
X219445Y83000D01*
X219408Y83038D01*
X219334Y83149D01*
X219204Y83297D01*
X219075Y83519D01*
X218927Y83797D01*
X218797Y84111D01*
X218723Y84482D01*
X218686Y84871D01*
Y90129D01*
Y90148D01*
Y90185D01*
Y90240D01*
X218704Y90315D01*
X218723Y90518D01*
X218778Y90759D01*
X218871Y91055D01*
X219001Y91370D01*
X219186Y91685D01*
X219445Y91981D01*
X219482Y92018D01*
X219593Y92111D01*
X219741Y92222D01*
X219963Y92370D01*
X220241Y92518D01*
X220556Y92629D01*
X220926Y92722D01*
X221315Y92759D01*
X223500D01*
X223574Y92740D01*
D02*
G37*
G36*
X204028Y142291D02*
X204140Y142235D01*
X204232Y142180D01*
X204325Y142087D01*
X204380Y141958D01*
X204399Y141772D01*
Y141754D01*
Y141717D01*
X204380Y141643D01*
X204362Y141569D01*
X204288Y141421D01*
X204232Y141365D01*
X204140Y141328D01*
X204121D01*
X204084Y141309D01*
X204028Y141291D01*
X203936Y141272D01*
X203843Y141217D01*
X203714Y141180D01*
X203436Y141050D01*
X203121Y140847D01*
X202769Y140606D01*
X202418Y140310D01*
X202251Y140125D01*
X202084Y139921D01*
Y139902D01*
X202047Y139884D01*
X201973Y139773D01*
X201862Y139587D01*
X201733Y139365D01*
X201584Y139087D01*
X201455Y138791D01*
X201362Y138458D01*
X201288Y138106D01*
X202936D01*
X203010Y138088D01*
X203214Y138069D01*
X203473Y138014D01*
X203769Y137921D01*
X204084Y137773D01*
X204399Y137588D01*
X204695Y137329D01*
X204732Y137291D01*
X204806Y137199D01*
X204936Y137032D01*
X205084Y136810D01*
X205214Y136532D01*
X205343Y136217D01*
X205417Y135866D01*
X205454Y135458D01*
Y134421D01*
Y134403D01*
Y134366D01*
Y134310D01*
X205436Y134236D01*
X205417Y134032D01*
X205362Y133773D01*
X205269Y133477D01*
X205121Y133162D01*
X204936Y132847D01*
X204677Y132551D01*
X204640Y132514D01*
X204547Y132440D01*
X204380Y132310D01*
X204158Y132181D01*
X203880Y132033D01*
X203566Y131903D01*
X203214Y131829D01*
X202825Y131792D01*
X202714D01*
X202640Y131811D01*
X202436Y131829D01*
X202177Y131885D01*
X201881Y131977D01*
X201566Y132107D01*
X201251Y132292D01*
X200955Y132551D01*
X200918Y132588D01*
X200844Y132681D01*
X200714Y132847D01*
X200584Y133070D01*
X200436Y133329D01*
X200307Y133662D01*
X200233Y134014D01*
X200196Y134403D01*
Y137569D01*
Y137588D01*
Y137643D01*
Y137736D01*
X200214Y137865D01*
X200233Y138032D01*
X200251Y138199D01*
X200288Y138402D01*
X200344Y138625D01*
X200492Y139106D01*
X200584Y139365D01*
X200695Y139643D01*
X200825Y139902D01*
X200992Y140180D01*
X201177Y140439D01*
X201381Y140698D01*
X201399Y140717D01*
X201418Y140736D01*
X201473Y140791D01*
X201547Y140865D01*
X201733Y141050D01*
X201973Y141272D01*
X202288Y141513D01*
X202621Y141754D01*
X202992Y141995D01*
X203399Y142180D01*
X203417D01*
X203454Y142198D01*
X203566Y142254D01*
X203714Y142291D01*
X203862Y142309D01*
X203955D01*
X204028Y142291D01*
D02*
G37*
G36*
X197714D02*
X197826Y142235D01*
X197918Y142180D01*
X198011Y142087D01*
X198066Y141958D01*
X198085Y141772D01*
Y141754D01*
Y141698D01*
X198066Y141606D01*
X198011Y141513D01*
X197955Y141421D01*
X197862Y141328D01*
X197733Y141272D01*
X197548Y141254D01*
X195344D01*
X195215Y141236D01*
X195067Y141198D01*
X194881Y141143D01*
X194696Y141050D01*
X194511Y140939D01*
X194326Y140791D01*
X194307Y140772D01*
X194252Y140717D01*
X194178Y140606D01*
X194104Y140476D01*
X194030Y140310D01*
X193955Y140125D01*
X193900Y139902D01*
X193881Y139662D01*
Y134421D01*
Y134384D01*
Y134310D01*
X193900Y134181D01*
X193937Y134032D01*
X193993Y133847D01*
X194067Y133662D01*
X194178Y133477D01*
X194326Y133292D01*
X194344Y133273D01*
X194418Y133218D01*
X194511Y133144D01*
X194641Y133070D01*
X194807Y132996D01*
X194992Y132921D01*
X195215Y132866D01*
X195455Y132847D01*
X197640D01*
X197714Y132829D01*
X197826Y132773D01*
X197918Y132718D01*
X198011Y132625D01*
X198066Y132496D01*
X198085Y132310D01*
Y132292D01*
Y132236D01*
X198066Y132144D01*
X198011Y132051D01*
X197955Y131959D01*
X197862Y131866D01*
X197733Y131811D01*
X197548Y131792D01*
X195344D01*
X195270Y131811D01*
X195067Y131829D01*
X194807Y131885D01*
X194511Y131977D01*
X194215Y132107D01*
X193881Y132292D01*
X193585Y132551D01*
X193548Y132588D01*
X193474Y132699D01*
X193344Y132847D01*
X193215Y133070D01*
X193067Y133347D01*
X192937Y133662D01*
X192863Y134032D01*
X192826Y134421D01*
Y139680D01*
Y139699D01*
Y139736D01*
Y139791D01*
X192845Y139865D01*
X192863Y140069D01*
X192919Y140310D01*
X193011Y140606D01*
X193141Y140921D01*
X193326Y141236D01*
X193585Y141532D01*
X193622Y141569D01*
X193733Y141661D01*
X193881Y141772D01*
X194104Y141921D01*
X194381Y142069D01*
X194696Y142180D01*
X195067Y142272D01*
X195455Y142309D01*
X197640D01*
X197714Y142291D01*
D02*
G37*
G36*
X269590Y111811D02*
X269701Y111755D01*
X269793Y111700D01*
X269886Y111607D01*
X269941Y111478D01*
X269960Y111292D01*
Y111274D01*
Y111218D01*
X269941Y111126D01*
X269886Y111033D01*
X269830Y110941D01*
X269738Y110848D01*
X269608Y110793D01*
X269423Y110774D01*
X266275D01*
Y107626D01*
X267960D01*
X268034Y107608D01*
X268238Y107589D01*
X268497Y107534D01*
X268775Y107441D01*
X269090Y107293D01*
X269404Y107108D01*
X269701Y106848D01*
X269738Y106811D01*
X269830Y106719D01*
X269941Y106552D01*
X270089Y106330D01*
X270238Y106052D01*
X270349Y105737D01*
X270441Y105367D01*
X270478Y104978D01*
Y103941D01*
Y103923D01*
Y103886D01*
Y103830D01*
X270460Y103756D01*
X270441Y103553D01*
X270386Y103293D01*
X270293Y102997D01*
X270145Y102701D01*
X269960Y102367D01*
X269701Y102071D01*
X269664Y102034D01*
X269571Y101960D01*
X269404Y101831D01*
X269182Y101701D01*
X268904Y101553D01*
X268590Y101423D01*
X268238Y101349D01*
X267849Y101312D01*
X265664D01*
X265571Y101349D01*
X265479Y101386D01*
X265386Y101442D01*
X265294Y101534D01*
X265238Y101664D01*
X265220Y101831D01*
Y101849D01*
Y101923D01*
X265257Y101997D01*
X265294Y102108D01*
X265349Y102201D01*
X265442Y102293D01*
X265571Y102349D01*
X265738Y102367D01*
X267960D01*
X268071Y102386D01*
X268238Y102423D01*
X268404Y102479D01*
X268590Y102553D01*
X268775Y102664D01*
X268960Y102812D01*
X268979Y102830D01*
X269034Y102904D01*
X269108Y102997D01*
X269201Y103127D01*
X269275Y103293D01*
X269349Y103478D01*
X269404Y103701D01*
X269423Y103941D01*
Y104978D01*
Y105015D01*
Y105089D01*
X269404Y105219D01*
X269367Y105367D01*
X269312Y105552D01*
X269219Y105737D01*
X269108Y105923D01*
X268960Y106108D01*
X268941Y106126D01*
X268886Y106182D01*
X268775Y106256D01*
X268645Y106348D01*
X268479Y106423D01*
X268293Y106497D01*
X268090Y106552D01*
X267849Y106571D01*
X265664D01*
X265571Y106608D01*
X265479Y106645D01*
X265386Y106700D01*
X265294Y106793D01*
X265238Y106923D01*
X265220Y107089D01*
Y111292D01*
Y111311D01*
Y111385D01*
X265257Y111459D01*
X265294Y111570D01*
X265349Y111663D01*
X265442Y111755D01*
X265571Y111811D01*
X265738Y111829D01*
X269515D01*
X269590Y111811D01*
D02*
G37*
G36*
X262738D02*
X262850Y111755D01*
X262942Y111700D01*
X263035Y111607D01*
X263090Y111478D01*
X263109Y111292D01*
Y111274D01*
Y111218D01*
X263090Y111126D01*
X263035Y111033D01*
X262979Y110941D01*
X262887Y110848D01*
X262757Y110793D01*
X262572Y110774D01*
X260368D01*
X260239Y110756D01*
X260091Y110718D01*
X259905Y110663D01*
X259720Y110570D01*
X259535Y110459D01*
X259350Y110311D01*
X259331Y110293D01*
X259276Y110237D01*
X259202Y110126D01*
X259128Y109996D01*
X259054Y109830D01*
X258979Y109644D01*
X258924Y109422D01*
X258905Y109181D01*
Y103941D01*
Y103904D01*
Y103830D01*
X258924Y103701D01*
X258961Y103553D01*
X259016Y103367D01*
X259091Y103182D01*
X259202Y102997D01*
X259350Y102812D01*
X259368Y102793D01*
X259442Y102738D01*
X259535Y102664D01*
X259665Y102590D01*
X259831Y102516D01*
X260016Y102442D01*
X260239Y102386D01*
X260479Y102367D01*
X262664D01*
X262738Y102349D01*
X262850Y102293D01*
X262942Y102238D01*
X263035Y102145D01*
X263090Y102016D01*
X263109Y101831D01*
Y101812D01*
Y101756D01*
X263090Y101664D01*
X263035Y101571D01*
X262979Y101479D01*
X262887Y101386D01*
X262757Y101330D01*
X262572Y101312D01*
X260368D01*
X260294Y101330D01*
X260091Y101349D01*
X259831Y101405D01*
X259535Y101497D01*
X259239Y101627D01*
X258905Y101812D01*
X258609Y102071D01*
X258572Y102108D01*
X258498Y102219D01*
X258368Y102367D01*
X258239Y102590D01*
X258091Y102867D01*
X257961Y103182D01*
X257887Y103553D01*
X257850Y103941D01*
Y109200D01*
Y109219D01*
Y109256D01*
Y109311D01*
X257868Y109385D01*
X257887Y109589D01*
X257943Y109830D01*
X258035Y110126D01*
X258165Y110441D01*
X258350Y110756D01*
X258609Y111052D01*
X258646Y111089D01*
X258757Y111181D01*
X258905Y111292D01*
X259128Y111441D01*
X259405Y111589D01*
X259720Y111700D01*
X260091Y111792D01*
X260479Y111829D01*
X262664D01*
X262738Y111811D01*
D02*
G37*
G36*
X430296Y34323D02*
X430389Y34268D01*
X430481Y34212D01*
X430574Y34120D01*
X430629Y33990D01*
X430648Y33805D01*
Y32768D01*
X432240D01*
X432259D01*
X432314D01*
X432407Y32750D01*
X432500Y32694D01*
X432592Y32638D01*
X432685Y32546D01*
X432740Y32416D01*
X432759Y32231D01*
Y32157D01*
X432722Y32064D01*
X432685Y31972D01*
X432629Y31879D01*
X432537Y31787D01*
X432407Y31731D01*
X432240Y31713D01*
X430648D01*
Y28472D01*
X430611Y28379D01*
X430574Y28287D01*
X430518Y28194D01*
X430426Y28102D01*
X430296Y28046D01*
X430129Y28028D01*
X430111D01*
X430074D01*
X429981D01*
X422630Y30139D01*
X422612D01*
X422575Y30157D01*
X422500Y30194D01*
X422426Y30250D01*
X422371Y30324D01*
X422297Y30398D01*
X422260Y30528D01*
X422241Y30657D01*
Y30731D01*
X422260Y30824D01*
X422315Y30916D01*
X422371Y31009D01*
X422463Y31102D01*
X422593Y31157D01*
X422778Y31176D01*
X422797D01*
X422815D01*
X422926Y31157D01*
X429592Y29250D01*
Y31713D01*
X428018D01*
X428000D01*
X427926D01*
X427852Y31750D01*
X427741Y31787D01*
X427648Y31842D01*
X427556Y31935D01*
X427500Y32064D01*
X427481Y32231D01*
Y32324D01*
X427500Y32398D01*
X427556Y32509D01*
X427611Y32601D01*
X427704Y32694D01*
X427833Y32750D01*
X428018Y32768D01*
X429592D01*
Y33898D01*
X429611Y33972D01*
X429666Y34083D01*
X429722Y34175D01*
X429815Y34268D01*
X429944Y34323D01*
X430129Y34342D01*
X430148D01*
X430203D01*
X430296Y34323D01*
D02*
G37*
G36*
X432407Y25898D02*
X432500Y25843D01*
X432592Y25787D01*
X432685Y25695D01*
X432740Y25565D01*
X432759Y25380D01*
Y23176D01*
X432740Y23102D01*
X432722Y22899D01*
X432666Y22639D01*
X432574Y22343D01*
X432444Y22047D01*
X432259Y21714D01*
X432000Y21417D01*
X431963Y21380D01*
X431851Y21306D01*
X431703Y21177D01*
X431481Y21047D01*
X431203Y20899D01*
X430888Y20769D01*
X430518Y20695D01*
X430129Y20658D01*
X424871D01*
X424852D01*
X424815D01*
X424760D01*
X424686Y20677D01*
X424482Y20695D01*
X424241Y20751D01*
X423945Y20843D01*
X423630Y20973D01*
X423315Y21158D01*
X423019Y21417D01*
X422982Y21454D01*
X422889Y21565D01*
X422778Y21714D01*
X422630Y21936D01*
X422482Y22213D01*
X422371Y22528D01*
X422278Y22899D01*
X422241Y23287D01*
Y25472D01*
X422260Y25547D01*
X422315Y25658D01*
X422371Y25750D01*
X422463Y25843D01*
X422593Y25898D01*
X422778Y25917D01*
X422797D01*
X422852D01*
X422945Y25898D01*
X423037Y25843D01*
X423130Y25787D01*
X423223Y25695D01*
X423278Y25565D01*
X423297Y25380D01*
Y23176D01*
X423315Y23047D01*
X423352Y22899D01*
X423408Y22713D01*
X423500Y22528D01*
X423611Y22343D01*
X423760Y22158D01*
X423778Y22139D01*
X423834Y22084D01*
X423945Y22010D01*
X424074Y21936D01*
X424241Y21862D01*
X424426Y21788D01*
X424649Y21732D01*
X424889Y21714D01*
X430129D01*
X430166D01*
X430241D01*
X430370Y21732D01*
X430518Y21769D01*
X430703Y21825D01*
X430888Y21899D01*
X431074Y22010D01*
X431259Y22158D01*
X431277Y22176D01*
X431333Y22251D01*
X431407Y22343D01*
X431481Y22473D01*
X431555Y22639D01*
X431629Y22825D01*
X431685Y23047D01*
X431703Y23287D01*
Y25472D01*
X431722Y25547D01*
X431777Y25658D01*
X431833Y25750D01*
X431926Y25843D01*
X432055Y25898D01*
X432240Y25917D01*
X432259D01*
X432314D01*
X432407Y25898D01*
D02*
G37*
G36*
X228918Y110287D02*
X229122Y110268D01*
X229363Y110213D01*
X229659Y110120D01*
X229974Y109972D01*
X230288Y109787D01*
X230585Y109528D01*
X230622Y109491D01*
X230714Y109398D01*
X230825Y109232D01*
X230973Y109009D01*
X231122Y108731D01*
X231233Y108417D01*
X231325Y108065D01*
X231362Y107676D01*
Y107657D01*
Y107620D01*
Y107546D01*
X231344Y107454D01*
X231325Y107343D01*
X231307Y107213D01*
X231233Y106917D01*
X231103Y106584D01*
X231029Y106417D01*
X230918Y106232D01*
X230788Y106065D01*
X230659Y105880D01*
X230492Y105713D01*
X230307Y105565D01*
X230325D01*
X230344Y105528D01*
X230399Y105491D01*
X230473Y105417D01*
X230640Y105250D01*
X230844Y105010D01*
X231029Y104695D01*
X231196Y104343D01*
X231270Y104139D01*
X231325Y103917D01*
X231344Y103695D01*
X231362Y103454D01*
Y102417D01*
Y102399D01*
Y102362D01*
Y102306D01*
X231344Y102232D01*
X231325Y102029D01*
X231270Y101769D01*
X231177Y101473D01*
X231029Y101177D01*
X230844Y100843D01*
X230585Y100547D01*
X230548Y100510D01*
X230455Y100436D01*
X230288Y100307D01*
X230066Y100177D01*
X229788Y100029D01*
X229474Y99899D01*
X229122Y99825D01*
X228733Y99788D01*
X226548D01*
X226455Y99825D01*
X226363Y99862D01*
X226270Y99918D01*
X226178Y100010D01*
X226122Y100140D01*
X226104Y100307D01*
Y100325D01*
Y100399D01*
X226141Y100473D01*
X226178Y100584D01*
X226233Y100677D01*
X226326Y100769D01*
X226455Y100825D01*
X226622Y100843D01*
X228825D01*
X228955Y100862D01*
X229103Y100899D01*
X229288Y100955D01*
X229474Y101029D01*
X229659Y101140D01*
X229844Y101288D01*
X229862Y101306D01*
X229918Y101380D01*
X229992Y101473D01*
X230085Y101603D01*
X230159Y101769D01*
X230233Y101954D01*
X230288Y102177D01*
X230307Y102417D01*
Y103454D01*
Y103491D01*
Y103565D01*
X230288Y103695D01*
X230251Y103843D01*
X230196Y104028D01*
X230103Y104213D01*
X229992Y104399D01*
X229825Y104584D01*
X229807Y104602D01*
X229751Y104658D01*
X229640Y104732D01*
X229511Y104824D01*
X229344Y104899D01*
X229159Y104973D01*
X228955Y105028D01*
X228714Y105047D01*
X227585D01*
X227492Y105084D01*
X227400Y105121D01*
X227307Y105176D01*
X227215Y105269D01*
X227159Y105399D01*
X227141Y105565D01*
Y105584D01*
Y105658D01*
X227178Y105732D01*
X227215Y105843D01*
X227270Y105935D01*
X227363Y106028D01*
X227492Y106084D01*
X227659Y106102D01*
X228825D01*
X228955Y106121D01*
X229103Y106158D01*
X229288Y106213D01*
X229474Y106287D01*
X229659Y106398D01*
X229844Y106546D01*
X229862Y106565D01*
X229918Y106639D01*
X229992Y106732D01*
X230085Y106861D01*
X230159Y107028D01*
X230233Y107213D01*
X230288Y107435D01*
X230307Y107676D01*
Y107713D01*
Y107787D01*
X230288Y107898D01*
X230251Y108065D01*
X230196Y108232D01*
X230103Y108417D01*
X229992Y108602D01*
X229844Y108787D01*
X229825Y108806D01*
X229770Y108861D01*
X229659Y108935D01*
X229529Y109028D01*
X229363Y109102D01*
X229177Y109176D01*
X228955Y109232D01*
X228714Y109250D01*
X226548D01*
X226455Y109287D01*
X226363Y109324D01*
X226270Y109380D01*
X226178Y109472D01*
X226122Y109602D01*
X226104Y109768D01*
Y109787D01*
Y109861D01*
X226141Y109935D01*
X226178Y110046D01*
X226233Y110139D01*
X226326Y110231D01*
X226455Y110287D01*
X226622Y110305D01*
X228844D01*
X228918Y110287D01*
D02*
G37*
G36*
X223622D02*
X223734Y110231D01*
X223826Y110176D01*
X223919Y110083D01*
X223974Y109954D01*
X223993Y109768D01*
Y109750D01*
Y109694D01*
X223974Y109602D01*
X223919Y109509D01*
X223863Y109417D01*
X223771Y109324D01*
X223641Y109269D01*
X223456Y109250D01*
X221252D01*
X221123Y109232D01*
X220975Y109194D01*
X220789Y109139D01*
X220604Y109046D01*
X220419Y108935D01*
X220234Y108787D01*
X220215Y108769D01*
X220160Y108713D01*
X220086Y108602D01*
X220012Y108472D01*
X219938Y108306D01*
X219863Y108120D01*
X219808Y107898D01*
X219789Y107657D01*
Y102417D01*
Y102380D01*
Y102306D01*
X219808Y102177D01*
X219845Y102029D01*
X219900Y101843D01*
X219975Y101658D01*
X220086Y101473D01*
X220234Y101288D01*
X220252Y101269D01*
X220326Y101214D01*
X220419Y101140D01*
X220549Y101066D01*
X220715Y100992D01*
X220900Y100918D01*
X221123Y100862D01*
X221363Y100843D01*
X223548D01*
X223622Y100825D01*
X223734Y100769D01*
X223826Y100714D01*
X223919Y100621D01*
X223974Y100492D01*
X223993Y100307D01*
Y100288D01*
Y100232D01*
X223974Y100140D01*
X223919Y100047D01*
X223863Y99955D01*
X223771Y99862D01*
X223641Y99806D01*
X223456Y99788D01*
X221252D01*
X221178Y99806D01*
X220975Y99825D01*
X220715Y99881D01*
X220419Y99973D01*
X220123Y100103D01*
X219789Y100288D01*
X219493Y100547D01*
X219456Y100584D01*
X219382Y100695D01*
X219252Y100843D01*
X219123Y101066D01*
X218975Y101343D01*
X218845Y101658D01*
X218771Y102029D01*
X218734Y102417D01*
Y107676D01*
Y107695D01*
Y107732D01*
Y107787D01*
X218752Y107861D01*
X218771Y108065D01*
X218827Y108306D01*
X218919Y108602D01*
X219049Y108917D01*
X219234Y109232D01*
X219493Y109528D01*
X219530Y109565D01*
X219641Y109657D01*
X219789Y109768D01*
X220012Y109917D01*
X220289Y110065D01*
X220604Y110176D01*
X220975Y110268D01*
X221363Y110305D01*
X223548D01*
X223622Y110287D01*
D02*
G37*
G36*
X268034Y142291D02*
X268238Y142272D01*
X268479Y142217D01*
X268775Y142124D01*
X269090Y141976D01*
X269404Y141791D01*
X269701Y141532D01*
X269738Y141495D01*
X269830Y141402D01*
X269941Y141236D01*
X270089Y141013D01*
X270238Y140736D01*
X270349Y140421D01*
X270441Y140069D01*
X270478Y139680D01*
Y139643D01*
Y139550D01*
X270460Y139402D01*
X270423Y139199D01*
X270367Y138976D01*
X270275Y138717D01*
X270163Y138439D01*
X269997Y138162D01*
X266682Y132847D01*
X270034D01*
X270108Y132829D01*
X270219Y132773D01*
X270312Y132718D01*
X270404Y132625D01*
X270460Y132496D01*
X270478Y132310D01*
Y132292D01*
Y132236D01*
X270460Y132144D01*
X270404Y132051D01*
X270349Y131959D01*
X270256Y131866D01*
X270126Y131811D01*
X269941Y131792D01*
X265664D01*
X265571Y131829D01*
X265479Y131866D01*
X265386Y131922D01*
X265294Y132014D01*
X265238Y132144D01*
X265220Y132310D01*
Y132347D01*
X265238Y132403D01*
X265257Y132514D01*
X265294Y132607D01*
X269164Y138810D01*
X269182Y138828D01*
X269201Y138884D01*
X269238Y138976D01*
X269293Y139087D01*
X269349Y139217D01*
X269386Y139365D01*
X269404Y139513D01*
X269423Y139680D01*
Y139717D01*
Y139791D01*
X269404Y139902D01*
X269367Y140069D01*
X269312Y140236D01*
X269219Y140421D01*
X269108Y140606D01*
X268960Y140791D01*
X268941Y140810D01*
X268886Y140865D01*
X268775Y140939D01*
X268645Y141032D01*
X268479Y141106D01*
X268293Y141180D01*
X268071Y141236D01*
X267830Y141254D01*
X267793D01*
X267682Y141236D01*
X267516Y141180D01*
X267293Y141087D01*
X267164Y141013D01*
X267034Y140939D01*
X266905Y140828D01*
X266756Y140698D01*
X266608Y140550D01*
X266479Y140365D01*
X266331Y140180D01*
X266182Y139939D01*
Y139921D01*
X266164Y139902D01*
X266071Y139810D01*
X265942Y139717D01*
X265849Y139699D01*
X265738Y139680D01*
X265664D01*
X265571Y139717D01*
X265479Y139754D01*
X265386Y139810D01*
X265294Y139902D01*
X265238Y140032D01*
X265220Y140198D01*
Y140217D01*
Y140273D01*
X265257Y140421D01*
X265275Y140439D01*
X265294Y140495D01*
X265349Y140587D01*
X265442Y140717D01*
X265534Y140865D01*
X265646Y141013D01*
X265794Y141198D01*
X265942Y141365D01*
X266127Y141550D01*
X266331Y141717D01*
X266534Y141865D01*
X266756Y142013D01*
X267016Y142143D01*
X267275Y142235D01*
X267553Y142291D01*
X267849Y142309D01*
X267960D01*
X268034Y142291D01*
D02*
G37*
G36*
X262738D02*
X262850Y142235D01*
X262942Y142180D01*
X263035Y142087D01*
X263090Y141958D01*
X263109Y141772D01*
Y141754D01*
Y141698D01*
X263090Y141606D01*
X263035Y141513D01*
X262979Y141421D01*
X262887Y141328D01*
X262757Y141272D01*
X262572Y141254D01*
X260368D01*
X260239Y141236D01*
X260091Y141198D01*
X259905Y141143D01*
X259720Y141050D01*
X259535Y140939D01*
X259350Y140791D01*
X259331Y140772D01*
X259276Y140717D01*
X259202Y140606D01*
X259128Y140476D01*
X259054Y140310D01*
X258979Y140125D01*
X258924Y139902D01*
X258905Y139662D01*
Y134421D01*
Y134384D01*
Y134310D01*
X258924Y134181D01*
X258961Y134032D01*
X259016Y133847D01*
X259091Y133662D01*
X259202Y133477D01*
X259350Y133292D01*
X259368Y133273D01*
X259442Y133218D01*
X259535Y133144D01*
X259665Y133070D01*
X259831Y132996D01*
X260016Y132921D01*
X260239Y132866D01*
X260479Y132847D01*
X262664D01*
X262738Y132829D01*
X262850Y132773D01*
X262942Y132718D01*
X263035Y132625D01*
X263090Y132496D01*
X263109Y132310D01*
Y132292D01*
Y132236D01*
X263090Y132144D01*
X263035Y132051D01*
X262979Y131959D01*
X262887Y131866D01*
X262757Y131811D01*
X262572Y131792D01*
X260368D01*
X260294Y131811D01*
X260091Y131829D01*
X259831Y131885D01*
X259535Y131977D01*
X259239Y132107D01*
X258905Y132292D01*
X258609Y132551D01*
X258572Y132588D01*
X258498Y132699D01*
X258368Y132847D01*
X258239Y133070D01*
X258091Y133347D01*
X257961Y133662D01*
X257887Y134032D01*
X257850Y134421D01*
Y139680D01*
Y139699D01*
Y139736D01*
Y139791D01*
X257868Y139865D01*
X257887Y140069D01*
X257943Y140310D01*
X258035Y140606D01*
X258165Y140921D01*
X258350Y141236D01*
X258609Y141532D01*
X258646Y141569D01*
X258757Y141661D01*
X258905Y141772D01*
X259128Y141921D01*
X259405Y142069D01*
X259720Y142180D01*
X260091Y142272D01*
X260479Y142309D01*
X262664D01*
X262738Y142291D01*
D02*
G37*
G36*
X337866Y114351D02*
X337977Y114295D01*
X338069Y114240D01*
X338162Y114147D01*
X338217Y114018D01*
X338236Y113832D01*
Y104370D01*
Y104352D01*
Y104296D01*
X338217Y104204D01*
X338162Y104111D01*
X338106Y104019D01*
X338014Y103926D01*
X337884Y103870D01*
X337699Y103852D01*
X337625D01*
X337532Y103889D01*
X337440Y103926D01*
X337347Y103982D01*
X337254Y104074D01*
X337199Y104204D01*
X337180Y104370D01*
Y112573D01*
X335958Y111351D01*
X335940Y111333D01*
X335866Y111277D01*
X335736Y111222D01*
X335588Y111203D01*
X335514D01*
X335421Y111240D01*
X335329Y111277D01*
X335236Y111333D01*
X335144Y111425D01*
X335088Y111555D01*
X335070Y111740D01*
Y111759D01*
Y111777D01*
X335088Y111870D01*
X335125Y111981D01*
X335218Y112110D01*
X337273Y114166D01*
X337292Y114184D01*
X337310Y114203D01*
X337403Y114277D01*
X337532Y114332D01*
X337625Y114369D01*
X337791D01*
X337866Y114351D01*
D02*
G37*
G36*
X332588D02*
X332700Y114295D01*
X332792Y114240D01*
X332885Y114147D01*
X332940Y114018D01*
X332959Y113832D01*
Y113814D01*
Y113758D01*
X332940Y113666D01*
X332885Y113573D01*
X332829Y113481D01*
X332737Y113388D01*
X332607Y113333D01*
X332422Y113314D01*
X330218D01*
X330089Y113295D01*
X329940Y113258D01*
X329755Y113203D01*
X329570Y113110D01*
X329385Y112999D01*
X329200Y112851D01*
X329181Y112832D01*
X329126Y112777D01*
X329052Y112666D01*
X328978Y112536D01*
X328904Y112370D01*
X328829Y112184D01*
X328774Y111962D01*
X328755Y111721D01*
Y106481D01*
Y106444D01*
Y106370D01*
X328774Y106241D01*
X328811Y106093D01*
X328867Y105907D01*
X328941Y105722D01*
X329052Y105537D01*
X329200Y105352D01*
X329218Y105333D01*
X329292Y105278D01*
X329385Y105204D01*
X329515Y105130D01*
X329681Y105056D01*
X329866Y104981D01*
X330089Y104926D01*
X330329Y104907D01*
X332514D01*
X332588Y104889D01*
X332700Y104833D01*
X332792Y104778D01*
X332885Y104685D01*
X332940Y104556D01*
X332959Y104370D01*
Y104352D01*
Y104296D01*
X332940Y104204D01*
X332885Y104111D01*
X332829Y104019D01*
X332737Y103926D01*
X332607Y103870D01*
X332422Y103852D01*
X330218D01*
X330144Y103870D01*
X329940Y103889D01*
X329681Y103945D01*
X329385Y104037D01*
X329089Y104167D01*
X328755Y104352D01*
X328459Y104611D01*
X328422Y104648D01*
X328348Y104759D01*
X328218Y104907D01*
X328089Y105130D01*
X327941Y105407D01*
X327811Y105722D01*
X327737Y106093D01*
X327700Y106481D01*
Y111740D01*
Y111759D01*
Y111796D01*
Y111851D01*
X327719Y111925D01*
X327737Y112129D01*
X327793Y112370D01*
X327885Y112666D01*
X328015Y112981D01*
X328200Y113295D01*
X328459Y113592D01*
X328496Y113629D01*
X328607Y113721D01*
X328755Y113832D01*
X328978Y113981D01*
X329255Y114129D01*
X329570Y114240D01*
X329940Y114332D01*
X330329Y114369D01*
X332514D01*
X332588Y114351D01*
D02*
G37*
%LPC*%
G36*
X150463Y141203D02*
X150351D01*
X150222Y141185D01*
X150074Y141148D01*
X149888Y141092D01*
X149703Y141000D01*
X149518Y140889D01*
X149333Y140740D01*
X149314Y140722D01*
X149259Y140666D01*
X149185Y140555D01*
X149111Y140426D01*
X149037Y140259D01*
X148963Y140074D01*
X148907Y139870D01*
X148889Y139629D01*
Y139592D01*
Y139518D01*
X148907Y139389D01*
X148944Y139241D01*
X149000Y139055D01*
X149074Y138870D01*
X149185Y138685D01*
X149333Y138500D01*
X149352Y138481D01*
X149426Y138426D01*
X149518Y138352D01*
X149648Y138278D01*
X149815Y138204D01*
X150000Y138130D01*
X150222Y138074D01*
X150463Y138055D01*
X150574D01*
X150685Y138074D01*
X150851Y138111D01*
X151018Y138167D01*
X151203Y138241D01*
X151388Y138352D01*
X151574Y138500D01*
X151592Y138518D01*
X151648Y138592D01*
X151722Y138685D01*
X151814Y138815D01*
X151888Y138981D01*
X151962Y139166D01*
X152018Y139389D01*
X152037Y139629D01*
Y139666D01*
Y139740D01*
X152018Y139852D01*
X151981Y140018D01*
X151925Y140185D01*
X151833Y140370D01*
X151722Y140555D01*
X151574Y140740D01*
X151555Y140759D01*
X151500Y140814D01*
X151388Y140889D01*
X151259Y140981D01*
X151092Y141055D01*
X150907Y141129D01*
X150703Y141185D01*
X150463Y141203D01*
D02*
G37*
G36*
Y137000D02*
X150351D01*
X150222Y136981D01*
X150074Y136945D01*
X149888Y136889D01*
X149703Y136796D01*
X149518Y136685D01*
X149333Y136537D01*
X149314Y136519D01*
X149259Y136463D01*
X149185Y136352D01*
X149111Y136222D01*
X149037Y136056D01*
X148963Y135871D01*
X148907Y135648D01*
X148889Y135408D01*
Y134371D01*
Y134334D01*
Y134260D01*
X148907Y134130D01*
X148944Y133982D01*
X149000Y133797D01*
X149074Y133611D01*
X149185Y133426D01*
X149333Y133241D01*
X149352Y133223D01*
X149426Y133167D01*
X149518Y133093D01*
X149648Y133019D01*
X149815Y132945D01*
X150000Y132871D01*
X150222Y132815D01*
X150463Y132797D01*
X150574D01*
X150685Y132815D01*
X150851Y132852D01*
X151018Y132908D01*
X151203Y132982D01*
X151388Y133093D01*
X151574Y133241D01*
X151592Y133260D01*
X151648Y133334D01*
X151722Y133426D01*
X151814Y133556D01*
X151888Y133723D01*
X151962Y133908D01*
X152018Y134130D01*
X152037Y134371D01*
Y135408D01*
Y135445D01*
Y135519D01*
X152018Y135648D01*
X151981Y135796D01*
X151925Y135982D01*
X151833Y136167D01*
X151722Y136352D01*
X151574Y136537D01*
X151555Y136556D01*
X151500Y136611D01*
X151388Y136685D01*
X151259Y136778D01*
X151092Y136852D01*
X150907Y136926D01*
X150703Y136981D01*
X150463Y137000D01*
D02*
G37*
G36*
X142556Y141203D02*
X140464D01*
Y137000D01*
X142593D01*
X142704Y137018D01*
X142871Y137037D01*
X143074Y137074D01*
X143315Y137148D01*
X143556Y137259D01*
X143815Y137389D01*
X144056Y137592D01*
X144074Y137630D01*
X144148Y137704D01*
X144241Y137833D01*
X144371Y138018D01*
X144482Y138222D01*
X144574Y138481D01*
X144648Y138778D01*
X144667Y139092D01*
Y139111D01*
Y139129D01*
Y139241D01*
X144630Y139407D01*
X144593Y139611D01*
X144519Y139852D01*
X144408Y140092D01*
X144260Y140351D01*
X144056Y140592D01*
X144037Y140611D01*
X143945Y140685D01*
X143815Y140777D01*
X143649Y140907D01*
X143426Y141018D01*
X143167Y141111D01*
X142871Y141185D01*
X142556Y141203D01*
D02*
G37*
G36*
X71006Y56418D02*
X68913D01*
Y52215D01*
X71043D01*
X71154Y52233D01*
X71321Y52252D01*
X71524Y52289D01*
X71765Y52363D01*
X72006Y52474D01*
X72265Y52604D01*
X72506Y52807D01*
X72524Y52844D01*
X72598Y52918D01*
X72691Y53048D01*
X72820Y53233D01*
X72931Y53437D01*
X73024Y53696D01*
X73098Y53992D01*
X73117Y54307D01*
Y54326D01*
Y54344D01*
Y54455D01*
X73080Y54622D01*
X73043Y54826D01*
X72969Y55066D01*
X72857Y55307D01*
X72709Y55566D01*
X72506Y55807D01*
X72487Y55825D01*
X72394Y55900D01*
X72265Y55992D01*
X72098Y56122D01*
X71876Y56233D01*
X71617Y56325D01*
X71321Y56399D01*
X71006Y56418D01*
D02*
G37*
G36*
X123870Y52215D02*
X122296D01*
Y49585D01*
Y49548D01*
Y49474D01*
X122315Y49345D01*
X122352Y49197D01*
X122408Y49011D01*
X122482Y48826D01*
X122593Y48641D01*
X122741Y48456D01*
X122759Y48437D01*
X122833Y48382D01*
X122926Y48308D01*
X123056Y48234D01*
X123222Y48160D01*
X123407Y48085D01*
X123630Y48030D01*
X123870Y48011D01*
X123982D01*
X124093Y48030D01*
X124259Y48067D01*
X124426Y48123D01*
X124611Y48197D01*
X124796Y48308D01*
X124981Y48456D01*
X125000Y48474D01*
X125056Y48548D01*
X125129Y48641D01*
X125222Y48771D01*
X125296Y48937D01*
X125370Y49122D01*
X125426Y49345D01*
X125444Y49585D01*
Y50622D01*
Y50659D01*
Y50733D01*
X125426Y50863D01*
X125389Y51011D01*
X125333Y51196D01*
X125241Y51382D01*
X125129Y51567D01*
X124981Y51752D01*
X124963Y51770D01*
X124907Y51826D01*
X124796Y51900D01*
X124667Y51993D01*
X124500Y52067D01*
X124315Y52141D01*
X124111Y52196D01*
X123870Y52215D01*
D02*
G37*
G36*
X115964Y56418D02*
X113871D01*
Y52215D01*
X116001D01*
X116112Y52233D01*
X116279Y52252D01*
X116482Y52289D01*
X116723Y52363D01*
X116964Y52474D01*
X117223Y52604D01*
X117464Y52807D01*
X117482Y52844D01*
X117556Y52918D01*
X117649Y53048D01*
X117778Y53233D01*
X117889Y53437D01*
X117982Y53696D01*
X118056Y53992D01*
X118075Y54307D01*
Y54326D01*
Y54344D01*
Y54455D01*
X118038Y54622D01*
X118001Y54826D01*
X117927Y55066D01*
X117816Y55307D01*
X117667Y55566D01*
X117464Y55807D01*
X117445Y55825D01*
X117353Y55900D01*
X117223Y55992D01*
X117056Y56122D01*
X116834Y56233D01*
X116575Y56325D01*
X116279Y56399D01*
X115964Y56418D01*
D02*
G37*
G36*
X356502Y99344D02*
X354409D01*
Y95141D01*
X356539D01*
X356650Y95159D01*
X356817Y95178D01*
X357020Y95215D01*
X357261Y95289D01*
X357502Y95400D01*
X357761Y95530D01*
X358002Y95733D01*
X358020Y95770D01*
X358094Y95844D01*
X358187Y95974D01*
X358316Y96159D01*
X358428Y96363D01*
X358520Y96622D01*
X358594Y96918D01*
X358613Y97233D01*
Y97252D01*
Y97270D01*
Y97381D01*
X358576Y97548D01*
X358539Y97752D01*
X358465Y97992D01*
X358354Y98233D01*
X358205Y98492D01*
X358002Y98733D01*
X357983Y98751D01*
X357891Y98826D01*
X357761Y98918D01*
X357594Y99048D01*
X357372Y99159D01*
X357113Y99251D01*
X356817Y99326D01*
X356502Y99344D01*
D02*
G37*
G36*
Y79278D02*
X354409D01*
Y75075D01*
X356539D01*
X356650Y75093D01*
X356817Y75112D01*
X357020Y75149D01*
X357261Y75223D01*
X357502Y75334D01*
X357761Y75464D01*
X358002Y75667D01*
X358020Y75704D01*
X358094Y75778D01*
X358187Y75908D01*
X358316Y76093D01*
X358428Y76297D01*
X358520Y76556D01*
X358594Y76852D01*
X358613Y77167D01*
Y77186D01*
Y77204D01*
Y77315D01*
X358576Y77482D01*
X358539Y77685D01*
X358465Y77926D01*
X358354Y78167D01*
X358205Y78426D01*
X358002Y78667D01*
X357983Y78685D01*
X357891Y78759D01*
X357761Y78852D01*
X357594Y78982D01*
X357372Y79093D01*
X357113Y79185D01*
X356817Y79260D01*
X356502Y79278D01*
D02*
G37*
G36*
X438290Y96296D02*
X436197D01*
Y92093D01*
X438327D01*
X438438Y92111D01*
X438605Y92130D01*
X438808Y92167D01*
X439049Y92241D01*
X439290Y92352D01*
X439549Y92482D01*
X439790Y92685D01*
X439808Y92722D01*
X439882Y92796D01*
X439975Y92926D01*
X440104Y93111D01*
X440215Y93315D01*
X440308Y93574D01*
X440382Y93870D01*
X440401Y94185D01*
Y94204D01*
Y94222D01*
Y94333D01*
X440364Y94500D01*
X440327Y94704D01*
X440253Y94944D01*
X440141Y95185D01*
X439993Y95444D01*
X439790Y95685D01*
X439771Y95703D01*
X439678Y95778D01*
X439549Y95870D01*
X439382Y96000D01*
X439160Y96111D01*
X438901Y96203D01*
X438605Y96278D01*
X438290Y96296D01*
D02*
G37*
G36*
X418478Y66324D02*
X416385D01*
Y62121D01*
X418515D01*
X418626Y62139D01*
X418793Y62158D01*
X418996Y62195D01*
X419237Y62269D01*
X419478Y62380D01*
X419737Y62510D01*
X419978Y62713D01*
X419996Y62750D01*
X420070Y62824D01*
X420163Y62954D01*
X420292Y63139D01*
X420404Y63343D01*
X420496Y63602D01*
X420570Y63898D01*
X420589Y64213D01*
Y64232D01*
Y64250D01*
Y64361D01*
X420552Y64528D01*
X420515Y64731D01*
X420441Y64972D01*
X420330Y65213D01*
X420181Y65472D01*
X419978Y65713D01*
X419959Y65731D01*
X419866Y65806D01*
X419737Y65898D01*
X419570Y66028D01*
X419348Y66139D01*
X419089Y66231D01*
X418793Y66305D01*
X418478Y66324D01*
D02*
G37*
G36*
X182352Y91703D02*
X180260D01*
Y87500D01*
X182389D01*
X182500Y87519D01*
X182667Y87537D01*
X182871Y87574D01*
X183111Y87648D01*
X183352Y87759D01*
X183611Y87889D01*
X183852Y88093D01*
X183871Y88130D01*
X183944Y88204D01*
X184037Y88333D01*
X184167Y88518D01*
X184278Y88722D01*
X184370Y88981D01*
X184445Y89278D01*
X184463Y89592D01*
Y89611D01*
Y89629D01*
Y89740D01*
X184426Y89907D01*
X184389Y90111D01*
X184315Y90352D01*
X184204Y90592D01*
X184056Y90851D01*
X183852Y91092D01*
X183833Y91111D01*
X183741Y91185D01*
X183611Y91277D01*
X183445Y91407D01*
X183222Y91518D01*
X182963Y91611D01*
X182667Y91685D01*
X182352Y91703D01*
D02*
G37*
G36*
X75588Y138460D02*
X72977D01*
Y130053D01*
X75699D01*
X75829Y130072D01*
X75977Y130109D01*
X76162Y130164D01*
X76347Y130239D01*
X76533Y130350D01*
X76718Y130498D01*
X76736Y130516D01*
X76792Y130590D01*
X76866Y130683D01*
X76958Y130813D01*
X77033Y130979D01*
X77107Y131164D01*
X77162Y131387D01*
X77181Y131627D01*
Y136868D01*
Y136905D01*
Y136979D01*
X77162Y137108D01*
X77125Y137256D01*
X77070Y137442D01*
X76977Y137627D01*
X76866Y137812D01*
X76718Y137997D01*
X76699Y138016D01*
X76644Y138071D01*
X76533Y138145D01*
X76403Y138238D01*
X76236Y138312D01*
X76051Y138386D01*
X75829Y138441D01*
X75588Y138460D01*
D02*
G37*
G36*
X215542Y143540D02*
X212931D01*
Y135133D01*
X215653D01*
X215783Y135152D01*
X215931Y135189D01*
X216116Y135245D01*
X216301Y135319D01*
X216487Y135430D01*
X216672Y135578D01*
X216690Y135596D01*
X216746Y135670D01*
X216820Y135763D01*
X216912Y135893D01*
X216987Y136059D01*
X217061Y136244D01*
X217116Y136467D01*
X217135Y136707D01*
Y141947D01*
Y141985D01*
Y142059D01*
X217116Y142188D01*
X217079Y142336D01*
X217024Y142522D01*
X216931Y142707D01*
X216820Y142892D01*
X216672Y143077D01*
X216653Y143096D01*
X216598Y143151D01*
X216487Y143225D01*
X216357Y143318D01*
X216190Y143392D01*
X216005Y143466D01*
X215783Y143521D01*
X215542Y143540D01*
D02*
G37*
G36*
X209324Y9203D02*
X206714D01*
Y797D01*
X209436D01*
X209565Y815D01*
X209713Y852D01*
X209898Y908D01*
X210084Y982D01*
X210269Y1093D01*
X210454Y1241D01*
X210472Y1260D01*
X210528Y1334D01*
X210602Y1426D01*
X210695Y1556D01*
X210769Y1723D01*
X210843Y1908D01*
X210898Y2130D01*
X210917Y2371D01*
Y7611D01*
Y7648D01*
Y7722D01*
X210898Y7852D01*
X210861Y8000D01*
X210806Y8185D01*
X210713Y8370D01*
X210602Y8555D01*
X210454Y8740D01*
X210435Y8759D01*
X210380Y8814D01*
X210269Y8888D01*
X210139Y8981D01*
X209972Y9055D01*
X209787Y9129D01*
X209565Y9185D01*
X209324Y9203D01*
D02*
G37*
G36*
X277772Y138460D02*
X275161D01*
Y130053D01*
X277883D01*
X278013Y130072D01*
X278161Y130109D01*
X278346Y130164D01*
X278531Y130239D01*
X278717Y130350D01*
X278902Y130498D01*
X278920Y130516D01*
X278976Y130590D01*
X279050Y130683D01*
X279142Y130813D01*
X279217Y130979D01*
X279291Y131164D01*
X279346Y131387D01*
X279365Y131627D01*
Y136868D01*
Y136905D01*
Y136979D01*
X279346Y137108D01*
X279309Y137256D01*
X279254Y137442D01*
X279161Y137627D01*
X279050Y137812D01*
X278902Y137997D01*
X278883Y138016D01*
X278828Y138071D01*
X278717Y138145D01*
X278587Y138238D01*
X278420Y138312D01*
X278235Y138386D01*
X278013Y138441D01*
X277772Y138460D01*
D02*
G37*
G36*
X93022Y104170D02*
X92985D01*
X92873Y104151D01*
X92725Y104077D01*
X92633Y104022D01*
X92540Y103948D01*
X92429Y103855D01*
X92318Y103744D01*
X92207Y103596D01*
X92114Y103429D01*
X92003Y103226D01*
X91911Y102985D01*
X91818Y102726D01*
X91726Y102411D01*
Y102392D01*
X91707Y102355D01*
Y102300D01*
X91688Y102207D01*
X91670Y102096D01*
X91633Y101966D01*
X91596Y101670D01*
X91540Y101300D01*
X91485Y100874D01*
X91466Y100430D01*
X91448Y99967D01*
Y99948D01*
Y99911D01*
Y99837D01*
Y99745D01*
Y99633D01*
X91466Y99485D01*
X91485Y99171D01*
X91522Y98782D01*
X91559Y98374D01*
X91633Y97948D01*
X91726Y97504D01*
Y97486D01*
X91744Y97430D01*
X91763Y97337D01*
X91800Y97226D01*
X91855Y97097D01*
X91911Y96948D01*
X92040Y96634D01*
X92225Y96319D01*
X92337Y96171D01*
X92448Y96041D01*
X92577Y95930D01*
X92707Y95837D01*
X92855Y95782D01*
X93022Y95763D01*
X93059D01*
X93170Y95801D01*
X93318Y95856D01*
X93411Y95912D01*
X93503Y95986D01*
X93614Y96078D01*
X93725Y96189D01*
X93818Y96337D01*
X93929Y96504D01*
X94022Y96689D01*
X94133Y96930D01*
X94225Y97189D01*
X94299Y97504D01*
Y97522D01*
X94318Y97559D01*
X94336Y97615D01*
X94355Y97708D01*
X94373Y97819D01*
X94392Y97930D01*
X94447Y98245D01*
X94503Y98615D01*
X94558Y99022D01*
X94577Y99485D01*
X94596Y99967D01*
Y99985D01*
Y100022D01*
Y100096D01*
Y100189D01*
Y100300D01*
X94577Y100430D01*
X94558Y100763D01*
X94522Y101133D01*
X94466Y101541D01*
X94392Y101985D01*
X94299Y102411D01*
Y102429D01*
X94281Y102485D01*
X94262Y102577D01*
X94225Y102689D01*
X94170Y102818D01*
X94133Y102966D01*
X93984Y103300D01*
X93818Y103615D01*
X93707Y103763D01*
X93596Y103892D01*
X93466Y104003D01*
X93318Y104096D01*
X93188Y104151D01*
X93022Y104170D01*
D02*
G37*
G36*
X125863Y137698D02*
X125752D01*
X125622Y137680D01*
X125474Y137642D01*
X125289Y137587D01*
X125104Y137494D01*
X124919Y137383D01*
X124733Y137235D01*
X124715Y137217D01*
X124659Y137161D01*
X124585Y137050D01*
X124511Y136920D01*
X124437Y136754D01*
X124363Y136568D01*
X124307Y136346D01*
X124289Y136105D01*
Y135069D01*
Y135032D01*
Y134958D01*
X124307Y134828D01*
X124345Y134680D01*
X124400Y134495D01*
X124474Y134309D01*
X124585Y134124D01*
X124733Y133939D01*
X124752Y133921D01*
X124826Y133865D01*
X124919Y133791D01*
X125048Y133717D01*
X125215Y133643D01*
X125400Y133569D01*
X125622Y133513D01*
X125863Y133495D01*
X127437D01*
Y136105D01*
Y136143D01*
Y136217D01*
X127418Y136346D01*
X127381Y136494D01*
X127326Y136680D01*
X127233Y136865D01*
X127122Y137050D01*
X126974Y137235D01*
X126955Y137254D01*
X126900Y137309D01*
X126789Y137383D01*
X126659Y137476D01*
X126493Y137550D01*
X126307Y137624D01*
X126104Y137680D01*
X125863Y137698D01*
D02*
G37*
G36*
X176185Y141703D02*
X176074D01*
X175944Y141685D01*
X175796Y141648D01*
X175611Y141592D01*
X175426Y141500D01*
X175240Y141389D01*
X175055Y141240D01*
X175037Y141222D01*
X174981Y141166D01*
X174907Y141055D01*
X174833Y140926D01*
X174759Y140759D01*
X174685Y140574D01*
X174629Y140370D01*
X174611Y140129D01*
Y140092D01*
Y140018D01*
X174629Y139889D01*
X174666Y139740D01*
X174722Y139555D01*
X174796Y139370D01*
X174907Y139185D01*
X175055Y139000D01*
X175074Y138981D01*
X175148Y138926D01*
X175240Y138852D01*
X175370Y138778D01*
X175537Y138704D01*
X175722Y138630D01*
X175944Y138574D01*
X176185Y138555D01*
X176296D01*
X176407Y138574D01*
X176574Y138611D01*
X176740Y138667D01*
X176926Y138741D01*
X177111Y138852D01*
X177296Y139000D01*
X177314Y139018D01*
X177370Y139093D01*
X177444Y139185D01*
X177537Y139315D01*
X177611Y139481D01*
X177685Y139667D01*
X177740Y139889D01*
X177759Y140129D01*
Y140166D01*
Y140240D01*
X177740Y140352D01*
X177703Y140518D01*
X177648Y140685D01*
X177555Y140870D01*
X177444Y141055D01*
X177296Y141240D01*
X177277Y141259D01*
X177222Y141314D01*
X177111Y141389D01*
X176981Y141481D01*
X176814Y141555D01*
X176629Y141629D01*
X176425Y141685D01*
X176185Y141703D01*
D02*
G37*
G36*
Y137500D02*
X176074D01*
X175944Y137481D01*
X175796Y137444D01*
X175611Y137389D01*
X175426Y137296D01*
X175240Y137185D01*
X175055Y137037D01*
X175037Y137019D01*
X174981Y136963D01*
X174907Y136852D01*
X174833Y136722D01*
X174759Y136556D01*
X174685Y136370D01*
X174629Y136148D01*
X174611Y135908D01*
Y134871D01*
Y134834D01*
Y134760D01*
X174629Y134630D01*
X174666Y134482D01*
X174722Y134297D01*
X174796Y134111D01*
X174907Y133926D01*
X175055Y133741D01*
X175074Y133723D01*
X175148Y133667D01*
X175240Y133593D01*
X175370Y133519D01*
X175537Y133445D01*
X175722Y133371D01*
X175944Y133315D01*
X176185Y133297D01*
X176296D01*
X176407Y133315D01*
X176574Y133352D01*
X176740Y133408D01*
X176926Y133482D01*
X177111Y133593D01*
X177296Y133741D01*
X177314Y133760D01*
X177370Y133834D01*
X177444Y133926D01*
X177537Y134056D01*
X177611Y134223D01*
X177685Y134408D01*
X177740Y134630D01*
X177759Y134871D01*
Y135908D01*
Y135945D01*
Y136019D01*
X177740Y136148D01*
X177703Y136297D01*
X177648Y136482D01*
X177555Y136667D01*
X177444Y136852D01*
X177296Y137037D01*
X177277Y137056D01*
X177222Y137111D01*
X177111Y137185D01*
X176981Y137278D01*
X176814Y137352D01*
X176629Y137426D01*
X176425Y137481D01*
X176185Y137500D01*
D02*
G37*
G36*
X202825Y137051D02*
X201251D01*
Y134421D01*
Y134384D01*
Y134310D01*
X201269Y134181D01*
X201307Y134032D01*
X201362Y133847D01*
X201436Y133662D01*
X201547Y133477D01*
X201695Y133292D01*
X201714Y133273D01*
X201788Y133218D01*
X201881Y133144D01*
X202010Y133070D01*
X202177Y132996D01*
X202362Y132921D01*
X202584Y132866D01*
X202825Y132847D01*
X202936D01*
X203047Y132866D01*
X203214Y132903D01*
X203380Y132958D01*
X203566Y133033D01*
X203751Y133144D01*
X203936Y133292D01*
X203955Y133310D01*
X204010Y133384D01*
X204084Y133477D01*
X204177Y133607D01*
X204251Y133773D01*
X204325Y133958D01*
X204380Y134181D01*
X204399Y134421D01*
Y135458D01*
Y135495D01*
Y135569D01*
X204380Y135699D01*
X204343Y135847D01*
X204288Y136032D01*
X204195Y136217D01*
X204084Y136403D01*
X203936Y136588D01*
X203917Y136606D01*
X203862Y136662D01*
X203751Y136736D01*
X203621Y136828D01*
X203454Y136903D01*
X203269Y136977D01*
X203066Y137032D01*
X202825Y137051D01*
D02*
G37*
%LPD*%
D10*
X62500Y105000D02*
G03*
X62500Y105000I-25000J0D01*
G01*
X62500Y35000D02*
G03*
X62500Y35000I-25000J0D01*
G01*
X10454Y87337D02*
Y72102D01*
Y79720D01*
X20611D01*
Y87337D01*
Y72102D01*
X25689Y87337D02*
Y72102D01*
X35846D01*
X51081D02*
X40924D01*
X51081Y82259D01*
Y84798D01*
X48542Y87337D01*
X43463D01*
X40924Y84798D01*
X28996Y154139D02*
Y138904D01*
Y146522D01*
X39153D01*
Y154139D01*
Y138904D01*
X44231Y154139D02*
Y138904D01*
X54388D01*
X59466D02*
X64545D01*
X62005D01*
Y154139D01*
X59466Y151600D01*
D11*
X186800Y64500D02*
G03*
X186800Y64500I-1250J0D01*
G01*
X277750Y76725D02*
G03*
X277750Y76725I-1250J0D01*
G01*
D12*
X193750Y99250D02*
X206250D01*
X193750Y125750D02*
X206250D01*
X193750Y99250D02*
Y125750D01*
X206250Y99250D02*
Y125750D01*
X436250Y23750D02*
Y50250D01*
X448750Y23750D02*
Y50250D01*
X436250Y23750D02*
X448750D01*
X436250Y50250D02*
X448750D01*
X179250Y78750D02*
X205750D01*
X179250Y66250D02*
X205750D01*
X179250D02*
Y78750D01*
X205750Y66250D02*
Y78750D01*
X219250Y66250D02*
X245750D01*
X219250Y78750D02*
X245750D01*
Y66250D02*
Y78750D01*
X219250Y66250D02*
Y78750D01*
X196550Y14500D02*
X228550D01*
Y60750D01*
X196550D02*
X228550D01*
X196550Y14500D02*
Y60750D01*
X160000Y83000D02*
X180000D01*
X160000Y127000D02*
X180000D01*
X160000Y83000D02*
Y127000D01*
X180000Y83000D02*
Y127000D01*
X137500D02*
X157500D01*
X137500Y83000D02*
X157500D01*
Y127000D01*
X137500Y83000D02*
Y127000D01*
X81250Y14250D02*
Y40750D01*
X68750Y14250D02*
Y40750D01*
X81250D01*
X68750Y14250D02*
X81250D01*
X436250Y54250D02*
Y80750D01*
X448750Y54250D02*
Y80750D01*
X436250Y54250D02*
X448750D01*
X436250Y80750D02*
X448750D01*
X277000Y83225D02*
Y109225D01*
X286500D01*
X323000Y83225D02*
Y109225D01*
X313500D02*
X323000D01*
X113750Y14250D02*
Y40750D01*
X126250Y14250D02*
Y40750D01*
X113750Y14250D02*
X126250D01*
X113750Y40750D02*
X126250D01*
X416250Y24250D02*
Y50750D01*
X428750Y24250D02*
Y50750D01*
X416250Y24250D02*
X428750D01*
X416250Y50750D02*
X428750D01*
X87500Y24000D02*
Y31000D01*
Y24000D02*
X107500D01*
Y31000D01*
X87500D02*
X107500D01*
X258750Y68750D02*
Y95250D01*
X271250Y68750D02*
Y95250D01*
X258750Y68750D02*
X271250D01*
X258750Y95250D02*
X271250D01*
X328750Y71250D02*
Y97750D01*
X341250Y71250D02*
Y97750D01*
X328750Y71250D02*
X341250D01*
X328750Y97750D02*
X341250D01*
X432500Y64000D02*
Y71000D01*
X412500D02*
X432500D01*
X412500Y64000D02*
Y71000D01*
Y64000D02*
X432500D01*
X230000Y126500D02*
X235000D01*
X230000Y98500D02*
X235000D01*
X230000D02*
Y126500D01*
X235000Y98500D02*
Y126500D01*
X354250Y83750D02*
X380750D01*
X354250Y71250D02*
X380750D01*
X354250D02*
Y83750D01*
X380750Y71250D02*
Y83750D01*
X354250Y63750D02*
X380750D01*
X354250Y51250D02*
X380750D01*
X354250D02*
Y63750D01*
X380750Y51250D02*
Y63750D01*
X219750Y81250D02*
X246250D01*
X219750Y93750D02*
X246250D01*
Y81250D02*
Y93750D01*
X219750Y81250D02*
Y93750D01*
X271250Y99250D02*
Y125750D01*
X258750Y99250D02*
Y125750D01*
X271250D01*
X258750Y99250D02*
X271250D01*
X353000Y88000D02*
Y122000D01*
Y88000D02*
X412000D01*
Y122000D01*
X353000D02*
X412000D01*
X353000Y13000D02*
Y47000D01*
Y13000D02*
X412000D01*
Y47000D01*
X353000D02*
X412000D01*
X90000Y93500D02*
X95000D01*
X90000Y121500D02*
X95000D01*
Y93500D02*
Y121500D01*
X90000Y93500D02*
Y121500D01*
X78750Y88750D02*
X105250D01*
X78750Y76250D02*
X105250D01*
X78750D02*
Y88750D01*
X105250Y76250D02*
Y88750D01*
X116769Y95731D02*
Y122231D01*
X129269Y95731D02*
Y122231D01*
X116769Y95731D02*
X129269D01*
X116769Y122231D02*
X129269D01*
M02*
