G04*
G04 #@! TF.GenerationSoftware,Altium Limited,Altium Designer,20.1.7 (139)*
G04*
G04 Layer_Physical_Order=2*
G04 Layer_Color=65535*
%FSLAX44Y44*%
%MOMM*%
G71*
G04*
G04 #@! TF.SameCoordinates,662E4E51-3FC6-4070-AA2F-EFADEBEA197F*
G04*
G04*
G04 #@! TF.FilePolarity,Positive*
G04*
G01*
G75*
%ADD34C,0.7000*%
%ADD36C,0.3810*%
%ADD38O,2.0000X1.2000*%
%ADD39C,2.0000*%
%ADD40R,2.0000X2.0000*%
%ADD41C,1.5000*%
%ADD42C,1.0000*%
D34*
X48800Y15000D02*
X60000D01*
X41500Y22300D02*
X48800Y15000D01*
X405000Y127500D02*
X442500Y90000D01*
X277500Y127500D02*
X405000D01*
X385000Y67500D02*
X420000D01*
X442500Y90000D01*
X371972Y20000D02*
X442500D01*
X325722Y66250D02*
X371972Y20000D01*
X250000Y87500D02*
Y124472D01*
X245000Y129472D02*
X250000Y124472D01*
X245000Y129472D02*
Y132500D01*
X86250Y66250D02*
X253750D01*
X277500Y90000D02*
Y127500D01*
X253750Y66250D02*
X277500Y90000D01*
X85000Y67500D02*
X86250Y66250D01*
X37500Y22300D02*
X41500D01*
X37500Y47700D02*
X65200D01*
X85000Y67500D01*
X37500Y92300D02*
X41500D01*
X52383Y103183D01*
X178183D01*
X187500Y112500D01*
X37500Y117700D02*
X67300D01*
D36*
X67500Y117500D01*
D38*
X37500Y117700D02*
D03*
Y92300D02*
D03*
X37500Y47700D02*
D03*
Y22300D02*
D03*
D39*
X465000Y85400D02*
D03*
Y60000D02*
D03*
D40*
Y34600D02*
D03*
D41*
X202500Y90000D02*
D03*
X60000Y15000D02*
D03*
X140000Y50000D02*
D03*
X160000Y15000D02*
D03*
X300000Y57500D02*
D03*
X440000Y130000D02*
D03*
X67500Y117500D02*
D03*
X277500Y127500D02*
D03*
X325722Y66250D02*
D03*
X442500Y20000D02*
D03*
X385000Y67500D02*
D03*
X245000Y132500D02*
D03*
X250000Y87500D02*
D03*
X252500Y65000D02*
D03*
X85000Y67500D02*
D03*
X442500Y90000D02*
D03*
D42*
X187500Y112500D02*
D03*
M02*
