G04*
G04 #@! TF.GenerationSoftware,Altium Limited,Altium Designer,20.1.7 (139)*
G04*
G04 Layer_Physical_Order=2*
G04 Layer_Color=65535*
%FSLAX44Y44*%
%MOMM*%
G71*
G04*
G04 #@! TF.SameCoordinates,EAEC4F56-8EE0-43A8-A4D0-7A7E52DB7783*
G04*
G04*
G04 #@! TF.FilePolarity,Positive*
G04*
G01*
G75*
%ADD10C,0.3000*%
%ADD12R,0.7000X0.5000*%
%ADD13R,0.6000X0.6000*%
%ADD14R,0.6000X0.6000*%
%ADD18R,1.6000X1.0000*%
%ADD20C,0.5000*%
%ADD21C,0.2500*%
%ADD24C,1.2000*%
%ADD25C,1.0000*%
%ADD26R,0.6000X1.1000*%
%ADD27C,0.7000*%
%ADD28R,0.7000X0.2800*%
%ADD29R,1.6400X2.3800*%
G36*
X117002Y2998D02*
X2998D01*
Y317002D01*
X117002D01*
X117002Y2998D01*
D02*
G37*
%LPC*%
G36*
X106270Y308718D02*
Y301270D01*
X113718D01*
X111536Y306536D01*
X106270Y308718D01*
D02*
G37*
G36*
X103730D02*
X98464Y306536D01*
X96282Y301270D01*
X103730D01*
Y308718D01*
D02*
G37*
G36*
X113718Y298730D02*
X106270D01*
Y291283D01*
X111536Y293464D01*
X113718Y298730D01*
D02*
G37*
G36*
X103730D02*
X96282D01*
X98464Y293464D01*
X103730Y291283D01*
Y298730D01*
D02*
G37*
G36*
X66000Y261035D02*
X61025Y258975D01*
X58964Y254000D01*
X61025Y249025D01*
X61670Y248758D01*
Y239000D01*
X62938Y235938D01*
X64939Y233939D01*
X68000Y232670D01*
X74000D01*
X74796Y233000D01*
X79000D01*
Y241000D01*
X74796D01*
X74000Y241330D01*
X70330D01*
Y248758D01*
X70975Y249025D01*
X73035Y254000D01*
X70975Y258975D01*
X66000Y261035D01*
D02*
G37*
G36*
X92730Y235540D02*
X87960D01*
Y231770D01*
X92730D01*
Y235540D01*
D02*
G37*
G36*
Y229230D02*
X87960D01*
Y225460D01*
X92730D01*
Y229230D01*
D02*
G37*
G36*
X93730Y219540D02*
X89460D01*
Y215270D01*
X93730D01*
Y219540D01*
D02*
G37*
G36*
X99000Y247500D02*
X89000D01*
Y239500D01*
X99000D01*
Y239500D01*
X100792Y238998D01*
X101023Y238767D01*
Y237133D01*
X100040Y235540D01*
X99023Y235540D01*
X95270D01*
Y230500D01*
Y225460D01*
X99023D01*
X100040Y225460D01*
X101023Y223867D01*
Y221340D01*
X100540Y219540D01*
X99023Y219540D01*
X96270D01*
Y214000D01*
X95000D01*
Y212730D01*
X89460D01*
Y208705D01*
X84418D01*
X83000Y210123D01*
Y218000D01*
X74540D01*
Y219040D01*
X70270D01*
Y211000D01*
X67730D01*
Y219040D01*
X63460D01*
Y218000D01*
X55000D01*
Y215330D01*
X49500D01*
Y217500D01*
X30500D01*
Y215329D01*
X26500D01*
Y217500D01*
X19330D01*
Y226758D01*
X19975Y227025D01*
X22036Y232000D01*
X19975Y236975D01*
X15000Y239035D01*
X10025Y236975D01*
X7964Y232000D01*
X10025Y227025D01*
X10670Y226758D01*
Y217500D01*
X7500D01*
Y204500D01*
X26500D01*
Y206670D01*
X30500D01*
Y204500D01*
X49500D01*
Y206670D01*
X55000D01*
Y204000D01*
X61772D01*
X61959Y203885D01*
X62335Y203247D01*
X61193Y201247D01*
X48257D01*
X45961Y200296D01*
X44204Y198539D01*
X43253Y196243D01*
Y187500D01*
X30500D01*
Y185330D01*
X26500D01*
Y187500D01*
X7500D01*
Y174500D01*
X26500D01*
Y176670D01*
X30500D01*
Y174500D01*
X49500D01*
Y183903D01*
X49747Y184500D01*
Y194753D01*
X73753D01*
Y186500D01*
X74000Y185903D01*
Y178000D01*
X74170D01*
Y172540D01*
X71270D01*
Y167000D01*
Y161460D01*
X74170D01*
Y139000D01*
X75438Y135939D01*
X77670Y133707D01*
Y114429D01*
X77500Y112500D01*
X68500D01*
Y112500D01*
X67500D01*
Y112500D01*
X65329D01*
Y161460D01*
X68730D01*
Y167000D01*
Y172540D01*
X64460D01*
X64080Y174382D01*
Y184750D01*
X64000Y184942D01*
Y192000D01*
X55000D01*
Y178000D01*
X55420D01*
Y169250D01*
X55500Y169058D01*
Y162500D01*
X56670D01*
Y112330D01*
X52486D01*
X50540Y112460D01*
Y116730D01*
X45000D01*
X39423D01*
X37612Y115980D01*
X34795Y118797D01*
X36535Y123000D01*
X34475Y127975D01*
X31957Y129018D01*
Y130847D01*
X32028Y131153D01*
X34035Y136000D01*
X31975Y140975D01*
X27000Y143036D01*
X22025Y140975D01*
X19964Y136000D01*
X20792Y134002D01*
X16895Y130105D01*
X16023Y128000D01*
Y86014D01*
X15980Y85972D01*
X14318Y84892D01*
X12976Y86233D01*
Y139767D01*
X19002Y145792D01*
X21000Y144965D01*
X25975Y147025D01*
X28036Y152000D01*
X25975Y156975D01*
X21000Y159036D01*
X16025Y156975D01*
X13964Y152000D01*
X14792Y150002D01*
X7895Y143105D01*
X7023Y141000D01*
Y85000D01*
X7895Y82895D01*
X18895Y71895D01*
X21000Y71023D01*
X44500D01*
X44685Y71100D01*
X49300D01*
Y70600D01*
X54971D01*
X55000Y70588D01*
X55029Y70600D01*
X62971D01*
X63000Y70588D01*
X63029Y70600D01*
X67460D01*
Y70060D01*
X72230D01*
Y74000D01*
X73500D01*
Y75270D01*
X79540D01*
Y76023D01*
X84000D01*
X86105Y76895D01*
X91105Y81895D01*
X91105Y81895D01*
X91976Y84000D01*
Y93500D01*
X94500D01*
Y102500D01*
X94500D01*
Y103500D01*
X94500D01*
Y112500D01*
X92977D01*
Y149767D01*
X106105Y162895D01*
X106105Y162895D01*
X106977Y165000D01*
X106976Y165000D01*
Y240000D01*
X106105Y242105D01*
X103105Y245105D01*
X101000Y245977D01*
X99000D01*
Y247500D01*
D02*
G37*
G36*
X50540Y123540D02*
X46270D01*
Y119270D01*
X50540D01*
Y123540D01*
D02*
G37*
G36*
X43730D02*
X39460D01*
Y119270D01*
X43730D01*
Y123540D01*
D02*
G37*
G36*
X106270Y88718D02*
Y81270D01*
X113718D01*
X111536Y86536D01*
X106270Y88718D01*
D02*
G37*
G36*
X103730D02*
X98464Y86536D01*
X96282Y81270D01*
X103730D01*
Y88718D01*
D02*
G37*
G36*
X113718Y78730D02*
X106270D01*
Y71282D01*
X111536Y73464D01*
X113718Y78730D01*
D02*
G37*
G36*
X103730D02*
X96282D01*
X98464Y73464D01*
X103730Y71282D01*
Y78730D01*
D02*
G37*
G36*
X79540Y72730D02*
X74770D01*
Y70060D01*
X79540D01*
Y72730D01*
D02*
G37*
G36*
X16270Y68718D02*
Y61270D01*
X23718D01*
X21536Y66536D01*
X16270Y68718D01*
D02*
G37*
G36*
X13730D02*
X8464Y66536D01*
X6282Y61270D01*
X13730D01*
Y68718D01*
D02*
G37*
G36*
X23718Y58730D02*
X16270D01*
Y51282D01*
X21536Y53464D01*
X23718Y58730D01*
D02*
G37*
G36*
X13730D02*
X6282D01*
X8464Y53464D01*
X13730Y51282D01*
Y58730D01*
D02*
G37*
G36*
X34870Y31176D02*
Y24270D01*
X41776D01*
X39753Y29153D01*
X34870Y31176D01*
D02*
G37*
G36*
X32330Y31176D02*
X27446Y29153D01*
X25424Y24270D01*
X32330D01*
Y31176D01*
D02*
G37*
G36*
X84400Y30577D02*
X79042Y28358D01*
X76823Y23000D01*
X79042Y17643D01*
X84400Y15423D01*
X89757Y17643D01*
X91977Y23000D01*
X89757Y28358D01*
X84400Y30577D01*
D02*
G37*
G36*
X59000D02*
X53642Y28358D01*
X51423Y23000D01*
X53642Y17643D01*
X59000Y15423D01*
X64358Y17643D01*
X66577Y23000D01*
X64358Y28358D01*
X59000Y30577D01*
D02*
G37*
G36*
X41776Y21730D02*
X34870D01*
Y14824D01*
X39753Y16846D01*
X41776Y21730D01*
D02*
G37*
G36*
X32330D02*
X25424D01*
X27446Y16846D01*
X32330Y14824D01*
Y21730D01*
D02*
G37*
%LPD*%
D10*
X77000Y186500D02*
Y196243D01*
X75243Y198000D02*
X77000Y196243D01*
X46500Y184500D02*
Y196243D01*
X48257Y198000D01*
X75243D01*
X61000Y110000D02*
X63000Y108000D01*
X60000Y167000D02*
X61000Y166000D01*
X39500Y109500D02*
X43500D01*
X30839Y118161D02*
X39500Y109500D01*
X30839Y118161D02*
Y121661D01*
X29500Y123000D02*
X30839Y121661D01*
X43500Y109500D02*
X45000Y108000D01*
X59750Y169250D02*
X60000Y169000D01*
X59500Y185000D02*
X59750Y184750D01*
X43000Y181000D02*
X46500Y184500D01*
X77000Y186500D02*
X78500Y185000D01*
X44500Y94000D02*
X44600D01*
X44750Y94150D01*
Y107750D01*
X45000Y108000D01*
D12*
X94000Y243500D02*
D03*
Y230500D02*
D03*
X74000Y237000D02*
D03*
D13*
X90000Y108000D02*
D03*
Y98000D02*
D03*
X95000Y204000D02*
D03*
Y214000D02*
D03*
Y183000D02*
D03*
Y193000D02*
D03*
X45000Y118000D02*
D03*
Y108000D02*
D03*
D14*
X60000Y167000D02*
D03*
X70000D02*
D03*
X63000Y108000D02*
D03*
X73000D02*
D03*
D18*
X17000Y181000D02*
D03*
Y211000D02*
D03*
X40000Y181000D02*
D03*
Y211000D02*
D03*
D20*
X78500Y139000D02*
X82000Y135500D01*
Y92000D02*
Y135500D01*
X68000Y237000D02*
X74000D01*
X66000Y239000D02*
Y254000D01*
Y239000D02*
X68000Y237000D01*
X95000Y171000D02*
Y183000D01*
X78500Y139000D02*
Y185000D01*
X61000Y110000D02*
Y166000D01*
X59750Y169250D02*
Y184750D01*
X17000Y181000D02*
X43000D01*
X78500Y208500D02*
X82625Y204375D01*
X94625D02*
X95000Y204000D01*
X82625Y204375D02*
X94625D01*
X78500Y208500D02*
Y211000D01*
X95000Y193000D02*
Y204000D01*
X40000Y211000D02*
X59500D01*
X40000Y211000D02*
X40000Y211000D01*
X17000Y211000D02*
X40000D01*
X15000Y213000D02*
X17000Y211000D01*
X15000Y213000D02*
Y232000D01*
X45000Y108000D02*
X63000D01*
D21*
X26000Y79000D02*
X44500D01*
X19000Y86000D02*
Y128000D01*
Y86000D02*
X26000Y79000D01*
X21000Y74000D02*
X44500D01*
X10000Y85000D02*
Y141000D01*
Y85000D02*
X21000Y74000D01*
X10000Y141000D02*
X21000Y152000D01*
X19000Y128000D02*
X27000Y136000D01*
X94000Y243500D02*
X94500Y243000D01*
X101000D01*
X104000Y165000D02*
Y240000D01*
X101000Y243000D02*
X104000Y240000D01*
X90000Y108000D02*
Y151000D01*
X104000Y165000D01*
X89000Y97000D02*
X90000Y98000D01*
X89000Y84000D02*
Y97000D01*
X73500Y79000D02*
X84000D01*
X89000Y84000D01*
X81000Y89000D02*
X83000Y91000D01*
X73500Y89000D02*
X81000D01*
X29000Y92000D02*
Y105000D01*
X32000Y89000D02*
X44500D01*
X29000Y92000D02*
X32000Y89000D01*
X73400Y94000D02*
X73500D01*
X73250Y94150D02*
X73400Y94000D01*
X73250Y94150D02*
Y107750D01*
X73000Y108000D02*
X73250Y107750D01*
D24*
X105000Y300000D02*
D03*
Y80000D02*
D03*
X15000Y60000D02*
D03*
X29000Y105000D02*
D03*
D25*
X27000Y136000D02*
D03*
X66000Y254000D02*
D03*
X95000Y171000D02*
D03*
X15000Y232000D02*
D03*
X21000Y152000D02*
D03*
X29500Y123000D02*
D03*
D26*
X59500Y211000D02*
D03*
X69000D02*
D03*
X78500D02*
D03*
Y185000D02*
D03*
X59500D02*
D03*
D27*
X59000Y84000D02*
D03*
X63000Y92000D02*
D03*
X55000D02*
D03*
Y76000D02*
D03*
X63000D02*
D03*
D28*
X73500Y94000D02*
D03*
Y89000D02*
D03*
Y84000D02*
D03*
Y79000D02*
D03*
Y74000D02*
D03*
X44500D02*
D03*
Y79000D02*
D03*
Y84000D02*
D03*
Y89000D02*
D03*
Y94000D02*
D03*
D29*
X59000Y84000D02*
D03*
M02*
