G04*
G04 #@! TF.GenerationSoftware,Altium Limited,Altium Designer,20.1.7 (139)*
G04*
G04 Layer_Color=32768*
%FSLAX44Y44*%
%MOMM*%
G71*
G04*
G04 #@! TF.SameCoordinates,EAEC4F56-8EE0-43A8-A4D0-7A7E52DB7783*
G04*
G04*
G04 #@! TF.FilePolarity,Positive*
G04*
G01*
G75*
%ADD30C,0.1000*%
%ADD31C,0.0500*%
D30*
X87500Y103000D02*
X92500D01*
X90000Y100500D02*
Y105500D01*
X85500Y93500D02*
Y112500D01*
X94500Y93500D02*
Y112500D01*
X85500D02*
X94500D01*
X85500Y93500D02*
X94500D01*
X70000Y225000D02*
X98000D01*
Y249000D01*
X70000D02*
X98000D01*
X70000Y225000D02*
Y249000D01*
X81500Y237000D02*
X86500D01*
X84000Y234500D02*
Y239500D01*
X65000Y164500D02*
Y169500D01*
X62500Y167000D02*
X67500D01*
X55500Y162500D02*
X74500D01*
X55500Y171500D02*
X74500D01*
X55500Y162500D02*
Y171500D01*
X74500Y162500D02*
Y171500D01*
X92500Y209000D02*
X97500D01*
X95000Y206500D02*
Y211500D01*
X99500Y199500D02*
Y218500D01*
X90500Y199500D02*
Y218500D01*
Y199500D02*
X99500D01*
X90500Y218500D02*
X99500D01*
X92500Y188000D02*
X97500D01*
X95000Y185500D02*
Y190500D01*
X99500Y178500D02*
Y197500D01*
X90500Y178500D02*
Y197500D01*
Y178500D02*
X99500D01*
X90500Y197500D02*
X99500D01*
X58000Y198000D02*
Y202000D01*
X56000Y200000D02*
X60000D01*
X28500Y183000D02*
Y217000D01*
Y183000D02*
X87500D01*
Y217000D01*
X28500D02*
X87500D01*
X53000Y218000D02*
X85000D01*
X53000Y178000D02*
X85000D01*
X53000D02*
Y218000D01*
X85000Y178000D02*
Y218000D01*
X69000Y193000D02*
Y203000D01*
X64000Y198000D02*
X74000D01*
X7000Y174000D02*
Y218000D01*
X27000Y174000D02*
Y218000D01*
X7000D02*
X27000D01*
X7000Y174000D02*
X27000D01*
X17000Y191000D02*
Y201000D01*
X12000Y196000D02*
X22000D01*
X30000Y174000D02*
Y218000D01*
X50000Y174000D02*
Y218000D01*
X30000D02*
X50000D01*
X30000Y174000D02*
X50000D01*
X40000Y191000D02*
Y201000D01*
X35000Y196000D02*
X45000D01*
X40500Y122500D02*
X49500D01*
X40500Y103500D02*
X49500D01*
X40500D02*
Y122500D01*
X49500Y103500D02*
Y122500D01*
X45000Y110500D02*
Y115500D01*
X42500Y113000D02*
X47500D01*
X68000Y105500D02*
Y110500D01*
X65500Y108000D02*
X70500D01*
X58500Y103500D02*
X77500D01*
X58500Y112500D02*
X77500D01*
X58500Y103500D02*
Y112500D01*
X77500Y103500D02*
Y112500D01*
X35000Y65000D02*
X63000D01*
X35000D02*
Y89000D01*
X63000D01*
Y65000D02*
Y89000D01*
X46500Y77000D02*
X51500D01*
X49000Y74500D02*
Y79500D01*
X26500Y89000D02*
X31500D01*
X29000Y86500D02*
Y91500D01*
X24500Y79500D02*
Y98500D01*
X33500Y79500D02*
Y98500D01*
X24500Y79500D02*
X33500D01*
X24500Y98500D02*
X33500D01*
X88000Y42500D02*
Y47500D01*
X85500Y45000D02*
X90500D01*
X78500Y40500D02*
X97500D01*
X78500Y49500D02*
X97500D01*
Y40500D02*
Y49500D01*
X78500Y40500D02*
Y49500D01*
X38000Y221500D02*
Y226500D01*
X35500Y224000D02*
X40500D01*
X28500Y219500D02*
X47500D01*
X28500Y228500D02*
X47500D01*
Y219500D02*
Y228500D01*
X28500Y219500D02*
Y228500D01*
X88000Y58500D02*
Y63500D01*
X85500Y61000D02*
X90500D01*
X78500Y56500D02*
X97500D01*
X78500Y65500D02*
X97500D01*
Y56500D02*
Y65500D01*
X78500Y56500D02*
Y65500D01*
X47500Y91500D02*
X98500D01*
X47500Y146500D02*
X98500D01*
X47500Y91500D02*
Y146500D01*
X98500Y91500D02*
Y146500D01*
X73000Y114225D02*
Y124225D01*
X68000Y119225D02*
X78000D01*
X42000Y42000D02*
X76000D01*
X42000Y56000D02*
X76000D01*
Y42000D02*
Y56000D01*
X42000Y42000D02*
Y56000D01*
X54000Y49000D02*
X64000D01*
X59000Y44000D02*
Y54000D01*
X68500Y77000D02*
X73500D01*
X71000Y74500D02*
Y79500D01*
X66500Y67500D02*
Y86500D01*
X75500Y67500D02*
Y86500D01*
X66500Y67500D02*
X75500D01*
X66500Y86500D02*
X75500D01*
X38000Y139500D02*
Y144500D01*
X35500Y142000D02*
X40500D01*
X28500Y137500D02*
X47500D01*
X28500Y146500D02*
X47500D01*
Y137500D02*
Y146500D01*
X28500Y137500D02*
Y146500D01*
X58000Y164000D02*
Y168000D01*
X56000Y166000D02*
X60000D01*
X28500Y149000D02*
Y183000D01*
Y149000D02*
X87500D01*
Y183000D01*
X28500D02*
X87500D01*
X59000Y18000D02*
Y28000D01*
X54000Y23000D02*
X64000D01*
X73000Y248000D02*
Y292000D01*
X93000Y248000D02*
Y292000D01*
X73000Y248000D02*
X93000D01*
X73000Y292000D02*
X93000D01*
X83000Y265000D02*
Y275000D01*
X78000Y270000D02*
X88000D01*
X61500Y261500D02*
X70500D01*
X61500Y280500D02*
X70500D01*
X61500Y261500D02*
Y280500D01*
X70500Y261500D02*
Y280500D01*
X66000Y268500D02*
Y273500D01*
X63500Y271000D02*
X68500D01*
D31*
X37750Y105250D02*
X80250D01*
X37750Y62750D02*
X80250D01*
X37750D02*
Y105250D01*
X80250Y62750D02*
Y105250D01*
X97100Y10300D02*
Y35700D01*
X20900D02*
X97100D01*
X20900Y10300D02*
Y35700D01*
Y10300D02*
X97100D01*
M02*
